<svg xmlns="http://www.w3.org/2000/svg" xmlns:xlink="http://www.w3.org/1999/xlink" width="1500" zoomAndPan="magnify" viewBox="0 0 1125 479.999983" height="640" preserveAspectRatio="xMidYMid meet" version="1.2"><defs><clipPath id="1fd8e969b0"><path d="M 0 236 L 194.902344 236 L 194.902344 282.285156 L 0 282.285156 Z M 0 236 "/></clipPath><clipPath id="7ebfd43d63"><path d="M 0 231.628906 L 257.082031 231.628906 L 257.082031 282.285156 L 0 282.285156 Z M 0 231.628906 "/></clipPath><clipPath id="a030677173"><path d="M 43 120 L 297.441406 120 L 297.441406 163 L 43 163 Z M 43 120 "/></clipPath><clipPath id="7217aae9b3"><path d="M 21 46.257812 L 276 46.257812 L 276 123 L 21 123 Z M 21 46.257812 "/></clipPath><clipPath id="9abd2b6b98"><path d="M 1029 199.011719 L 1121.507812 199.011719 L 1121.507812 278 L 1029 278 Z M 1029 199.011719 "/></clipPath></defs><g id="25fdfead88"><path style="fill:none;stroke-width:8;stroke-linecap:round;stroke-linejoin:miter;stroke:#1d4ed8;stroke-opacity:1;stroke-miterlimit:4;" d="M 4.002001 3.999433 L 334.767652 3.999433 " transform="matrix(0,-0.75,0.75,0,316.6098,290.661657)"/><g style="fill:#e17100;fill-opacity:1;"><g transform="translate(340.779661, 279.964782)"><path style="stroke:none" d="M 53.0625 1.515625 C 43.925781 1.515625 35.6875 -0.453125 28.34375 -4.390625 C 21.007812 -8.335938 15.269531 -13.769531 11.125 -20.6875 C 6.976562 -27.601562 4.90625 -35.375 4.90625 -44 C 4.90625 -52.632812 6.976562 -60.410156 11.125 -67.328125 C 15.269531 -74.242188 21.007812 -79.671875 28.34375 -83.609375 C 35.6875 -87.546875 43.925781 -89.515625 53.0625 -89.515625 C 62.195312 -89.515625 70.410156 -87.546875 77.703125 -83.609375 C 84.992188 -79.671875 90.734375 -74.242188 94.921875 -67.328125 C 99.117188 -60.410156 101.21875 -52.632812 101.21875 -44 C 101.21875 -35.375 99.117188 -27.601562 94.921875 -20.6875 C 90.734375 -13.769531 84.992188 -8.335938 77.703125 -4.390625 C 70.410156 -0.453125 62.195312 1.515625 53.0625 1.515625 Z M 53.0625 -15.84375 C 58.257812 -15.84375 62.953125 -17.035156 67.140625 -19.421875 C 71.328125 -21.816406 74.613281 -25.148438 77 -29.421875 C 79.394531 -33.691406 80.59375 -38.550781 80.59375 -44 C 80.59375 -49.457031 79.394531 -54.320312 77 -58.59375 C 74.613281 -62.863281 71.328125 -66.191406 67.140625 -68.578125 C 62.953125 -70.972656 58.257812 -72.171875 53.0625 -72.171875 C 47.863281 -72.171875 43.164062 -70.972656 38.96875 -68.578125 C 34.78125 -66.191406 31.492188 -62.863281 29.109375 -58.59375 C 26.722656 -54.320312 25.53125 -49.457031 25.53125 -44 C 25.53125 -38.550781 26.722656 -33.691406 29.109375 -29.421875 C 31.492188 -25.148438 34.78125 -21.816406 38.96875 -19.421875 C 43.164062 -17.035156 47.863281 -15.84375 53.0625 -15.84375 Z M 53.0625 -15.84375 "/></g></g><g style="fill:#e17100;fill-opacity:1;"><g transform="translate(446.890952, 279.964782)"><path style="stroke:none" d="M 27.78125 -58.71875 C 30.132812 -61.988281 33.300781 -64.460938 37.28125 -66.140625 C 41.257812 -67.816406 45.847656 -68.65625 51.046875 -68.65625 L 51.046875 -50.546875 C 48.867188 -50.710938 47.398438 -50.796875 46.640625 -50.796875 C 41.023438 -50.796875 36.625 -49.222656 33.4375 -46.078125 C 30.257812 -42.929688 28.671875 -38.21875 28.671875 -31.9375 L 28.671875 0 L 9.046875 0 L 9.046875 -67.640625 L 27.78125 -67.640625 Z M 27.78125 -58.71875 "/></g></g><g style="fill:#e17100;fill-opacity:1;"><g transform="translate(501.078127, 279.964782)"><path style="stroke:none" d="M 78.828125 -67.640625 L 78.828125 -11.3125 C 78.828125 1.09375 75.597656 10.3125 69.140625 16.34375 C 62.691406 22.375 53.265625 25.390625 40.859375 25.390625 C 34.328125 25.390625 28.125 24.59375 22.25 23 C 16.382812 21.414062 11.523438 19.113281 7.671875 16.09375 L 15.46875 2.015625 C 18.3125 4.359375 21.910156 6.222656 26.265625 7.609375 C 30.628906 8.992188 34.992188 9.6875 39.359375 9.6875 C 46.148438 9.6875 51.15625 8.15625 54.375 5.09375 C 57.601562 2.03125 59.21875 -2.597656 59.21875 -8.796875 L 59.21875 -11.6875 C 54.101562 -6.070312 46.976562 -3.265625 37.84375 -3.265625 C 31.644531 -3.265625 25.96875 -4.625 20.8125 -7.34375 C 15.65625 -10.070312 11.566406 -13.910156 8.546875 -18.859375 C 5.535156 -23.804688 4.03125 -29.503906 4.03125 -35.953125 C 4.03125 -42.410156 5.535156 -48.113281 8.546875 -53.0625 C 11.566406 -58.007812 15.65625 -61.84375 20.8125 -64.5625 C 25.96875 -67.289062 31.644531 -68.65625 37.84375 -68.65625 C 47.65625 -68.65625 55.117188 -65.425781 60.234375 -58.96875 L 60.234375 -67.640625 Z M 41.75 -19.359375 C 46.945312 -19.359375 51.195312 -20.890625 54.5 -23.953125 C 57.8125 -27.015625 59.46875 -31.015625 59.46875 -35.953125 C 59.46875 -40.898438 57.8125 -44.90625 54.5 -47.96875 C 51.195312 -51.03125 46.945312 -52.5625 41.75 -52.5625 C 36.550781 -52.5625 32.273438 -51.03125 28.921875 -47.96875 C 25.566406 -44.90625 23.890625 -40.898438 23.890625 -35.953125 C 23.890625 -31.015625 25.566406 -27.015625 28.921875 -23.953125 C 32.273438 -20.890625 36.550781 -19.359375 41.75 -19.359375 Z M 41.75 -19.359375 "/></g></g><g style="fill:#e17100;fill-opacity:1;"><g transform="translate(589.085109, 279.964782)"><path style="stroke:none" d="M 36.34375 -68.65625 C 46.8125 -68.65625 54.851562 -66.160156 60.46875 -61.171875 C 66.09375 -56.179688 68.90625 -48.65625 68.90625 -38.59375 L 68.90625 0 L 50.546875 0 L 50.546875 -8.421875 C 46.859375 -2.140625 39.984375 1 29.921875 1 C 24.722656 1 20.21875 0.117188 16.40625 -1.640625 C 12.59375 -3.398438 9.679688 -5.828125 7.671875 -8.921875 C 5.660156 -12.023438 4.65625 -15.546875 4.65625 -19.484375 C 4.65625 -25.773438 7.019531 -30.722656 11.75 -34.328125 C 16.488281 -37.929688 23.804688 -39.734375 33.703125 -39.734375 L 49.28125 -39.734375 C 49.28125 -44.003906 47.984375 -47.289062 45.390625 -49.59375 C 42.796875 -51.90625 38.898438 -53.0625 33.703125 -53.0625 C 30.097656 -53.0625 26.554688 -52.492188 23.078125 -51.359375 C 19.597656 -50.234375 16.640625 -48.703125 14.203125 -46.765625 L 7.171875 -60.484375 C 10.859375 -63.078125 15.28125 -65.085938 20.4375 -66.515625 C 25.59375 -67.941406 30.894531 -68.65625 36.34375 -68.65625 Z M 34.828125 -12.203125 C 38.179688 -12.203125 41.15625 -12.972656 43.75 -14.515625 C 46.351562 -16.066406 48.195312 -18.351562 49.28125 -21.375 L 49.28125 -28.296875 L 35.828125 -28.296875 C 27.785156 -28.296875 23.765625 -25.65625 23.765625 -20.375 C 23.765625 -17.851562 24.75 -15.859375 26.71875 -14.390625 C 28.6875 -12.929688 31.390625 -12.203125 34.828125 -12.203125 Z M 34.828125 -12.203125 "/></g></g><g style="fill:#e17100;fill-opacity:1;"><g transform="translate(666.656977, 279.964782)"><path style="stroke:none" d="M 50.171875 -68.65625 C 58.546875 -68.65625 65.3125 -66.140625 70.46875 -61.109375 C 75.625 -56.078125 78.203125 -48.613281 78.203125 -38.71875 L 78.203125 0 L 58.59375 0 L 58.59375 -35.703125 C 58.59375 -41.066406 57.414062 -45.066406 55.0625 -47.703125 C 52.71875 -50.347656 49.328125 -51.671875 44.890625 -51.671875 C 39.941406 -51.671875 36 -50.140625 33.0625 -47.078125 C 30.132812 -44.023438 28.671875 -39.484375 28.671875 -33.453125 L 28.671875 0 L 9.046875 0 L 9.046875 -67.640625 L 27.78125 -67.640625 L 27.78125 -59.71875 C 30.382812 -62.570312 33.613281 -64.773438 37.46875 -66.328125 C 41.320312 -67.878906 45.554688 -68.65625 50.171875 -68.65625 Z M 50.171875 -68.65625 "/></g></g><g style="fill:#e17100;fill-opacity:1;"><g transform="translate(753.532479, 279.964782)"><path style="stroke:none" d="M 9.046875 -67.640625 L 28.671875 -67.640625 L 28.671875 0 L 9.046875 0 Z M 18.859375 -77.078125 C 15.253906 -77.078125 12.316406 -78.125 10.046875 -80.21875 C 7.785156 -82.3125 6.65625 -84.910156 6.65625 -88.015625 C 6.65625 -91.117188 7.785156 -93.71875 10.046875 -95.8125 C 12.316406 -97.90625 15.253906 -98.953125 18.859375 -98.953125 C 22.460938 -98.953125 25.394531 -97.945312 27.65625 -95.9375 C 29.914062 -93.925781 31.046875 -91.410156 31.046875 -88.390625 C 31.046875 -85.117188 29.914062 -82.414062 27.65625 -80.28125 C 25.394531 -78.144531 22.460938 -77.078125 18.859375 -77.078125 Z M 18.859375 -77.078125 "/></g></g><g style="fill:#e17100;fill-opacity:1;"><g transform="translate(791.375489, 279.964782)"><path style="stroke:none" d="M 64.75 -15.09375 L 64.75 0 L 4.40625 0 L 4.40625 -11.8125 L 38.859375 -52.5625 L 5.28125 -52.5625 L 5.28125 -67.640625 L 63.625 -67.640625 L 63.625 -55.828125 L 29.171875 -15.09375 Z M 64.75 -15.09375 "/></g></g><g style="fill:#e17100;fill-opacity:1;"><g transform="translate(859.643771, 279.964782)"><path style="stroke:none" d="M 36.34375 -68.65625 C 46.8125 -68.65625 54.851562 -66.160156 60.46875 -61.171875 C 66.09375 -56.179688 68.90625 -48.65625 68.90625 -38.59375 L 68.90625 0 L 50.546875 0 L 50.546875 -8.421875 C 46.859375 -2.140625 39.984375 1 29.921875 1 C 24.722656 1 20.21875 0.117188 16.40625 -1.640625 C 12.59375 -3.398438 9.679688 -5.828125 7.671875 -8.921875 C 5.660156 -12.023438 4.65625 -15.546875 4.65625 -19.484375 C 4.65625 -25.773438 7.019531 -30.722656 11.75 -34.328125 C 16.488281 -37.929688 23.804688 -39.734375 33.703125 -39.734375 L 49.28125 -39.734375 C 49.28125 -44.003906 47.984375 -47.289062 45.390625 -49.59375 C 42.796875 -51.90625 38.898438 -53.0625 33.703125 -53.0625 C 30.097656 -53.0625 26.554688 -52.492188 23.078125 -51.359375 C 19.597656 -50.234375 16.640625 -48.703125 14.203125 -46.765625 L 7.171875 -60.484375 C 10.859375 -63.078125 15.28125 -65.085938 20.4375 -66.515625 C 25.59375 -67.941406 30.894531 -68.65625 36.34375 -68.65625 Z M 34.828125 -12.203125 C 38.179688 -12.203125 41.15625 -12.972656 43.75 -14.515625 C 46.351562 -16.066406 48.195312 -18.351562 49.28125 -21.375 L 49.28125 -28.296875 L 35.828125 -28.296875 C 27.785156 -28.296875 23.765625 -25.65625 23.765625 -20.375 C 23.765625 -17.851562 24.75 -15.859375 26.71875 -14.390625 C 28.6875 -12.929688 31.390625 -12.203125 34.828125 -12.203125 Z M 34.828125 -12.203125 "/></g></g><g style="fill:#e17100;fill-opacity:1;"><g transform="translate(937.215639, 279.964782)"><path style="stroke:none" d="M 77.953125 -93.296875 L 77.953125 0 L 59.21875 0 L 59.21875 -7.796875 C 54.351562 -1.929688 47.3125 1 38.09375 1 C 31.726562 1 25.96875 -0.421875 20.8125 -3.265625 C 15.65625 -6.117188 11.609375 -10.1875 8.671875 -15.46875 C 5.742188 -20.75 4.28125 -26.867188 4.28125 -33.828125 C 4.28125 -40.785156 5.742188 -46.898438 8.671875 -52.171875 C 11.609375 -57.453125 15.65625 -61.519531 20.8125 -64.375 C 25.96875 -67.226562 31.726562 -68.65625 38.09375 -68.65625 C 46.726562 -68.65625 53.476562 -65.929688 58.34375 -60.484375 L 58.34375 -93.296875 Z M 41.5 -15.09375 C 46.4375 -15.09375 50.539062 -16.785156 53.8125 -20.171875 C 57.082031 -23.566406 58.71875 -28.117188 58.71875 -33.828125 C 58.71875 -39.523438 57.082031 -44.070312 53.8125 -47.46875 C 50.539062 -50.863281 46.4375 -52.5625 41.5 -52.5625 C 36.46875 -52.5625 32.316406 -50.863281 29.046875 -47.46875 C 25.773438 -44.070312 24.140625 -39.523438 24.140625 -33.828125 C 24.140625 -28.117188 25.773438 -23.566406 29.046875 -20.171875 C 32.316406 -16.785156 36.46875 -15.09375 41.5 -15.09375 Z M 41.5 -15.09375 "/></g></g><g style="fill:#e17100;fill-opacity:1;"><g transform="translate(1024.216845, 279.964782)"><path style="stroke:none" d="M 41.234375 1 C 34.109375 1 27.71875 -0.484375 22.0625 -3.453125 C 16.40625 -6.429688 11.984375 -10.5625 8.796875 -15.84375 C 5.617188 -21.125 4.03125 -27.117188 4.03125 -33.828125 C 4.03125 -40.523438 5.617188 -46.515625 8.796875 -51.796875 C 11.984375 -57.078125 16.40625 -61.207031 22.0625 -64.1875 C 27.71875 -67.164062 34.109375 -68.65625 41.234375 -68.65625 C 48.359375 -68.65625 54.726562 -67.164062 60.34375 -64.1875 C 65.96875 -61.207031 70.367188 -57.078125 73.546875 -51.796875 C 76.734375 -46.515625 78.328125 -40.523438 78.328125 -33.828125 C 78.328125 -27.117188 76.734375 -21.125 73.546875 -15.84375 C 70.367188 -10.5625 65.96875 -6.429688 60.34375 -3.453125 C 54.726562 -0.484375 48.359375 1 41.234375 1 Z M 41.234375 -15.09375 C 46.265625 -15.09375 50.394531 -16.785156 53.625 -20.171875 C 56.851562 -23.566406 58.46875 -28.117188 58.46875 -33.828125 C 58.46875 -39.523438 56.851562 -44.070312 53.625 -47.46875 C 50.394531 -50.863281 46.265625 -52.5625 41.234375 -52.5625 C 36.210938 -52.5625 32.066406 -50.863281 28.796875 -47.46875 C 25.523438 -44.070312 23.890625 -39.523438 23.890625 -33.828125 C 23.890625 -28.117188 25.523438 -23.566406 28.796875 -20.171875 C 32.066406 -16.785156 36.210938 -15.09375 41.234375 -15.09375 Z M 41.234375 -15.09375 "/></g></g><g style="fill:#e17100;fill-opacity:1;"><g transform="translate(340.779661, 132.181228)"><path style="stroke:none" d="M 14.328125 -88.015625 L 50.171875 -88.015625 C 59.472656 -88.015625 67.6875 -86.148438 74.8125 -82.421875 C 81.9375 -78.691406 87.46875 -73.492188 91.40625 -66.828125 C 95.34375 -60.160156 97.3125 -52.550781 97.3125 -44 C 97.3125 -35.457031 95.34375 -27.851562 91.40625 -21.1875 C 87.46875 -14.519531 81.9375 -9.320312 74.8125 -5.59375 C 67.6875 -1.863281 59.472656 0 50.171875 0 L 14.328125 0 Z M 49.671875 -8.046875 C 57.378906 -8.046875 64.125 -9.570312 69.90625 -12.625 C 75.6875 -15.6875 80.171875 -19.921875 83.359375 -25.328125 C 86.546875 -30.742188 88.140625 -36.96875 88.140625 -44 C 88.140625 -51.039062 86.546875 -57.265625 83.359375 -62.671875 C 80.171875 -68.078125 75.6875 -72.3125 69.90625 -75.375 C 64.125 -78.4375 57.378906 -79.96875 49.671875 -79.96875 L 23.640625 -79.96875 L 23.640625 -8.046875 Z M 49.671875 -8.046875 "/></g></g><g style="fill:#e17100;fill-opacity:1;"><g transform="translate(444.627898, 132.181228)"><path style="stroke:none" d="M 12.453125 -66.140625 L 21.375 -66.140625 L 21.375 0 L 12.453125 0 Z M 16.96875 -80.59375 C 15.125 -80.59375 13.570312 -81.222656 12.3125 -82.484375 C 11.050781 -83.742188 10.421875 -85.253906 10.421875 -87.015625 C 10.421875 -88.679688 11.050781 -90.144531 12.3125 -91.40625 C 13.570312 -92.664062 15.125 -93.296875 16.96875 -93.296875 C 18.8125 -93.296875 20.359375 -92.6875 21.609375 -91.46875 C 22.867188 -90.257812 23.5 -88.816406 23.5 -87.140625 C 23.5 -85.296875 22.867188 -83.742188 21.609375 -82.484375 C 20.359375 -81.222656 18.8125 -80.59375 16.96875 -80.59375 Z M 16.96875 -80.59375 "/></g></g><g style="fill:#e17100;fill-opacity:1;"><g transform="translate(478.447707, 132.181228)"><path style="stroke:none" d="M 21 -53.1875 C 23.09375 -57.625 26.210938 -60.972656 30.359375 -63.234375 C 34.515625 -65.503906 39.648438 -66.640625 45.765625 -66.640625 L 45.765625 -57.96875 L 43.625 -58.09375 C 36.664062 -58.09375 31.21875 -55.953125 27.28125 -51.671875 C 23.34375 -47.398438 21.375 -41.410156 21.375 -33.703125 L 21.375 0 L 12.453125 0 L 12.453125 -66.140625 L 21 -66.140625 Z M 21 -53.1875 "/></g></g><g style="fill:#e17100;fill-opacity:1;"><g transform="translate(528.863136, 132.181228)"><path style="stroke:none" d="M 70.03125 -30.296875 L 14.703125 -30.296875 C 15.210938 -23.421875 17.851562 -17.867188 22.625 -13.640625 C 27.40625 -9.410156 33.441406 -7.296875 40.734375 -7.296875 C 44.847656 -7.296875 48.617188 -8.023438 52.046875 -9.484375 C 55.484375 -10.953125 58.460938 -13.113281 60.984375 -15.96875 L 66.015625 -10.1875 C 63.078125 -6.664062 59.40625 -3.984375 55 -2.140625 C 50.601562 -0.296875 45.765625 0.625 40.484375 0.625 C 33.691406 0.625 27.675781 -0.816406 22.4375 -3.703125 C 17.195312 -6.597656 13.109375 -10.601562 10.171875 -15.71875 C 7.242188 -20.832031 5.78125 -26.613281 5.78125 -33.0625 C 5.78125 -39.519531 7.179688 -45.304688 9.984375 -50.421875 C 12.796875 -55.535156 16.65625 -59.515625 21.5625 -62.359375 C 26.46875 -65.210938 31.976562 -66.640625 38.09375 -66.640625 C 44.21875 -66.640625 49.707031 -65.210938 54.5625 -62.359375 C 59.425781 -59.515625 63.238281 -55.554688 66 -50.484375 C 68.769531 -45.410156 70.15625 -39.601562 70.15625 -33.0625 Z M 38.09375 -58.96875 C 31.726562 -58.96875 26.382812 -56.929688 22.0625 -52.859375 C 17.75 -48.796875 15.296875 -43.5 14.703125 -36.96875 L 61.609375 -36.96875 C 61.023438 -43.5 58.570312 -48.796875 54.25 -52.859375 C 49.9375 -56.929688 44.550781 -58.96875 38.09375 -58.96875 Z M 38.09375 -58.96875 "/></g></g><g style="fill:#e17100;fill-opacity:1;"><g transform="translate(604.800614, 132.181228)"><path style="stroke:none" d="M 12.453125 -66.140625 L 21.375 -66.140625 L 21.375 0 L 12.453125 0 Z M 16.96875 -80.59375 C 15.125 -80.59375 13.570312 -81.222656 12.3125 -82.484375 C 11.050781 -83.742188 10.421875 -85.253906 10.421875 -87.015625 C 10.421875 -88.679688 11.050781 -90.144531 12.3125 -91.40625 C 13.570312 -92.664062 15.125 -93.296875 16.96875 -93.296875 C 18.8125 -93.296875 20.359375 -92.6875 21.609375 -91.46875 C 22.867188 -90.257812 23.5 -88.816406 23.5 -87.140625 C 23.5 -85.296875 22.867188 -83.742188 21.609375 -82.484375 C 20.359375 -81.222656 18.8125 -80.59375 16.96875 -80.59375 Z M 16.96875 -80.59375 "/></g></g><g style="fill:#e17100;fill-opacity:1;"><g transform="translate(638.620423, 132.181228)"><path style="stroke:none" d="M 47.28125 -4.03125 C 45.601562 -2.519531 43.523438 -1.363281 41.046875 -0.5625 C 38.578125 0.226562 36 0.625 33.3125 0.625 C 27.113281 0.625 22.335938 -1.050781 18.984375 -4.40625 C 15.628906 -7.757812 13.953125 -12.492188 13.953125 -18.609375 L 13.953125 -58.59375 L 2.140625 -58.59375 L 2.140625 -66.140625 L 13.953125 -66.140625 L 13.953125 -80.59375 L 22.890625 -80.59375 L 22.890625 -66.140625 L 43 -66.140625 L 43 -58.59375 L 22.890625 -58.59375 L 22.890625 -19.109375 C 22.890625 -15.171875 23.875 -12.175781 25.84375 -10.125 C 27.8125 -8.070312 30.640625 -7.046875 34.328125 -7.046875 C 36.171875 -7.046875 37.953125 -7.335938 39.671875 -7.921875 C 41.390625 -8.503906 42.875 -9.34375 44.125 -10.4375 Z M 47.28125 -4.03125 "/></g></g><g style="fill:#e17100;fill-opacity:1;"><g transform="translate(689.664469, 132.181228)"><path style="stroke:none" d="M 39.484375 0.625 C 33.109375 0.625 27.363281 -0.816406 22.25 -3.703125 C 17.132812 -6.597656 13.109375 -10.601562 10.171875 -15.71875 C 7.242188 -20.832031 5.78125 -26.613281 5.78125 -33.0625 C 5.78125 -39.519531 7.242188 -45.304688 10.171875 -50.421875 C 13.109375 -55.535156 17.132812 -59.515625 22.25 -62.359375 C 27.363281 -65.210938 33.109375 -66.640625 39.484375 -66.640625 C 45.847656 -66.640625 51.585938 -65.210938 56.703125 -62.359375 C 61.816406 -59.515625 65.816406 -55.535156 68.703125 -50.421875 C 71.597656 -45.304688 73.046875 -39.519531 73.046875 -33.0625 C 73.046875 -26.613281 71.597656 -20.832031 68.703125 -15.71875 C 65.816406 -10.601562 61.816406 -6.597656 56.703125 -3.703125 C 51.585938 -0.816406 45.847656 0.625 39.484375 0.625 Z M 39.484375 -7.296875 C 44.171875 -7.296875 48.378906 -8.363281 52.109375 -10.5 C 55.847656 -12.632812 58.765625 -15.671875 60.859375 -19.609375 C 62.953125 -23.554688 64 -28.039062 64 -33.0625 C 64 -38.09375 62.953125 -42.578125 60.859375 -46.515625 C 58.765625 -50.460938 55.847656 -53.503906 52.109375 -55.640625 C 48.378906 -57.773438 44.171875 -58.84375 39.484375 -58.84375 C 34.785156 -58.84375 30.570312 -57.773438 26.84375 -55.640625 C 23.113281 -53.503906 20.179688 -50.460938 18.046875 -46.515625 C 15.910156 -42.578125 14.84375 -38.09375 14.84375 -33.0625 C 14.84375 -28.039062 15.910156 -23.554688 18.046875 -19.609375 C 20.179688 -15.671875 23.113281 -12.632812 26.84375 -10.5 C 30.570312 -8.363281 34.785156 -7.296875 39.484375 -7.296875 Z M 39.484375 -7.296875 "/></g></g><g clip-rule="nonzero" clip-path="url(#1fd8e969b0)"><path style=" stroke:none;fill-rule:nonzero;fill:#fef3c6;fill-opacity:1;" d="M 194.808594 268.828125 L 48.894531 282.285156 L -1.113281 242.949219 C -1.585938 242.832031 -1.554688 242.148438 -1.074219 242.089844 C 7.210938 241.015625 73.488281 236.214844 74.570312 236.144531 C 75.847656 236.054688 194.808594 268.828125 194.808594 268.828125 "/></g><path style=" stroke:none;fill-rule:nonzero;fill:#c6c6c6;fill-opacity:1;" d="M 1.222656 232.160156 L 1.570312 242.066406 L 52.09375 281.660156 L 55.785156 277.355469 L 60.484375 271.058594 L 1.222656 232.160156 "/><g clip-rule="nonzero" clip-path="url(#7ebfd43d63)"><path style=" stroke:none;fill-rule:nonzero;fill:#fef3c6;fill-opacity:1;" d="M -1.398438 231.730469 L 195.589844 240.617188 L 254.246094 258.179688 C 255.699219 258.605469 256.800781 260.875 256.902344 262.386719 L 257.042969 265.0625 C 257.175781 267.0625 255.660156 268.792969 253.65625 268.914062 L 48.894531 282.285156 C 48.894531 282.285156 53.226562 280.632812 51.835938 275.253906 C 51.546875 274.132812 50.234375 272.851562 50.234375 272.851562 C 50.234375 272.851562 7.890625 235.253906 -1.476562 232.59375 C -1.957031 232.453125 -1.898438 231.765625 -1.398438 231.730469 "/></g><path style=" stroke:none;fill-rule:nonzero;fill:#161515;fill-opacity:1;" d="M 206.449219 257.601562 L 60.539062 271.058594 L 9.742188 231.578125 C 9.089844 231.1875 9.300781 230.78125 9.785156 230.71875 C 18.066406 229.644531 85.128906 224.984375 86.214844 224.914062 C 87.492188 224.828125 206.449219 257.601562 206.449219 257.601562 "/><path style=" stroke:none;fill-rule:nonzero;fill:#c6c6c6;fill-opacity:1;" d="M 12.863281 220.933594 L 13.210938 230.839844 L 63.734375 270.429688 L 67.429688 266.125 L 72.128906 259.828125 L 12.863281 220.933594 "/><path style=" stroke:none;fill-rule:nonzero;fill:#161515;fill-opacity:1;" d="M 10.5625 218.941406 L 207.234375 229.386719 L 265.890625 246.949219 C 267.34375 247.375 268.445312 249.644531 268.546875 251.15625 L 268.683594 253.832031 C 268.820312 255.832031 267.300781 257.5625 265.300781 257.6875 L 60.539062 271.058594 C 60.539062 271.058594 64.871094 269.402344 63.480469 264.023438 C 63.191406 262.90625 61.878906 261.621094 61.878906 261.621094 C 61.878906 261.621094 18.355469 223.339844 10.113281 219.960938 C 9.648438 219.769531 10.0625 218.980469 10.5625 218.941406 "/><path style=" stroke:none;fill-rule:nonzero;fill:#e17100;fill-opacity:1;" d="M 61.332031 258.257812 L 15.058594 218.71875 C 13.609375 217.492188 14.21875 216.480469 15.179688 216.457031 L 206.25 217.089844 L 268.183594 242.359375 L 61.332031 258.257812 "/><path style=" stroke:none;fill-rule:nonzero;fill:#c6c6c6;fill-opacity:1;" d="M 20.140625 184.496094 C 23.136719 198 21.492188 215.550781 18.707031 218.492188 C 18.707031 218.492188 54.9375 247.757812 64.359375 256.125 L 71.460938 221.15625 L 20.140625 184.496094 "/><path style=" stroke:none;fill-rule:nonzero;fill:#e17100;fill-opacity:1;" d="M 18.601562 185.074219 L 60.796875 221.59375 C 61.03125 221.746094 61.257812 221.902344 61.359375 222.144531 C 65.292969 231.402344 64.757812 237.300781 64.988281 242.585938 C 65.417969 254.023438 59.679688 257 59.679688 257 L 61.601562 258.644531 L 268.695312 244.941406 C 273.558594 244.828125 273.609375 243.148438 273.980469 240.574219 C 274.339844 238.101562 278.09375 210.472656 273.097656 206.851562 C 270.699219 205.109375 197.726562 181.273438 197.640625 181.277344 L 18.609375 182.144531 C 17.539062 182.269531 17.546875 184.867188 18.601562 185.074219 "/><path style=" stroke:none;fill-rule:nonzero;fill:#fef3c6;fill-opacity:1;" d="M 244.339844 221.429688 L 286.160156 186.375 C 288.253906 184.46875 286.558594 184.164062 284.503906 184.246094 L 103.0625 185.75 L 42.164062 205.230469 L 244.339844 221.429688 "/><path style=" stroke:none;fill-rule:nonzero;fill:#c6c6c6;fill-opacity:1;" d="M 285.136719 161.347656 C 282.007812 172.109375 281.429688 182.414062 284.109375 184.796875 C 284.109375 184.796875 246.921875 218.058594 238.640625 220.269531 L 234.1875 189.796875 L 285.136719 161.347656 "/><path style=" stroke:none;fill-rule:nonzero;fill:#fef3c6;fill-opacity:1;" d="M 285.609375 161.664062 L 245.207031 190.496094 C 244.976562 190.609375 244.753906 190.734375 244.652344 190.925781 C 240.667969 198.28125 241.105469 203.003906 240.800781 207.222656 C 240.210938 216.363281 245.363281 219.300781 245.363281 219.300781 L 244.027344 221.011719 L 43.386719 210.027344 C 38.632812 209.882812 38.609375 208.539062 38.28125 206.476562 C 37.96875 204.496094 34.707031 182.671875 39.644531 179.835938 C 42.015625 178.472656 87.203125 158.777344 87.285156 158.78125 L 285.765625 159.613281 C 286.808594 159.726562 286.644531 161.507812 285.609375 161.664062 "/><path style=" stroke:none;fill-rule:nonzero;fill:#e17100;fill-opacity:1;" d="M 61.113281 191.097656 C 58.671875 191.097656 56.691406 193.078125 56.691406 195.519531 C 56.691406 197.964844 58.671875 199.945312 61.113281 199.945312 C 63.554688 199.945312 65.53125 197.964844 65.53125 195.519531 C 65.53125 193.078125 63.554688 191.097656 61.113281 191.097656 Z M 226.601562 200.902344 C 224.160156 200.902344 222.179688 202.882812 222.179688 205.324219 C 222.179688 207.769531 224.160156 209.746094 226.601562 209.746094 C 229.042969 209.746094 231.019531 207.769531 231.019531 205.324219 C 231.019531 202.882812 229.042969 200.902344 226.601562 200.902344 Z M 72.613281 193.480469 C 72.613281 194.144531 73.128906 194.699219 73.800781 194.742188 L 214.777344 203.269531 C 215.472656 203.3125 216.070312 202.78125 216.113281 202.085938 C 216.15625 201.394531 215.625 200.789062 214.929688 200.746094 L 73.953125 192.21875 C 73.257812 192.175781 72.660156 192.707031 72.617188 193.402344 C 72.613281 193.429688 72.613281 193.453125 72.613281 193.480469 Z M 72.617188 197.980469 C 72.660156 197.285156 73.257812 196.757812 73.953125 196.796875 L 214.929688 205.328125 C 215.625 205.371094 216.15625 205.984375 216.113281 206.664062 C 216.070312 207.363281 215.472656 207.890625 214.777344 207.851562 L 73.800781 199.316406 C 73.128906 199.277344 72.613281 198.722656 72.613281 198.058594 C 72.613281 198.035156 72.613281 198.007812 72.617188 197.980469 "/><path style=" stroke:none;fill-rule:nonzero;fill:#161515;fill-opacity:1;" d="M 239.109375 188.941406 L 283.015625 154.382812 C 283.933594 154.238281 283.871094 152.722656 282.933594 152.691406 L 97.828125 155.632812 L 36.9375 173.816406 L 239.109375 188.941406 "/><path style=" stroke:none;fill-rule:nonzero;fill:#c6c6c6;fill-opacity:1;" d="M 279.585938 131.367188 C 276.457031 141.410156 276.902344 151.484375 279.585938 153.707031 C 279.585938 153.707031 241.691406 185.792969 233.410156 187.855469 L 228.957031 159.414062 L 279.585938 131.367188 "/><path style=" stroke:none;fill-rule:nonzero;fill:#161515;fill-opacity:1;" d="M 280.292969 131.167969 L 240.441406 161.308594 C 240.210938 161.417969 239.988281 161.53125 239.886719 161.707031 C 235.90625 168.574219 236.339844 172.984375 236.039062 176.921875 C 235.445312 185.453125 240.464844 187.988281 240.464844 187.988281 L 239.109375 188.941406 L 36.910156 178.304688 C 32.160156 178.167969 32.136719 176.914062 31.808594 174.988281 C 31.496094 173.140625 27.511719 150.265625 32.449219 147.617188 C 34.820312 146.34375 76.910156 131.027344 103.886719 128.976562 L 280.328125 128.976562 C 281.375 129.082031 281.328125 131.019531 280.292969 131.167969 "/><path style=" stroke:none;fill-rule:nonzero;fill:#1d4ed8;fill-opacity:1;" d="M 219.074219 160.929688 C 218.152344 165.824219 217.585938 170.984375 217.585938 175.921875 C 217.585938 179.625 217.90625 183.195312 218.621094 186.429688 C 218.644531 186.546875 218.765625 186.632812 218.902344 186.644531 L 221.9375 186.8125 C 222.140625 186.824219 222.296875 186.671875 222.253906 186.503906 C 220.496094 179.195312 221.015625 169.710938 222.644531 161.132812 C 222.671875 160.976562 222.539062 160.839844 222.359375 160.832031 L 219.390625 160.710938 C 219.234375 160.703125 219.09375 160.796875 219.074219 160.929688 Z M 205.519531 160.339844 C 203.839844 165.648438 203.355469 170.117188 203.355469 175.386719 C 203.355469 179.011719 203.503906 182.273438 204.382812 185.628906 C 204.410156 185.742188 204.527344 185.828125 204.664062 185.835938 L 214.257812 186.378906 C 214.464844 186.390625 214.625 186.230469 214.578125 186.058594 C 212.652344 179.460938 212.625 170.433594 215.199219 160.839844 C 215.242188 160.683594 215.109375 160.527344 214.917969 160.523438 L 205.835938 160.144531 C 205.691406 160.136719 205.554688 160.222656 205.519531 160.339844 Z M 197.359375 159.792969 L 200.324219 159.914062 C 200.507812 159.921875 200.640625 160.0625 200.613281 160.214844 C 198.980469 168.613281 198.394531 177.929688 199.976562 185.25 C 200.015625 185.414062 199.855469 185.5625 199.65625 185.550781 L 196.640625 185.382812 C 196.5 185.371094 196.378906 185.285156 196.355469 185.164062 C 195.75 182.125 195.480469 178.8125 195.480469 175.386719 C 195.480469 170.316406 196.078125 165.019531 197.039062 160.011719 C 197.0625 159.878906 197.203125 159.785156 197.359375 159.792969 "/><g clip-rule="nonzero" clip-path="url(#a030677173)"><path style=" stroke:none;fill-rule:nonzero;fill:#e17100;fill-opacity:1;" d="M 250.21875 162.324219 L 296.488281 122.785156 C 297.425781 122.578125 297.328125 120.546875 296.371094 120.519531 L 105.296875 121.15625 L 43.363281 146.421875 L 250.21875 162.324219 "/></g><path style=" stroke:none;fill-rule:nonzero;fill:#c6c6c6;fill-opacity:1;" d="M 291.410156 88.558594 C 288.414062 102.0625 290.058594 119.617188 292.84375 122.554688 C 292.84375 122.554688 256.613281 151.824219 247.191406 160.191406 L 240.085938 125.222656 L 291.410156 88.558594 "/><path style=" stroke:none;fill-rule:nonzero;fill:#e17100;fill-opacity:1;" d="M 292.945312 89.140625 L 250.75 125.660156 C 250.519531 125.808594 250.292969 125.96875 250.1875 126.207031 C 246.257812 135.464844 246.789062 141.367188 246.5625 146.652344 C 246.128906 158.089844 251.867188 161.0625 251.867188 161.0625 L 249.945312 162.710938 L 42.855469 151.449219 C 37.992188 151.339844 37.941406 149.660156 37.570312 147.085938 C 37.210938 144.613281 33.679688 112.457031 38.679688 108.835938 C 41.078125 107.097656 110.835938 96.160156 110.917969 96.167969 L 292.9375 86.210938 C 294.007812 86.335938 294 88.929688 292.945312 89.140625 "/><path style=" stroke:none;fill-rule:nonzero;fill:#fef3c6;fill-opacity:1;" d="M 102.636719 129.382812 C 102.347656 132.75 102.347656 136.152344 102.636719 139.519531 C 102.78125 141.257812 104.039062 142.664062 105.320312 142.664062 C 105.476562 142.664062 105.628906 142.664062 105.785156 142.664062 C 107.070312 142.664062 107.90625 141.257812 107.761719 139.519531 C 107.46875 136.152344 107.46875 132.75 107.761719 129.382812 C 107.90625 127.648438 107.070312 126.242188 105.785156 126.242188 C 105.628906 126.242188 105.476562 126.242188 105.320312 126.242188 C 104.039062 126.242188 102.78125 127.648438 102.636719 129.382812 Z M 110.902344 129.804688 C 110.617188 133.171875 110.617188 136.574219 110.902344 139.9375 C 111.054688 141.675781 112.308594 143.082031 113.589844 143.085938 C 113.742188 143.085938 113.898438 143.085938 114.054688 143.085938 C 115.335938 143.082031 116.175781 141.675781 116.027344 139.9375 C 115.738281 136.574219 115.738281 133.171875 116.027344 129.804688 C 116.175781 128.070312 115.335938 126.660156 114.054688 126.660156 C 113.898438 126.660156 113.742188 126.660156 113.589844 126.660156 C 112.308594 126.660156 111.054688 128.070312 110.902344 129.804688 Z M 120.046875 130.4375 C 119.761719 133.804688 119.761719 137.203125 120.046875 140.570312 C 120.195312 142.308594 121.453125 143.714844 122.734375 143.714844 C 122.886719 143.714844 123.042969 143.714844 123.199219 143.714844 C 124.480469 143.714844 125.320312 142.308594 125.171875 140.570312 C 124.882812 137.203125 124.882812 133.804688 125.171875 130.4375 C 125.320312 128.699219 124.480469 127.292969 123.199219 127.292969 C 123.042969 127.292969 122.886719 127.292969 122.734375 127.292969 C 121.453125 127.292969 120.195312 128.703125 120.046875 130.4375 Z M 128.316406 130.859375 C 128.027344 134.226562 128.027344 137.625 128.316406 140.992188 C 128.464844 142.730469 129.722656 144.136719 131 144.136719 C 131.15625 144.136719 131.3125 144.136719 131.46875 144.136719 C 132.75 144.136719 133.589844 142.730469 133.441406 140.992188 C 133.152344 137.625 133.152344 134.226562 133.441406 130.859375 C 133.589844 129.125 132.75 127.714844 131.46875 127.714844 C 131.3125 127.714844 131.15625 127.714844 131 127.714844 C 129.722656 127.714844 128.464844 129.125 128.316406 130.859375 Z M 150.324219 131.703125 C 150.035156 135.066406 150.035156 138.46875 150.324219 141.835938 C 150.46875 143.570312 151.730469 144.980469 153.007812 144.980469 C 153.164062 144.980469 153.316406 144.980469 153.472656 144.980469 C 154.753906 144.980469 155.59375 143.574219 155.445312 141.835938 C 155.15625 138.46875 155.15625 135.066406 155.445312 131.703125 C 155.59375 129.964844 154.753906 128.554688 153.472656 128.554688 C 153.316406 128.554688 153.164062 128.554688 153.007812 128.554688 C 151.730469 128.558594 150.46875 129.964844 150.324219 131.703125 Z M 158.59375 132.121094 C 158.304688 135.488281 158.304688 138.890625 158.59375 142.257812 C 158.742188 143.992188 159.996094 145.398438 161.277344 145.398438 C 161.433594 145.398438 161.585938 145.398438 161.742188 145.398438 C 163.027344 145.398438 163.863281 143.992188 163.71875 142.257812 C 163.429688 138.890625 163.429688 135.488281 163.71875 132.121094 C 163.863281 130.382812 163.027344 128.976562 161.742188 128.976562 C 161.585938 128.976562 161.433594 128.976562 161.277344 128.976562 C 159.996094 128.976562 158.742188 130.386719 158.59375 132.121094 Z M 167.738281 132.753906 C 167.445312 136.121094 167.445312 139.519531 167.738281 142.886719 C 167.882812 144.625 169.140625 146.03125 170.421875 146.03125 C 170.578125 146.03125 170.730469 146.03125 170.886719 146.03125 C 172.167969 146.03125 173.007812 144.625 172.859375 142.886719 C 172.570312 139.519531 172.570312 136.121094 172.859375 132.753906 C 173.007812 131.015625 172.167969 129.609375 170.886719 129.609375 C 170.730469 129.609375 170.578125 129.609375 170.421875 129.609375 C 169.140625 129.609375 167.882812 131.015625 167.738281 132.753906 Z M 176.003906 133.175781 C 175.71875 136.539062 175.71875 139.941406 176.003906 143.308594 C 176.152344 145.042969 177.410156 146.453125 178.691406 146.453125 C 178.84375 146.453125 179 146.453125 179.15625 146.453125 C 180.4375 146.453125 181.277344 145.046875 181.128906 143.308594 C 180.839844 139.941406 180.839844 136.539062 181.128906 133.175781 C 181.277344 131.4375 180.4375 130.027344 179.15625 130.027344 C 179 130.027344 178.84375 130.027344 178.691406 130.027344 C 177.410156 130.03125 176.152344 131.4375 176.003906 133.175781 Z M 55.726562 133.082031 C 55.726562 133.234375 55.734375 133.390625 55.757812 133.550781 C 55.878906 134.40625 56.308594 135.082031 56.65625 135.621094 L 65.335938 146.902344 C 65.710938 147.492188 66.492188 147.664062 67.078125 147.285156 C 67.667969 146.910156 67.839844 146.128906 67.460938 145.542969 L 60.335938 134.40625 C 60.101562 134.035156 59.855469 133.652344 59.8125 133.339844 C 59.746094 132.875 60.082031 132.257812 60.433594 131.664062 C 63.226562 126.886719 66.355469 122.25 69.734375 117.871094 C 70.15625 117.320312 70.058594 116.53125 69.503906 116.101562 C 68.953125 115.675781 68.160156 115.777344 67.734375 116.328125 C 64.289062 120.789062 59.546875 125.375 56.699219 130.246094 C 56.324219 130.882812 55.726562 131.910156 55.726562 133.082031 Z M 68.570312 134.34375 C 68.570312 134.5 68.582031 134.652344 68.601562 134.8125 C 68.722656 135.667969 69.152344 136.34375 69.5 136.886719 L 78.175781 148.167969 C 78.554688 148.753906 79.332031 148.925781 79.921875 148.550781 C 80.511719 148.175781 80.679688 147.394531 80.304688 146.804688 L 73.183594 135.667969 C 72.945312 135.296875 72.699219 134.914062 72.652344 134.605469 C 72.59375 134.140625 72.925781 133.523438 73.273438 132.925781 C 76.070312 128.152344 79.199219 123.511719 82.578125 119.136719 C 83.003906 118.585938 82.902344 117.792969 82.347656 117.367188 C 81.796875 116.9375 81.003906 117.042969 80.578125 117.59375 C 77.132812 122.054688 72.390625 126.636719 69.542969 131.507812 C 69.167969 132.148438 68.570312 133.171875 68.570312 134.34375 Z M 80.148438 134.34375 C 80.148438 134.5 80.160156 134.652344 80.179688 134.8125 C 80.300781 135.667969 80.734375 136.34375 81.082031 136.886719 L 89.757812 148.167969 C 90.132812 148.753906 90.914062 148.925781 91.503906 148.550781 C 92.089844 148.175781 92.261719 147.394531 91.886719 146.804688 L 84.757812 135.667969 C 84.523438 135.296875 84.277344 134.914062 84.234375 134.605469 C 84.171875 134.140625 84.503906 133.523438 84.855469 132.925781 C 87.648438 128.152344 90.777344 123.511719 94.15625 119.136719 C 94.582031 118.585938 94.480469 117.792969 93.929688 117.367188 C 93.378906 116.9375 92.582031 117.042969 92.15625 117.59375 C 88.710938 122.054688 83.96875 126.636719 81.121094 131.507812 C 80.746094 132.148438 80.148438 133.171875 80.148438 134.34375 Z M 197.527344 140.714844 C 197.527344 140.867188 197.539062 141.023438 197.558594 141.179688 C 197.679688 142.039062 198.109375 142.714844 198.457031 143.253906 L 207.136719 154.535156 C 207.511719 155.125 208.292969 155.296875 208.878906 154.917969 C 209.46875 154.542969 209.640625 153.761719 209.261719 153.175781 L 202.140625 142.039062 C 201.902344 141.667969 201.65625 141.285156 201.613281 140.972656 C 201.550781 140.507812 201.886719 139.894531 202.234375 139.296875 C 205.027344 134.523438 208.15625 129.882812 211.535156 125.507812 C 211.960938 124.957031 211.859375 124.164062 211.304688 123.734375 C 210.753906 123.308594 209.960938 123.410156 209.535156 123.960938 C 206.089844 128.421875 201.347656 133.007812 198.5 137.875 C 198.128906 138.519531 197.527344 139.542969 197.527344 140.714844 Z M 210.371094 141.976562 C 210.371094 142.132812 210.382812 142.285156 210.402344 142.445312 C 210.523438 143.300781 210.957031 143.976562 211.300781 144.519531 L 219.980469 155.800781 C 220.355469 156.386719 221.136719 156.558594 221.722656 156.183594 C 222.3125 155.808594 222.480469 155.027344 222.105469 154.4375 L 214.984375 143.300781 C 214.746094 142.929688 214.5 142.546875 214.453125 142.238281 C 214.394531 141.773438 214.726562 141.15625 215.078125 140.558594 C 217.871094 135.785156 221 131.144531 224.378906 126.769531 C 224.804688 126.21875 224.703125 125.425781 224.148438 125 C 223.597656 124.570312 222.804688 124.675781 222.378906 125.226562 C 218.933594 129.6875 214.191406 134.273438 211.34375 139.140625 C 210.96875 139.78125 210.371094 140.804688 210.371094 141.976562 Z M 222.921875 139.140625 C 225.773438 134.273438 230.515625 129.6875 233.960938 125.226562 C 234.382812 124.675781 235.179688 124.570312 235.730469 125 C 236.28125 125.425781 236.382812 126.21875 235.957031 126.769531 C 232.578125 131.144531 229.449219 135.785156 226.65625 140.558594 C 226.308594 141.15625 225.972656 141.773438 226.035156 142.238281 C 226.078125 142.546875 226.324219 142.929688 226.5625 143.300781 L 233.6875 154.4375 C 234.0625 155.027344 233.890625 155.808594 233.304688 156.183594 C 232.714844 156.558594 231.933594 156.386719 231.558594 155.800781 L 222.882812 144.519531 C 222.535156 143.976562 222.105469 143.300781 221.984375 142.445312 C 221.960938 142.285156 221.949219 142.132812 221.949219 141.976562 C 221.949219 140.804688 222.550781 139.78125 222.921875 139.140625 "/><path style=" stroke:none;fill-rule:nonzero;fill:#1d4ed8;fill-opacity:1;" d="M 230.902344 123.917969 L 276.609375 86.148438 C 277.527344 85.9375 277.46875 83.789062 276.53125 83.746094 L 89.625 76.691406 L 28.730469 102.472656 L 230.902344 123.917969 "/><path style=" stroke:none;fill-rule:nonzero;fill:#c6c6c6;fill-opacity:1;" d="M 272.394531 53.78125 C 269.269531 68.023438 270.5 82.039062 273.179688 85.1875 C 273.179688 85.1875 233.488281 119.453125 225.207031 122.378906 L 220.753906 82.050781 L 272.394531 53.78125 "/><g clip-rule="nonzero" clip-path="url(#7217aae9b3)"><path style=" stroke:none;fill-rule:nonzero;fill:#1d4ed8;fill-opacity:1;" d="M 274.4375 52.894531 L 231.539062 82.160156 C 231.308594 82.316406 231.085938 82.476562 230.984375 82.730469 C 227 92.464844 227.625 100.324219 227.324219 105.914062 C 226.730469 118.007812 231.882812 121.894531 231.882812 121.894531 L 230.394531 122.953125 L 28.195312 109.644531 C 23.445312 109.453125 22.742188 107.335938 22.414062 104.605469 C 22.101562 101.988281 19.980469 70.445312 24.914062 66.6875 C 27.289062 64.886719 64.601562 47.148438 76.609375 46.285156 L 274.792969 49.972656 C 275.835938 50.121094 275.414062 52.378906 274.4375 52.894531 "/></g><path style=" stroke:none;fill-rule:nonzero;fill:#c6c6c6;fill-opacity:1;" d="M 114.417969 102.851562 C 118.214844 107.296875 123.96875 109.890625 129.808594 109.800781 C 130.4375 109.792969 131.128906 109.730469 131.523438 109.355469 C 131.738281 109.152344 131.84375 108.921875 131.84375 108.648438 C 131.84375 108.597656 131.839844 108.539062 131.828125 108.480469 C 131.691406 107.480469 130.460938 106.289062 129.351562 105.71875 C 123.269531 102.566406 117.90625 100.726562 112.164062 99.828125 C 112.878906 100.878906 113.621094 101.921875 114.417969 102.851562 Z M 140.851562 98.574219 C 140.886719 98.566406 140.921875 98.550781 140.960938 98.546875 C 141.023438 98.546875 141.09375 98.546875 141.164062 98.546875 C 143.683594 98.332031 146.183594 97.875 148.617188 97.152344 C 150.230469 96.675781 152.066406 96.015625 153.417969 94.75 C 154.5 93.742188 155.109375 92.417969 155.109375 91.183594 C 155.109375 90.863281 155.066406 90.542969 154.980469 90.242188 C 154.378906 88.09375 151.769531 87.078125 149.703125 87.367188 C 147.332031 87.699219 145.316406 89.304688 143.65625 90.835938 C 140.222656 93.996094 134.660156 96.96875 129.914062 97.867188 C 133.503906 98.613281 137.199219 98.855469 140.851562 98.574219 Z M 175.964844 109.820312 L 176.179688 109.863281 C 178.976562 110.40625 183.203125 111.226562 187.195312 109.621094 C 189.398438 108.734375 191.5 106.492188 191.5 104.125 C 191.5 103.957031 191.488281 103.792969 191.464844 103.625 C 191.382812 102.949219 191.023438 102.414062 190.367188 101.980469 C 188.5625 100.789062 185.199219 100.863281 184.164062 101.15625 C 181.796875 101.828125 179.546875 102.585938 177.371094 103.316406 C 173.390625 104.65625 169.585938 105.9375 165.894531 106.375 C 169.140625 107.808594 172.484375 109.144531 175.964844 109.820312 Z M 111.542969 89.679688 C 113.316406 90.203125 114.863281 91.210938 116.355469 92.1875 C 116.691406 92.40625 117.027344 92.621094 117.363281 92.835938 C 119.984375 94.488281 122.808594 95.800781 125.75 96.761719 C 130.484375 97.613281 138.527344 93.835938 142.800781 89.90625 C 144.601562 88.242188 146.8125 86.496094 149.527344 86.117188 C 152.175781 85.746094 155.394531 87.058594 156.195312 89.898438 C 156.738281 91.816406 155.984375 94.082031 154.28125 95.671875 C 152.734375 97.117188 150.730469 97.84375 148.976562 98.367188 C 148.085938 98.628906 147.1875 98.84375 146.285156 99.042969 C 149.648438 99.632812 153.242188 100.660156 155.378906 101.625 L 163.441406 105.273438 C 167.683594 105.242188 171.988281 103.792969 176.96875 102.121094 C 179.160156 101.382812 181.421875 100.621094 183.816406 99.941406 C 184.964844 99.617188 188.800781 99.429688 191.0625 100.925781 C 192.027344 101.566406 192.585938 102.421875 192.71875 103.46875 C 193.132812 106.738281 190.425781 109.683594 187.667969 110.792969 C 183.328125 112.539062 178.882812 111.675781 175.9375 111.101562 L 175.726562 111.0625 C 171.261719 110.195312 167.09375 108.3125 163.058594 106.488281 C 163.050781 106.480469 163.042969 106.476562 163.03125 106.476562 L 154.859375 102.777344 C 151.707031 101.351562 144.960938 99.734375 141.160156 99.808594 C 132.652344 100.503906 123.914062 98.464844 116.6875 93.902344 C 116.347656 93.6875 116.007812 93.464844 115.667969 93.246094 C 114.183594 92.277344 112.78125 91.363281 111.1875 90.890625 C 108.449219 90.085938 105.480469 89.867188 102.917969 90.230469 C 106.707031 91.664062 109.007812 95.082031 111.21875 98.414062 C 117.539062 99.261719 123.320312 101.171875 129.933594 104.59375 C 131.339844 105.324219 132.875 106.832031 133.082031 108.300781 C 133.1875 109.066406 132.949219 109.742188 132.394531 110.273438 C 131.683594 110.945312 130.699219 111.050781 129.828125 111.066406 C 123.617188 111.160156 117.496094 108.398438 113.457031 103.671875 C 112.320312 102.339844 111.308594 100.832031 110.335938 99.367188 C 110.328125 99.355469 110.320312 99.347656 110.316406 99.335938 C 110.285156 99.292969 110.257812 99.25 110.230469 99.207031 C 107.996094 95.839844 105.882812 92.65625 102.386719 91.375 C 98.503906 89.953125 94.265625 91.460938 90.171875 92.917969 C 89.078125 93.308594 87.949219 93.714844 86.839844 94.050781 C 78.925781 96.484375 70.074219 95.886719 62.558594 92.40625 C 62.332031 92.300781 62.195312 92.070312 62.195312 91.832031 C 62.195312 91.746094 62.214844 91.652344 62.253906 91.570312 C 62.398438 91.253906 62.773438 91.113281 63.09375 91.261719 C 70.328125 94.613281 78.847656 95.191406 86.46875 92.84375 C 87.546875 92.511719 88.667969 92.117188 89.746094 91.730469 C 93.160156 90.515625 96.664062 89.273438 100.117188 89.59375 C 103.910156 88.296875 108.496094 88.78125 111.542969 89.679688 Z M 127.699219 90.21875 C 128.773438 90.417969 129.984375 90.085938 130.941406 89.324219 C 131.886719 88.570312 132.457031 87.523438 132.5 86.457031 C 132.503906 86.414062 132.503906 86.371094 132.503906 86.328125 C 132.503906 85.289062 131.984375 84.222656 131.101562 83.445312 C 130.191406 82.648438 129.070312 82.296875 128.023438 82.480469 C 126.742188 82.707031 125.324219 83.859375 124.574219 85.285156 C 124.046875 86.300781 123.945312 87.269531 124.292969 88.019531 C 124.605469 88.699219 126.125 89.921875 127.699219 90.21875 Z M 122.828125 87.054688 C 122.828125 86.304688 123.039062 85.5 123.457031 84.699219 C 124.386719 82.921875 126.132812 81.527344 127.804688 81.234375 C 129.226562 80.984375 130.730469 81.445312 131.933594 82.496094 C 133.136719 83.550781 133.816406 85.042969 133.761719 86.511719 C 133.699219 87.945312 132.960938 89.328125 131.726562 90.3125 C 130.46875 91.3125 128.914062 91.730469 127.46875 91.457031 C 125.546875 91.097656 123.648438 89.636719 123.144531 88.550781 C 122.933594 88.089844 122.828125 87.582031 122.828125 87.054688 Z M 176.769531 94.679688 C 179.132812 94.476562 181.191406 92.300781 181.257812 89.925781 C 181.257812 89.886719 181.257812 89.847656 181.257812 89.804688 C 181.257812 87.476562 179.355469 85.257812 177.042969 84.925781 C 176.3125 84.824219 175.253906 84.796875 174.355469 85.273438 C 171.636719 86.722656 171.582031 89.230469 171.546875 90.898438 C 171.519531 91.9375 172.128906 92.746094 172.640625 93.226562 C 173.699219 94.21875 175.359375 94.800781 176.769531 94.679688 Z M 170.28125 90.945312 C 170.28125 90.914062 170.28125 90.886719 170.28125 90.859375 C 170.320312 89.144531 170.386719 85.953125 173.761719 84.160156 C 174.960938 83.519531 176.304688 83.542969 177.222656 83.671875 C 180.226562 84.105469 182.605469 86.902344 182.519531 89.960938 C 182.433594 93 179.902344 95.679688 176.875 95.941406 C 175.101562 96.09375 173.101562 95.386719 171.777344 94.144531 C 170.808594 93.238281 170.28125 92.109375 170.28125 90.945312 Z M 95.714844 103.21875 C 97.289062 103.503906 98.808594 102.863281 99.890625 101.457031 C 100.152344 101.117188 100.5 100.027344 100.5 99.550781 C 100.5 99.546875 100.5 99.542969 100.5 99.539062 C 100.5 98.585938 99.96875 97.929688 99.519531 97.542969 C 98.625 96.769531 97.253906 96.394531 96.03125 96.585938 C 95.0625 96.734375 94.171875 97.355469 93.582031 98.289062 C 92.988281 99.226562 92.816406 100.308594 93.097656 101.253906 C 93.378906 102.179688 94.453125 102.984375 95.714844 103.21875 Z M 91.703125 100.332031 C 91.703125 99.410156 91.976562 98.464844 92.511719 97.613281 C 93.296875 96.371094 94.511719 95.539062 95.835938 95.335938 C 97.433594 95.085938 99.160156 95.566406 100.34375 96.585938 C 101.261719 97.375 101.765625 98.421875 101.765625 99.539062 C 101.765625 99.546875 101.765625 99.550781 101.765625 99.550781 C 101.761719 100.234375 101.347656 101.632812 100.890625 102.226562 C 99.511719 104.023438 97.542969 104.835938 95.488281 104.460938 C 93.753906 104.140625 92.308594 103 91.890625 101.617188 C 91.761719 101.203125 91.703125 100.769531 91.703125 100.332031 Z M 150.167969 110.421875 C 151.277344 109.441406 151.609375 107.792969 151.351562 106.75 C 151.171875 105.996094 150.363281 105.597656 149.894531 105.429688 C 148.449219 104.902344 146.46875 105.070312 145.480469 105.800781 C 144.609375 106.445312 144.109375 107.824219 144.285156 109.085938 C 144.351562 109.574219 144.589844 110.4375 145.417969 110.75 C 147.429688 111.503906 149.074219 111.390625 150.167969 110.421875 Z M 143.03125 109.261719 C 143 109.03125 142.984375 108.804688 142.984375 108.578125 C 142.984375 107.074219 143.652344 105.582031 144.730469 104.785156 C 146.0625 103.796875 148.46875 103.566406 150.328125 104.242188 C 151.542969 104.683594 152.34375 105.46875 152.582031 106.453125 C 152.929688 107.894531 152.496094 110.042969 151.007812 111.367188 C 149.980469 112.273438 148.105469 113.101562 144.972656 111.933594 C 143.921875 111.539062 143.214844 110.566406 143.03125 109.261719 Z M 198.140625 106.050781 C 198.140625 111.382812 198.605469 116.496094 199.6875 120.933594 L 203.417969 121.179688 C 200.3125 110.003906 201.820312 93.160156 204.800781 80.34375 C 203.628906 80.265625 202.429688 80.1875 201.199219 80.101562 C 199.378906 88.054688 198.140625 97.347656 198.140625 106.050781 Z M 40.414062 70.210938 C 39.03125 77.042969 38.140625 85.386719 38.140625 93.65625 C 38.140625 99.460938 38.582031 105.214844 39.597656 110.398438 L 43.269531 110.636719 C 40.652344 98.332031 41.636719 81.828125 44.011719 70.375 C 42.753906 70.316406 41.554688 70.261719 40.414062 70.210938 Z M 208.796875 106.050781 C 208.796875 111.675781 209.316406 117.046875 210.527344 121.648438 L 214.285156 121.894531 C 210.96875 110.933594 212.359375 94.058594 215.292969 81.050781 C 214.144531 80.976562 212.945312 80.894531 211.695312 80.808594 C 209.964844 88.605469 208.796875 97.605469 208.796875 106.050781 Z M 50.777344 70.707031 C 51.941406 70.765625 53.136719 70.824219 54.363281 70.890625 C 52.09375 82.769531 51.308594 99.378906 54.246094 111.359375 L 50.546875 111.117188 C 49.296875 105.550781 48.761719 99.214844 48.761719 92.832031 C 48.761719 85.082031 49.546875 77.277344 50.777344 70.707031 "/><path style=" stroke:none;fill-rule:nonzero;fill:#c6c6c6;fill-opacity:1;" d="M 90.484375 243.351562 L 80.597656 243.871094 C 79.148438 243.949219 77.894531 242.824219 77.820312 241.371094 L 77.816406 241.355469 C 77.742188 239.902344 78.867188 238.652344 80.320312 238.578125 L 90.207031 238.054688 C 91.660156 237.980469 92.90625 239.105469 92.984375 240.558594 L 92.984375 240.570312 C 93.0625 242.023438 91.9375 243.273438 90.484375 243.351562 Z M 98.878906 222.921875 C 99.378906 222.859375 99.859375 223.09375 100.117188 223.523438 C 101.742188 226.277344 107.09375 236.992188 102.925781 252.78125 C 102.78125 253.332031 102.277344 253.714844 101.707031 253.714844 L 100.84375 253.714844 C 99.953125 253.714844 99.335938 252.8125 99.667969 251.988281 C 101.273438 248.011719 104.226562 237.542969 97.90625 224.734375 C 97.519531 223.953125 98.019531 223.023438 98.878906 222.921875 Z M 106.074219 222.421875 C 106.570312 222.359375 107.054688 222.59375 107.308594 223.027344 C 108.933594 225.777344 114.289062 236.492188 110.121094 252.28125 C 109.976562 252.832031 109.472656 253.214844 108.902344 253.214844 L 108.039062 253.214844 C 107.144531 253.214844 106.53125 252.316406 106.863281 251.488281 C 108.464844 247.511719 111.417969 237.042969 105.101562 224.234375 C 104.714844 223.453125 105.210938 222.527344 106.074219 222.421875 Z M 113.382812 222.121094 C 113.882812 222.0625 114.363281 222.296875 114.621094 222.726562 C 116.246094 225.480469 121.597656 236.191406 117.429688 251.980469 C 117.285156 252.53125 116.78125 252.914062 116.210938 252.914062 L 115.34375 252.914062 C 114.457031 252.914062 113.839844 252.015625 114.171875 251.1875 C 115.777344 247.207031 118.730469 236.742188 112.410156 223.933594 C 112.023438 223.152344 112.523438 222.226562 113.382812 222.121094 Z M 260.085938 232.792969 L 255.285156 228.742188 L 259.71875 224.015625 L 264.519531 228.066406 Z M 252.367188 229.570312 L 251.691406 229.003906 L 252.316406 228.339844 L 252.988281 228.90625 Z M 244.964844 233.894531 L 240.164062 229.847656 L 244.601562 225.117188 L 249.398438 229.171875 Z M 237.25 230.675781 L 236.578125 230.109375 L 237.199219 229.445312 L 237.871094 230.011719 Z M 229.847656 235 L 225.050781 230.949219 L 229.488281 226.222656 L 234.285156 230.273438 Z M 222.132812 231.78125 L 221.460938 231.210938 L 222.085938 230.546875 L 222.757812 231.117188 Z M 214.734375 236.105469 L 209.9375 232.054688 L 214.371094 227.328125 L 219.167969 231.378906 Z M 207.019531 232.886719 L 206.347656 232.316406 L 206.96875 231.652344 L 207.640625 232.222656 Z M 199.621094 237.207031 L 194.824219 233.15625 L 199.257812 228.433594 L 204.054688 232.484375 Z M 191.90625 233.988281 L 191.234375 233.417969 L 191.855469 232.757812 L 192.527344 233.328125 Z M 184.507812 238.3125 L 179.707031 234.261719 L 184.144531 229.539062 L 188.9375 233.585938 Z M 176.792969 235.09375 L 176.121094 234.523438 L 176.746094 233.859375 L 177.417969 234.429688 Z M 169.394531 239.417969 L 164.597656 235.363281 L 169.03125 230.640625 L 173.828125 234.691406 Z M 161.679688 236.195312 L 161.007812 235.628906 L 161.632812 234.964844 L 162.304688 235.535156 Z M 154.28125 240.519531 L 149.480469 236.46875 L 153.917969 231.746094 L 158.714844 235.792969 Z M 146.566406 237.300781 L 145.894531 236.730469 L 146.515625 236.066406 L 147.191406 236.636719 Z M 139.164062 241.625 L 134.371094 237.574219 L 138.804688 232.847656 L 143.601562 236.898438 Z M 267.871094 228.789062 L 266.8125 227.898438 L 267.789062 226.859375 C 268.074219 226.554688 268.125 225.988281 267.90625 225.597656 C 267.6875 225.203125 267.277344 225.128906 266.992188 225.433594 L 265.621094 226.890625 L 260.011719 222.15625 C 259.78125 221.964844 259.488281 221.984375 259.277344 222.210938 L 254.089844 227.734375 L 252.609375 226.484375 C 252.378906 226.285156 252.085938 226.308594 251.871094 226.535156 L 250.5 227.996094 L 244.894531 223.261719 C 244.664062 223.070312 244.367188 223.089844 244.160156 223.316406 L 238.972656 228.839844 L 237.492188 227.585938 C 237.257812 227.390625 236.96875 227.414062 236.753906 227.640625 L 235.382812 229.101562 L 229.777344 224.367188 C 229.546875 224.171875 229.253906 224.195312 229.042969 224.421875 L 223.859375 229.945312 L 222.378906 228.691406 C 222.144531 228.496094 221.851562 228.515625 221.640625 228.746094 L 220.269531 230.207031 L 214.664062 225.472656 C 214.429688 225.277344 214.140625 225.296875 213.925781 225.527344 L 208.746094 231.046875 L 207.261719 229.792969 C 207.03125 229.601562 206.738281 229.621094 206.527344 229.847656 L 205.15625 231.3125 L 199.550781 226.578125 C 199.316406 226.378906 199.027344 226.402344 198.8125 226.628906 L 193.632812 232.152344 L 192.148438 230.898438 C 191.917969 230.707031 191.625 230.726562 191.410156 230.953125 L 190.042969 232.414062 L 184.4375 227.679688 C 184.203125 227.484375 183.910156 227.507812 183.699219 227.734375 L 178.519531 233.257812 L 177.035156 232.003906 C 176.804688 231.808594 176.511719 231.832031 176.300781 232.058594 L 174.929688 233.519531 L 169.324219 228.785156 C 169.09375 228.585938 168.800781 228.609375 168.585938 228.835938 L 163.40625 234.359375 L 161.921875 233.109375 C 161.691406 232.914062 161.402344 232.933594 161.1875 233.164062 L 159.816406 234.621094 L 154.210938 229.886719 C 153.980469 229.691406 153.6875 229.714844 153.472656 229.941406 L 148.292969 235.464844 L 146.808594 234.210938 C 146.578125 234.015625 146.285156 234.039062 146.070312 234.265625 L 144.703125 235.726562 L 139.097656 230.992188 C 138.863281 230.796875 138.574219 230.816406 138.359375 231.046875 L 133.175781 236.566406 L 131.695312 235.316406 C 131.390625 235.058594 130.988281 235.191406 130.800781 235.613281 C 130.617188 236.035156 130.714844 236.589844 131.019531 236.851562 L 132.078125 237.742188 L 131.101562 238.78125 C 130.816406 239.085938 130.765625 239.648438 130.984375 240.042969 C 131.117188 240.273438 131.308594 240.394531 131.503906 240.394531 C 131.644531 240.394531 131.78125 240.332031 131.898438 240.207031 L 133.269531 238.746094 L 138.875 243.480469 C 138.980469 243.574219 139.101562 243.613281 139.21875 243.613281 C 139.359375 243.613281 139.496094 243.550781 139.609375 243.425781 L 144.792969 237.90625 L 146.277344 239.15625 C 146.503906 239.351562 146.796875 239.332031 147.011719 239.105469 L 148.382812 237.644531 L 153.988281 242.375 C 154.21875 242.574219 154.511719 242.550781 154.726562 242.324219 L 159.90625 236.800781 L 161.390625 238.054688 C 161.621094 238.246094 161.910156 238.226562 162.125 238 L 163.496094 236.539062 L 169.101562 241.273438 C 169.332031 241.46875 169.625 241.445312 169.839844 241.21875 L 175.019531 235.695312 L 176.503906 236.949219 C 176.730469 237.144531 177.023438 237.121094 177.238281 236.894531 L 178.609375 235.433594 L 184.214844 240.167969 C 184.441406 240.363281 184.738281 240.34375 184.949219 240.117188 L 190.132812 234.59375 L 191.613281 235.847656 C 191.84375 236.039062 192.140625 236.019531 192.351562 235.792969 L 193.71875 234.332031 L 199.328125 239.066406 C 199.558594 239.257812 199.851562 239.238281 200.0625 239.011719 L 205.246094 233.488281 L 206.730469 234.742188 C 206.957031 234.933594 207.253906 234.914062 207.464844 234.6875 L 208.835938 233.226562 L 214.441406 237.960938 C 214.671875 238.15625 214.964844 238.136719 215.175781 237.910156 L 220.359375 232.386719 L 221.84375 233.636719 C 222.074219 233.832031 222.367188 233.808594 222.578125 233.582031 L 223.949219 232.125 L 229.558594 236.859375 C 229.789062 237.050781 230.078125 237.03125 230.292969 236.804688 L 235.476562 231.28125 L 236.957031 232.53125 C 237.1875 232.726562 237.480469 232.703125 237.695312 232.476562 L 239.066406 231.019531 L 244.671875 235.753906 C 244.902344 235.945312 245.195312 235.925781 245.40625 235.699219 L 250.59375 230.175781 L 252.074219 231.425781 C 252.304688 231.625 252.597656 231.601562 252.8125 231.375 L 254.183594 229.914062 L 259.789062 234.648438 C 260.023438 234.84375 260.316406 234.820312 260.527344 234.59375 L 265.714844 229.074219 L 267.195312 230.324219 C 267.503906 230.585938 267.902344 230.449219 268.089844 230.027344 C 268.277344 229.601562 268.175781 229.050781 267.871094 228.789062 "/><path style=" stroke:none;fill-rule:nonzero;fill:#e17100;fill-opacity:1;" d="M 1112.566406 240.140625 C 1112.457031 243.46875 1111.546875 246.742188 1110.550781 249.898438 C 1109.53125 253.140625 1108.40625 256.386719 1106.640625 259.289062 C 1103.730469 264.085938 1099.492188 268.203125 1094.609375 270.902344 C 1092.273438 272.191406 1089.871094 273.367188 1087.628906 274.816406 C 1085.308594 276.308594 1083.730469 277.621094 1080.96875 278.246094 C 1074.457031 279.71875 1067.710938 281.382812 1061.015625 281.652344 C 1057.875 281.777344 1053.246094 282.003906 1050.40625 280.4375 C 1048.183594 279.214844 1045.519531 279.222656 1043.152344 278.113281 C 1037.039062 275.253906 1032.558594 270.539062 1029.039062 265.132812 C 1026.96875 261.953125 1026.03125 257.867188 1025.292969 254.054688 C 1024.769531 251.367188 1025.261719 248.46875 1025.738281 245.640625 C 1026.542969 240.898438 1028.550781 236.648438 1030.546875 232.417969 C 1032.238281 228.835938 1034.4375 225.488281 1037.394531 222.671875 C 1042.117188 218.175781 1047.59375 214.886719 1053.433594 212.160156 C 1058.15625 209.953125 1063.03125 208.445312 1068.332031 208.003906 C 1071.761719 207.71875 1075.148438 206.816406 1078.636719 207.160156 C 1084.488281 207.730469 1089.585938 210.550781 1094.921875 212.660156 C 1095.109375 212.734375 1095.296875 212.882812 1095.421875 213.042969 C 1098.941406 217.535156 1103.367188 221.121094 1107.425781 225.074219 C 1108.699219 226.316406 1109.675781 228.09375 1110.203125 229.808594 C 1111.195312 233.046875 1112.574219 235.988281 1112.578125 239.445312 C 1112.578125 239.675781 1112.574219 239.910156 1112.566406 240.140625 Z M 1112.566406 240.140625 "/><g clip-rule="nonzero" clip-path="url(#9abd2b6b98)"><path style=" stroke:none;fill-rule:nonzero;fill:#fef3c6;fill-opacity:1;" d="M 1120.757812 202.980469 C 1119.453125 205.605469 1116.789062 206.507812 1114.488281 207.761719 C 1112.046875 209.09375 1109.957031 211.050781 1107.179688 211.835938 C 1106.632812 211.992188 1105.890625 212.765625 1106.835938 213.65625 C 1109.402344 216.085938 1111.179688 219.089844 1112.65625 222.257812 C 1114.246094 225.667969 1114.933594 229.34375 1115.132812 233.058594 C 1115.515625 240.3125 1113.824219 247.226562 1110.265625 253.460938 C 1108.109375 257.242188 1105.527344 260.8125 1102.175781 263.890625 C 1098.773438 267.019531 1094.761719 269.089844 1091.207031 271.847656 C 1085.664062 276.152344 1079.289062 276.503906 1072.785156 277.101562 C 1068.480469 277.496094 1064.265625 277.097656 1060.210938 276.058594 C 1054.988281 274.722656 1050.167969 272.386719 1045.640625 269.238281 C 1040.605469 265.734375 1037.003906 261.144531 1034.046875 256.027344 C 1031.832031 252.199219 1030.953125 247.828125 1030.238281 243.417969 C 1029.277344 237.503906 1030.457031 231.910156 1032.238281 226.4375 C 1033.707031 221.933594 1036.453125 218.035156 1039.511719 214.402344 C 1043.527344 209.636719 1048.398438 205.945312 1054.039062 203.375 C 1058.503906 201.335938 1063.171875 199.769531 1068.109375 199.296875 C 1068.957031 199.214844 1070.148438 199.046875 1070.328125 200.363281 C 1070.503906 201.675781 1069.308594 201.539062 1068.558594 201.6875 C 1057.300781 203.882812 1047.902344 209.191406 1041.433594 218.769531 C 1035.679688 227.285156 1033.628906 236.707031 1035.988281 246.941406 C 1036.703125 250.027344 1037.65625 253.054688 1039.203125 255.714844 C 1040.785156 258.445312 1043.324219 260.546875 1045.691406 262.707031 C 1050.417969 267.019531 1055.925781 270.011719 1062.183594 270.839844 C 1069.761719 271.839844 1077.339844 271.636719 1084.691406 268.667969 C 1091.945312 265.734375 1098.1875 261.296875 1103.242188 255.601562 C 1111.449219 246.355469 1114.179688 235.539062 1109.644531 223.601562 C 1108.484375 220.546875 1106.519531 217.777344 1104.109375 215.519531 C 1102.585938 214.09375 1101.054688 215.605469 1099.949219 216.460938 C 1097.792969 218.132812 1095.902344 220.152344 1093.90625 222.035156 C 1092.972656 222.917969 1091.691406 223.164062 1090.636719 223.917969 C 1087.9375 225.851562 1086.191406 228.929688 1083.410156 230.511719 C 1080.078125 232.402344 1078.335938 235.585938 1075.855469 238.132812 C 1072.5625 241.515625 1070.664062 245.980469 1067.957031 249.84375 C 1067.402344 250.636719 1067.515625 251.910156 1067.355469 252.96875 C 1067.183594 254.085938 1066.792969 255.140625 1065.6875 255.53125 C 1064.722656 255.871094 1064.238281 254.839844 1063.5625 254.363281 C 1062.496094 253.613281 1061.867188 252.414062 1061.636719 251.34375 C 1061.027344 248.527344 1059.699219 245.953125 1058.554688 243.4375 C 1057.09375 240.230469 1056.160156 236.34375 1052.359375 234.589844 C 1051.414062 234.15625 1050.53125 233.175781 1051.144531 231.945312 C 1051.652344 230.933594 1052.570312 230.4375 1053.835938 230.6875 C 1055.378906 230.988281 1056.613281 231.765625 1057.734375 232.804688 C 1060.632812 235.492188 1063.511719 238.191406 1064.363281 242.316406 C 1064.429688 242.632812 1064.730469 242.902344 1064.792969 242.992188 C 1068.804688 237.714844 1071.488281 231.570312 1076.613281 226.933594 C 1082.179688 221.902344 1087.695312 216.863281 1093.808594 212.503906 C 1094.753906 211.832031 1096.632812 211.613281 1096.320312 210.3125 C 1096.070312 209.285156 1094.351562 208.867188 1093.152344 208.375 C 1087.226562 205.964844 1080.988281 205.523438 1074.738281 205.839844 C 1071.0625 206.027344 1067.261719 206.308594 1063.871094 208.105469 C 1062.734375 208.710938 1061.382812 208.480469 1060.25 209.285156 C 1059.847656 209.574219 1058.726562 209.015625 1058.414062 208.160156 C 1058.097656 207.300781 1058.453125 206.613281 1059.136719 206.089844 C 1060.644531 204.929688 1062.515625 204.519531 1064.238281 203.957031 C 1070.175781 202.023438 1076.253906 201.472656 1082.535156 202.070312 C 1088.847656 202.667969 1094.628906 204.46875 1099.941406 207.847656 C 1100.796875 208.394531 1101.304688 208.078125 1102.046875 207.65625 C 1106.679688 205.027344 1111.648438 203.082031 1116.449219 200.796875 C 1117.152344 200.460938 1117.9375 200.261719 1118.707031 200.117188 C 1119.480469 199.972656 1120.375 199.875 1120.917969 200.570312 C 1121.527344 201.34375 1121.15625 202.175781 1120.757812 202.980469 Z M 1120.757812 202.980469 "/></g><g style="fill:#1d4ed8;fill-opacity:1;"><g transform="translate(124.20084, 387.108041)"><path style="stroke:none" d="M 33.0625 -6.875 L 33.0625 0 L 4.390625 0 L 4.390625 -37.015625 L 32.375 -37.015625 L 32.375 -30.140625 L 12.90625 -30.140625 L 12.90625 -22.109375 L 30.09375 -22.109375 L 30.09375 -15.4375 L 12.90625 -15.4375 L 12.90625 -6.875 Z M 33.0625 -6.875 "/></g></g><g style="fill:#1d4ed8;fill-opacity:1;"><g transform="translate(179.35205, 387.108041)"><path style="stroke:none" d="M 16.5625 0.640625 C 13.632812 0.640625 10.800781 0.242188 8.0625 -0.546875 C 5.332031 -1.347656 3.140625 -2.382812 1.484375 -3.65625 L 4.390625 -10.109375 C 5.972656 -8.941406 7.859375 -8.003906 10.046875 -7.296875 C 12.234375 -6.585938 14.421875 -6.234375 16.609375 -6.234375 C 19.035156 -6.234375 20.832031 -6.59375 22 -7.3125 C 23.164062 -8.039062 23.75 -9.003906 23.75 -10.203125 C 23.75 -11.085938 23.40625 -11.820312 22.71875 -12.40625 C 22.03125 -12.988281 21.144531 -13.453125 20.0625 -13.796875 C 18.988281 -14.148438 17.535156 -14.539062 15.703125 -14.96875 C 12.890625 -15.632812 10.582031 -16.300781 8.78125 -16.96875 C 6.976562 -17.644531 5.429688 -18.722656 4.140625 -20.203125 C 2.859375 -21.679688 2.21875 -23.65625 2.21875 -26.125 C 2.21875 -28.28125 2.800781 -30.226562 3.96875 -31.96875 C 5.132812 -33.71875 6.890625 -35.101562 9.234375 -36.125 C 11.578125 -37.144531 14.441406 -37.65625 17.828125 -37.65625 C 20.191406 -37.65625 22.5 -37.375 24.75 -36.8125 C 27.007812 -36.25 28.984375 -35.4375 30.671875 -34.375 L 28.03125 -27.875 C 24.613281 -29.8125 21.191406 -30.78125 17.765625 -30.78125 C 15.367188 -30.78125 13.597656 -30.390625 12.453125 -29.609375 C 11.304688 -28.835938 10.734375 -27.816406 10.734375 -26.546875 C 10.734375 -25.273438 11.394531 -24.332031 12.71875 -23.71875 C 14.039062 -23.101562 16.0625 -22.492188 18.78125 -21.890625 C 21.59375 -21.222656 23.898438 -20.550781 25.703125 -19.875 C 27.503906 -19.207031 29.046875 -18.148438 30.328125 -16.703125 C 31.617188 -15.265625 32.265625 -13.3125 32.265625 -10.84375 C 32.265625 -8.726562 31.671875 -6.796875 30.484375 -5.046875 C 29.304688 -3.304688 27.535156 -1.921875 25.171875 -0.890625 C 22.804688 0.128906 19.9375 0.640625 16.5625 0.640625 Z M 16.5625 0.640625 "/></g></g><g style="fill:#1d4ed8;fill-opacity:1;"><g transform="translate(232.758709, 387.108041)"><path style="stroke:none" d="M 12.0625 -30.046875 L 0.21875 -30.046875 L 0.21875 -37.015625 L 32.46875 -37.015625 L 32.46875 -30.046875 L 20.625 -30.046875 L 20.625 0 L 12.0625 0 Z M 12.0625 -30.046875 "/></g></g><g style="fill:#1d4ed8;fill-opacity:1;"><g transform="translate(285.108109, 387.108041)"><path style="stroke:none" d="M 20.84375 0.640625 C 15.550781 0.640625 11.429688 -0.820312 8.484375 -3.75 C 5.546875 -6.675781 4.078125 -10.859375 4.078125 -16.296875 L 4.078125 -37.015625 L 12.640625 -37.015625 L 12.640625 -16.609375 C 12.640625 -9.984375 15.390625 -6.671875 20.890625 -6.671875 C 23.566406 -6.671875 25.609375 -7.472656 27.015625 -9.078125 C 28.429688 -10.679688 29.140625 -13.191406 29.140625 -16.609375 L 29.140625 -37.015625 L 37.609375 -37.015625 L 37.609375 -16.296875 C 37.609375 -10.859375 36.132812 -6.675781 33.1875 -3.75 C 30.238281 -0.820312 26.125 0.640625 20.84375 0.640625 Z M 20.84375 0.640625 "/></g></g><g style="fill:#1d4ed8;fill-opacity:1;"><g transform="translate(346.444436, 387.108041)"><path style="stroke:none" d="M 4.390625 -37.015625 L 21.203125 -37.015625 C 25.222656 -37.015625 28.773438 -36.25 31.859375 -34.71875 C 34.953125 -33.1875 37.351562 -31.023438 39.0625 -28.234375 C 40.769531 -25.453125 41.625 -22.210938 41.625 -18.515625 C 41.625 -14.804688 40.769531 -11.554688 39.0625 -8.765625 C 37.351562 -5.984375 34.953125 -3.828125 31.859375 -2.296875 C 28.773438 -0.765625 25.222656 0 21.203125 0 L 4.390625 0 Z M 20.78125 -7.03125 C 24.488281 -7.03125 27.441406 -8.0625 29.640625 -10.125 C 31.847656 -12.1875 32.953125 -14.984375 32.953125 -18.515625 C 32.953125 -22.035156 31.847656 -24.828125 29.640625 -26.890625 C 27.441406 -28.953125 24.488281 -29.984375 20.78125 -29.984375 L 12.953125 -29.984375 L 12.953125 -7.03125 Z M 20.78125 -7.03125 "/></g></g><g style="fill:#1d4ed8;fill-opacity:1;"><g transform="translate(409.789583, 387.108041)"><path style="stroke:none" d="M 33.0625 -6.875 L 33.0625 0 L 4.390625 0 L 4.390625 -37.015625 L 32.375 -37.015625 L 32.375 -30.140625 L 12.90625 -30.140625 L 12.90625 -22.109375 L 30.09375 -22.109375 L 30.09375 -15.4375 L 12.90625 -15.4375 L 12.90625 -6.875 Z M 33.0625 -6.875 "/></g></g><g style="fill:#1d4ed8;fill-opacity:1;"><g transform="translate(464.940794, 387.108041)"><path style="stroke:none" d=""/></g></g><g style="fill:#1d4ed8;fill-opacity:1;"><g transform="translate(499.580653, 387.108041)"><path style="stroke:none" d="M 4.390625 -37.015625 L 21.203125 -37.015625 C 25.222656 -37.015625 28.773438 -36.25 31.859375 -34.71875 C 34.953125 -33.1875 37.351562 -31.023438 39.0625 -28.234375 C 40.769531 -25.453125 41.625 -22.210938 41.625 -18.515625 C 41.625 -14.804688 40.769531 -11.554688 39.0625 -8.765625 C 37.351562 -5.984375 34.953125 -3.828125 31.859375 -2.296875 C 28.773438 -0.765625 25.222656 0 21.203125 0 L 4.390625 0 Z M 20.78125 -7.03125 C 24.488281 -7.03125 27.441406 -8.0625 29.640625 -10.125 C 31.847656 -12.1875 32.953125 -14.984375 32.953125 -18.515625 C 32.953125 -22.035156 31.847656 -24.828125 29.640625 -26.890625 C 27.441406 -28.953125 24.488281 -29.984375 20.78125 -29.984375 L 12.953125 -29.984375 L 12.953125 -7.03125 Z M 20.78125 -7.03125 "/></g></g><g style="fill:#1d4ed8;fill-opacity:1;"><g transform="translate(562.925801, 387.108041)"><path style="stroke:none" d="M 4.390625 -37.015625 L 12.953125 -37.015625 L 12.953125 0 L 4.390625 0 Z M 4.390625 -37.015625 "/></g></g><g style="fill:#1d4ed8;fill-opacity:1;"><g transform="translate(599.944586, 387.108041)"><path style="stroke:none" d="M 27.984375 0 L 20.84375 -10.3125 L 12.953125 -10.3125 L 12.953125 0 L 4.390625 0 L 4.390625 -37.015625 L 20.421875 -37.015625 C 23.691406 -37.015625 26.535156 -36.46875 28.953125 -35.375 C 31.367188 -34.289062 33.226562 -32.742188 34.53125 -30.734375 C 35.84375 -28.722656 36.5 -26.34375 36.5 -23.59375 C 36.5 -20.84375 35.835938 -18.46875 34.515625 -16.46875 C 33.191406 -14.476562 31.3125 -12.957031 28.875 -11.90625 L 37.1875 0 Z M 27.828125 -23.59375 C 27.828125 -25.664062 27.15625 -27.257812 25.8125 -28.375 C 24.46875 -29.488281 22.507812 -30.046875 19.9375 -30.046875 L 12.953125 -30.046875 L 12.953125 -17.140625 L 19.9375 -17.140625 C 22.507812 -17.140625 24.46875 -17.703125 25.8125 -18.828125 C 27.15625 -19.953125 27.828125 -21.539062 27.828125 -23.59375 Z M 27.828125 -23.59375 "/></g></g><g style="fill:#1d4ed8;fill-opacity:1;"><g transform="translate(658.479106, 387.108041)"><path style="stroke:none" d="M 33.0625 -6.875 L 33.0625 0 L 4.390625 0 L 4.390625 -37.015625 L 32.375 -37.015625 L 32.375 -30.140625 L 12.90625 -30.140625 L 12.90625 -22.109375 L 30.09375 -22.109375 L 30.09375 -15.4375 L 12.90625 -15.4375 L 12.90625 -6.875 Z M 33.0625 -6.875 "/></g></g><g style="fill:#1d4ed8;fill-opacity:1;"><g transform="translate(713.630316, 387.108041)"><path style="stroke:none" d="M 4.390625 -37.015625 L 12.953125 -37.015625 L 12.953125 0 L 4.390625 0 Z M 4.390625 -37.015625 "/></g></g><g style="fill:#1d4ed8;fill-opacity:1;"><g transform="translate(750.649101, 387.108041)"><path style="stroke:none" d="M 12.0625 -30.046875 L 0.21875 -30.046875 L 0.21875 -37.015625 L 32.46875 -37.015625 L 32.46875 -30.046875 L 20.625 -30.046875 L 20.625 0 L 12.0625 0 Z M 12.0625 -30.046875 "/></g></g><g style="fill:#1d4ed8;fill-opacity:1;"><g transform="translate(802.998501, 387.108041)"><path style="stroke:none" d="M 22.3125 0.640625 C 18.476562 0.640625 15.015625 -0.1875 11.921875 -1.84375 C 8.835938 -3.507812 6.421875 -5.796875 4.671875 -8.703125 C 2.929688 -11.609375 2.0625 -14.878906 2.0625 -18.515625 C 2.0625 -22.140625 2.929688 -25.40625 4.671875 -28.3125 C 6.421875 -31.226562 8.835938 -33.515625 11.921875 -35.171875 C 15.015625 -36.828125 18.476562 -37.65625 22.3125 -37.65625 C 26.15625 -37.65625 29.609375 -36.828125 32.671875 -35.171875 C 35.742188 -33.515625 38.160156 -31.226562 39.921875 -28.3125 C 41.691406 -25.40625 42.578125 -22.140625 42.578125 -18.515625 C 42.578125 -14.878906 41.691406 -11.609375 39.921875 -8.703125 C 38.160156 -5.796875 35.742188 -3.507812 32.671875 -1.84375 C 29.609375 -0.1875 26.15625 0.640625 22.3125 0.640625 Z M 22.3125 -6.671875 C 24.5 -6.671875 26.472656 -7.171875 28.234375 -8.171875 C 30.003906 -9.171875 31.390625 -10.570312 32.390625 -12.375 C 33.398438 -14.175781 33.90625 -16.222656 33.90625 -18.515625 C 33.90625 -20.804688 33.398438 -22.847656 32.390625 -24.640625 C 31.390625 -26.441406 30.003906 -27.84375 28.234375 -28.84375 C 26.472656 -29.851562 24.5 -30.359375 22.3125 -30.359375 C 20.132812 -30.359375 18.160156 -29.851562 16.390625 -28.84375 C 14.628906 -27.84375 13.242188 -26.441406 12.234375 -24.640625 C 11.234375 -22.847656 10.734375 -20.804688 10.734375 -18.515625 C 10.734375 -16.222656 11.234375 -14.175781 12.234375 -12.375 C 13.242188 -10.570312 14.628906 -9.171875 16.390625 -8.171875 C 18.160156 -7.171875 20.132812 -6.671875 22.3125 -6.671875 Z M 22.3125 -6.671875 "/></g></g><g style="fill:#1d4ed8;fill-opacity:1;"><g transform="translate(867.295207, 387.108041)"><path style="stroke:none" d=""/></g></g><g style="fill:#1d4ed8;fill-opacity:1;"><g transform="translate(901.935067, 387.108041)"><path style="stroke:none" d="M 4.390625 -37.015625 L 21.203125 -37.015625 C 25.222656 -37.015625 28.773438 -36.25 31.859375 -34.71875 C 34.953125 -33.1875 37.351562 -31.023438 39.0625 -28.234375 C 40.769531 -25.453125 41.625 -22.210938 41.625 -18.515625 C 41.625 -14.804688 40.769531 -11.554688 39.0625 -8.765625 C 37.351562 -5.984375 34.953125 -3.828125 31.859375 -2.296875 C 28.773438 -0.765625 25.222656 0 21.203125 0 L 4.390625 0 Z M 20.78125 -7.03125 C 24.488281 -7.03125 27.441406 -8.0625 29.640625 -10.125 C 31.847656 -12.1875 32.953125 -14.984375 32.953125 -18.515625 C 32.953125 -22.035156 31.847656 -24.828125 29.640625 -26.890625 C 27.441406 -28.953125 24.488281 -29.984375 20.78125 -29.984375 L 12.953125 -29.984375 L 12.953125 -7.03125 Z M 20.78125 -7.03125 "/></g></g><g style="fill:#1d4ed8;fill-opacity:1;"><g transform="translate(965.280262, 387.108041)"><path style="stroke:none" d="M 33.0625 -6.875 L 33.0625 0 L 4.390625 0 L 4.390625 -37.015625 L 32.375 -37.015625 L 32.375 -30.140625 L 12.90625 -30.140625 L 12.90625 -22.109375 L 30.09375 -22.109375 L 30.09375 -15.4375 L 12.90625 -15.4375 L 12.90625 -6.875 Z M 33.0625 -6.875 "/></g></g><g style="fill:#1d4ed8;fill-opacity:1;"><g transform="translate(110.788315, 446.850278)"><path style="stroke:none" d="M 12.953125 -30.140625 L 12.953125 -20.359375 L 30.09375 -20.359375 L 30.09375 -13.484375 L 12.953125 -13.484375 L 12.953125 0 L 4.390625 0 L 4.390625 -37.015625 L 32.375 -37.015625 L 32.375 -30.140625 Z M 12.953125 -30.140625 "/></g></g><g style="fill:#1d4ed8;fill-opacity:1;"><g transform="translate(164.247845, 446.850278)"><path style="stroke:none" d="M 22.3125 0.640625 C 18.476562 0.640625 15.015625 -0.1875 11.921875 -1.84375 C 8.835938 -3.507812 6.421875 -5.796875 4.671875 -8.703125 C 2.929688 -11.609375 2.0625 -14.878906 2.0625 -18.515625 C 2.0625 -22.140625 2.929688 -25.40625 4.671875 -28.3125 C 6.421875 -31.226562 8.835938 -33.515625 11.921875 -35.171875 C 15.015625 -36.828125 18.476562 -37.65625 22.3125 -37.65625 C 26.15625 -37.65625 29.609375 -36.828125 32.671875 -35.171875 C 35.742188 -33.515625 38.160156 -31.226562 39.921875 -28.3125 C 41.691406 -25.40625 42.578125 -22.140625 42.578125 -18.515625 C 42.578125 -14.878906 41.691406 -11.609375 39.921875 -8.703125 C 38.160156 -5.796875 35.742188 -3.507812 32.671875 -1.84375 C 29.609375 -0.1875 26.15625 0.640625 22.3125 0.640625 Z M 22.3125 -6.671875 C 24.5 -6.671875 26.472656 -7.171875 28.234375 -8.171875 C 30.003906 -9.171875 31.390625 -10.570312 32.390625 -12.375 C 33.398438 -14.175781 33.90625 -16.222656 33.90625 -18.515625 C 33.90625 -20.804688 33.398438 -22.847656 32.390625 -24.640625 C 31.390625 -26.441406 30.003906 -27.84375 28.234375 -28.84375 C 26.472656 -29.851562 24.5 -30.359375 22.3125 -30.359375 C 20.132812 -30.359375 18.160156 -29.851562 16.390625 -28.84375 C 14.628906 -27.84375 13.242188 -26.441406 12.234375 -24.640625 C 11.234375 -22.847656 10.734375 -20.804688 10.734375 -18.515625 C 10.734375 -16.222656 11.234375 -14.175781 12.234375 -12.375 C 13.242188 -10.570312 14.628906 -9.171875 16.390625 -8.171875 C 18.160156 -7.171875 20.132812 -6.671875 22.3125 -6.671875 Z M 22.3125 -6.671875 "/></g></g><g style="fill:#1d4ed8;fill-opacity:1;"><g transform="translate(228.544551, 446.850278)"><path style="stroke:none" d="M 27.984375 0 L 20.84375 -10.3125 L 12.953125 -10.3125 L 12.953125 0 L 4.390625 0 L 4.390625 -37.015625 L 20.421875 -37.015625 C 23.691406 -37.015625 26.535156 -36.46875 28.953125 -35.375 C 31.367188 -34.289062 33.226562 -32.742188 34.53125 -30.734375 C 35.84375 -28.722656 36.5 -26.34375 36.5 -23.59375 C 36.5 -20.84375 35.835938 -18.46875 34.515625 -16.46875 C 33.191406 -14.476562 31.3125 -12.957031 28.875 -11.90625 L 37.1875 0 Z M 27.828125 -23.59375 C 27.828125 -25.664062 27.15625 -27.257812 25.8125 -28.375 C 24.46875 -29.488281 22.507812 -30.046875 19.9375 -30.046875 L 12.953125 -30.046875 L 12.953125 -17.140625 L 19.9375 -17.140625 C 22.507812 -17.140625 24.46875 -17.703125 25.8125 -18.828125 C 27.15625 -19.953125 27.828125 -21.539062 27.828125 -23.59375 Z M 27.828125 -23.59375 "/></g></g><g style="fill:#1d4ed8;fill-opacity:1;"><g transform="translate(287.079071, 446.850278)"><path style="stroke:none" d="M 38.078125 0 L 38.03125 -22.21875 L 27.140625 -3.90625 L 23.265625 -3.90625 L 12.421875 -21.734375 L 12.421875 0 L 4.390625 0 L 4.390625 -37.015625 L 11.484375 -37.015625 L 25.328125 -14.015625 L 38.984375 -37.015625 L 46.015625 -37.015625 L 46.125 0 Z M 38.078125 0 "/></g></g><g style="fill:#1d4ed8;fill-opacity:1;"><g transform="translate(357.24371, 446.850278)"><path style="stroke:none" d="M 28.765625 -7.9375 L 11.578125 -7.9375 L 8.296875 0 L -0.46875 0 L 16.03125 -37.015625 L 24.484375 -37.015625 L 41.046875 0 L 32.046875 0 Z M 26.078125 -14.4375 L 20.203125 -28.609375 L 14.328125 -14.4375 Z M 26.078125 -14.4375 "/></g></g><g style="fill:#1d4ed8;fill-opacity:1;"><g transform="translate(417.416987, 446.850278)"><path style="stroke:none" d=""/></g></g><g style="fill:#1d4ed8;fill-opacity:1;"><g transform="translate(452.056847, 446.850278)"><path style="stroke:none" d="M 22.3125 0.640625 C 18.476562 0.640625 15.015625 -0.1875 11.921875 -1.84375 C 8.835938 -3.507812 6.421875 -5.796875 4.671875 -8.703125 C 2.929688 -11.609375 2.0625 -14.878906 2.0625 -18.515625 C 2.0625 -22.140625 2.929688 -25.40625 4.671875 -28.3125 C 6.421875 -31.226562 8.835938 -33.515625 11.921875 -35.171875 C 15.015625 -36.828125 18.476562 -37.65625 22.3125 -37.65625 C 26.15625 -37.65625 29.609375 -36.828125 32.671875 -35.171875 C 35.742188 -33.515625 38.160156 -31.226562 39.921875 -28.3125 C 41.691406 -25.40625 42.578125 -22.140625 42.578125 -18.515625 C 42.578125 -14.878906 41.691406 -11.609375 39.921875 -8.703125 C 38.160156 -5.796875 35.742188 -3.507812 32.671875 -1.84375 C 29.609375 -0.1875 26.15625 0.640625 22.3125 0.640625 Z M 22.3125 -6.671875 C 24.5 -6.671875 26.472656 -7.171875 28.234375 -8.171875 C 30.003906 -9.171875 31.390625 -10.570312 32.390625 -12.375 C 33.398438 -14.175781 33.90625 -16.222656 33.90625 -18.515625 C 33.90625 -20.804688 33.398438 -22.847656 32.390625 -24.640625 C 31.390625 -26.441406 30.003906 -27.84375 28.234375 -28.84375 C 26.472656 -29.851562 24.5 -30.359375 22.3125 -30.359375 C 20.132812 -30.359375 18.160156 -29.851562 16.390625 -28.84375 C 14.628906 -27.84375 13.242188 -26.441406 12.234375 -24.640625 C 11.234375 -22.847656 10.734375 -20.804688 10.734375 -18.515625 C 10.734375 -16.222656 11.234375 -14.175781 12.234375 -12.375 C 13.242188 -10.570312 14.628906 -9.171875 16.390625 -8.171875 C 18.160156 -7.171875 20.132812 -6.671875 22.3125 -6.671875 Z M 22.3125 -6.671875 "/></g></g><g style="fill:#1d4ed8;fill-opacity:1;"><g transform="translate(516.353553, 446.850278)"><path style="stroke:none" d="M 27.984375 0 L 20.84375 -10.3125 L 12.953125 -10.3125 L 12.953125 0 L 4.390625 0 L 4.390625 -37.015625 L 20.421875 -37.015625 C 23.691406 -37.015625 26.535156 -36.46875 28.953125 -35.375 C 31.367188 -34.289062 33.226562 -32.742188 34.53125 -30.734375 C 35.84375 -28.722656 36.5 -26.34375 36.5 -23.59375 C 36.5 -20.84375 35.835938 -18.46875 34.515625 -16.46875 C 33.191406 -14.476562 31.3125 -12.957031 28.875 -11.90625 L 37.1875 0 Z M 27.828125 -23.59375 C 27.828125 -25.664062 27.15625 -27.257812 25.8125 -28.375 C 24.46875 -29.488281 22.507812 -30.046875 19.9375 -30.046875 L 12.953125 -30.046875 L 12.953125 -17.140625 L 19.9375 -17.140625 C 22.507812 -17.140625 24.46875 -17.703125 25.8125 -18.828125 C 27.15625 -19.953125 27.828125 -21.539062 27.828125 -23.59375 Z M 27.828125 -23.59375 "/></g></g><g style="fill:#1d4ed8;fill-opacity:1;"><g transform="translate(574.888073, 446.850278)"><path style="stroke:none" d="M 29.40625 -19.09375 L 37.234375 -19.09375 L 37.234375 -4.078125 C 35.222656 -2.554688 32.894531 -1.390625 30.25 -0.578125 C 27.601562 0.234375 24.941406 0.640625 22.265625 0.640625 C 18.421875 0.640625 14.960938 -0.175781 11.890625 -1.8125 C 8.828125 -3.457031 6.421875 -5.734375 4.671875 -8.640625 C 2.929688 -11.554688 2.0625 -14.847656 2.0625 -18.515625 C 2.0625 -22.179688 2.929688 -25.46875 4.671875 -28.375 C 6.421875 -31.28125 8.847656 -33.550781 11.953125 -35.1875 C 15.054688 -36.832031 18.546875 -37.65625 22.421875 -37.65625 C 25.671875 -37.65625 28.613281 -37.109375 31.25 -36.015625 C 33.894531 -34.921875 36.117188 -33.335938 37.921875 -31.265625 L 32.421875 -26.1875 C 29.773438 -28.96875 26.582031 -30.359375 22.84375 -30.359375 C 20.488281 -30.359375 18.390625 -29.863281 16.546875 -28.875 C 14.710938 -27.882812 13.285156 -26.488281 12.265625 -24.6875 C 11.242188 -22.894531 10.734375 -20.835938 10.734375 -18.515625 C 10.734375 -16.222656 11.242188 -14.175781 12.265625 -12.375 C 13.285156 -10.570312 14.703125 -9.171875 16.515625 -8.171875 C 18.335938 -7.171875 20.414062 -6.671875 22.75 -6.671875 C 25.207031 -6.671875 27.425781 -7.195312 29.40625 -8.25 Z M 29.40625 -19.09375 "/></g></g><g style="fill:#1d4ed8;fill-opacity:1;"><g transform="translate(635.325666, 446.850278)"><path style="stroke:none" d="M 28.765625 -7.9375 L 11.578125 -7.9375 L 8.296875 0 L -0.46875 0 L 16.03125 -37.015625 L 24.484375 -37.015625 L 41.046875 0 L 32.046875 0 Z M 26.078125 -14.4375 L 20.203125 -28.609375 L 14.328125 -14.4375 Z M 26.078125 -14.4375 "/></g></g><g style="fill:#1d4ed8;fill-opacity:1;"><g transform="translate(695.498944, 446.850278)"><path style="stroke:none" d="M 38.34375 -37.015625 L 38.34375 0 L 31.3125 0 L 12.859375 -22.484375 L 12.859375 0 L 4.390625 0 L 4.390625 -37.015625 L 11.484375 -37.015625 L 29.890625 -14.546875 L 29.890625 -37.015625 Z M 38.34375 -37.015625 "/></g></g><g style="fill:#1d4ed8;fill-opacity:1;"><g transform="translate(757.89253, 446.850278)"><path style="stroke:none" d="M 4.390625 -37.015625 L 12.953125 -37.015625 L 12.953125 0 L 4.390625 0 Z M 4.390625 -37.015625 "/></g></g><g style="fill:#1d4ed8;fill-opacity:1;"><g transform="translate(794.911315, 446.850278)"><path style="stroke:none" d="M 34.375 -6.984375 L 34.375 0 L 2.015625 0 L 2.015625 -5.546875 L 22.3125 -30.046875 L 2.4375 -30.046875 L 2.4375 -37.015625 L 33.578125 -37.015625 L 33.578125 -31.46875 L 13.328125 -6.984375 Z M 34.375 -6.984375 "/></g></g><g style="fill:#1d4ed8;fill-opacity:1;"><g transform="translate(850.062525, 446.850278)"><path style="stroke:none" d="M 28.765625 -7.9375 L 11.578125 -7.9375 L 8.296875 0 L -0.46875 0 L 16.03125 -37.015625 L 24.484375 -37.015625 L 41.046875 0 L 32.046875 0 Z M 26.078125 -14.4375 L 20.203125 -28.609375 L 14.328125 -14.4375 Z M 26.078125 -14.4375 "/></g></g><g style="fill:#1d4ed8;fill-opacity:1;"><g transform="translate(910.235803, 446.850278)"><path style="stroke:none" d="M 4.390625 -37.015625 L 21.203125 -37.015625 C 25.222656 -37.015625 28.773438 -36.25 31.859375 -34.71875 C 34.953125 -33.1875 37.351562 -31.023438 39.0625 -28.234375 C 40.769531 -25.453125 41.625 -22.210938 41.625 -18.515625 C 41.625 -14.804688 40.769531 -11.554688 39.0625 -8.765625 C 37.351562 -5.984375 34.953125 -3.828125 31.859375 -2.296875 C 28.773438 -0.765625 25.222656 0 21.203125 0 L 4.390625 0 Z M 20.78125 -7.03125 C 24.488281 -7.03125 27.441406 -8.0625 29.640625 -10.125 C 31.847656 -12.1875 32.953125 -14.984375 32.953125 -18.515625 C 32.953125 -22.035156 31.847656 -24.828125 29.640625 -26.890625 C 27.441406 -28.953125 24.488281 -29.984375 20.78125 -29.984375 L 12.953125 -29.984375 L 12.953125 -7.03125 Z M 20.78125 -7.03125 "/></g></g><g style="fill:#1d4ed8;fill-opacity:1;"><g transform="translate(973.58095, 446.850278)"><path style="stroke:none" d="M 28.765625 -7.9375 L 11.578125 -7.9375 L 8.296875 0 L -0.46875 0 L 16.03125 -37.015625 L 24.484375 -37.015625 L 41.046875 0 L 32.046875 0 Z M 26.078125 -14.4375 L 20.203125 -28.609375 L 14.328125 -14.4375 Z M 26.078125 -14.4375 "/></g></g></g></svg>