<svg xmlns="http://www.w3.org/2000/svg" xmlns:xlink="http://www.w3.org/1999/xlink" width="500" zoomAndPan="magnify" viewBox="0 0 375 374.999991" height="500" preserveAspectRatio="xMidYMid meet" version="1.2"><defs><clipPath id="01dae05b57"><path d="M 1.5 186.234375 L 66.96875 186.234375 L 66.96875 201.699219 L 1.5 201.699219 Z M 1.5 186.234375 "/></clipPath><clipPath id="0d2b99d28d"><path d="M 2 185 L 23 185 L 23 201.894531 L 2 201.894531 Z M 2 185 "/></clipPath><clipPath id="68ffa59868"><path d="M 1.5 184.839844 L 87.664062 184.839844 L 87.664062 201.699219 L 1.5 201.699219 Z M 1.5 184.839844 "/></clipPath><clipPath id="574df66336"><path d="M 9 123.144531 L 94 123.144531 L 94 149 L 9 149 Z M 9 123.144531 "/></clipPath><clipPath id="d82669fe9f"><path d="M 341.640625 176 L 371 176 L 371 201.730469 L 341.640625 201.730469 Z M 341.640625 176 "/></clipPath><clipPath id="441099ac4a"><path d="M 343 174 L 373.890625 174 L 373.890625 201 L 343 201 Z M 343 174 "/></clipPath></defs><g id="d630982f6e"><path style="fill:none;stroke-width:3;stroke-linecap:round;stroke-linejoin:miter;stroke:#1d4ed8;stroke-opacity:1;stroke-miterlimit:4;" d="M 1.501462 1.499766 L 111.241052 1.499766 " transform="matrix(0,-0.75,0.75,0,105.840019,204.477659)"/><g style="fill:#e17100;fill-opacity:1;"><g transform="translate(114.012676, 200.920116)"><path style="stroke:none" d="M 17.65625 0.5 C 14.613281 0.5 11.875 -0.15625 9.4375 -1.46875 C 7 -2.78125 5.085938 -4.582031 3.703125 -6.875 C 2.316406 -9.175781 1.625 -11.765625 1.625 -14.640625 C 1.625 -17.515625 2.316406 -20.101562 3.703125 -22.40625 C 5.085938 -24.707031 7 -26.515625 9.4375 -27.828125 C 11.875 -29.140625 14.613281 -29.796875 17.65625 -29.796875 C 20.695312 -29.796875 23.429688 -29.140625 25.859375 -27.828125 C 28.285156 -26.515625 30.195312 -24.707031 31.59375 -22.40625 C 32.988281 -20.101562 33.6875 -17.515625 33.6875 -14.640625 C 33.6875 -11.765625 32.988281 -9.175781 31.59375 -6.875 C 30.195312 -4.582031 28.285156 -2.78125 25.859375 -1.46875 C 23.429688 -0.15625 20.695312 0.5 17.65625 0.5 Z M 17.65625 -5.265625 C 19.382812 -5.265625 20.945312 -5.660156 22.34375 -6.453125 C 23.738281 -7.253906 24.832031 -8.363281 25.625 -9.78125 C 26.425781 -11.207031 26.828125 -12.828125 26.828125 -14.640625 C 26.828125 -16.453125 26.425781 -18.070312 25.625 -19.5 C 24.832031 -20.925781 23.738281 -22.035156 22.34375 -22.828125 C 20.945312 -23.617188 19.382812 -24.015625 17.65625 -24.015625 C 15.925781 -24.015625 14.363281 -23.617188 12.96875 -22.828125 C 11.570312 -22.035156 10.476562 -20.925781 9.6875 -19.5 C 8.894531 -18.070312 8.5 -16.453125 8.5 -14.640625 C 8.5 -12.828125 8.894531 -11.207031 9.6875 -9.78125 C 10.476562 -8.363281 11.570312 -7.253906 12.96875 -6.453125 C 14.363281 -5.660156 15.925781 -5.265625 17.65625 -5.265625 Z M 17.65625 -5.265625 "/></g></g><g style="fill:#e17100;fill-opacity:1;"><g transform="translate(149.326352, 200.920116)"><path style="stroke:none" d="M 9.25 -19.546875 C 10.03125 -20.628906 11.082031 -21.445312 12.40625 -22 C 13.726562 -22.5625 15.253906 -22.84375 16.984375 -22.84375 L 16.984375 -16.828125 C 16.265625 -16.878906 15.78125 -16.90625 15.53125 -16.90625 C 13.65625 -16.90625 12.1875 -16.378906 11.125 -15.328125 C 10.070312 -14.285156 9.546875 -12.71875 9.546875 -10.625 L 9.546875 0 L 3.015625 0 L 3.015625 -22.515625 L 9.25 -22.515625 Z M 9.25 -19.546875 "/></g></g><g style="fill:#e17100;fill-opacity:1;"><g transform="translate(167.359761, 200.920116)"><path style="stroke:none" d="M 26.234375 -22.515625 L 26.234375 -3.765625 C 26.234375 0.359375 25.160156 3.425781 23.015625 5.4375 C 20.867188 7.445312 17.726562 8.453125 13.59375 8.453125 C 11.414062 8.453125 9.351562 8.1875 7.40625 7.65625 C 5.457031 7.125 3.835938 6.359375 2.546875 5.359375 L 5.140625 0.671875 C 6.085938 1.453125 7.285156 2.070312 8.734375 2.53125 C 10.191406 2.988281 11.644531 3.21875 13.09375 3.21875 C 15.351562 3.21875 17.019531 2.707031 18.09375 1.6875 C 19.164062 0.675781 19.703125 -0.859375 19.703125 -2.921875 L 19.703125 -3.890625 C 18.003906 -2.023438 15.632812 -1.09375 12.59375 -1.09375 C 10.53125 -1.09375 8.640625 -1.546875 6.921875 -2.453125 C 5.210938 -3.359375 3.851562 -4.632812 2.84375 -6.28125 C 1.84375 -7.925781 1.34375 -9.820312 1.34375 -11.96875 C 1.34375 -14.113281 1.84375 -16.007812 2.84375 -17.65625 C 3.851562 -19.300781 5.210938 -20.578125 6.921875 -21.484375 C 8.640625 -22.390625 10.53125 -22.84375 12.59375 -22.84375 C 15.851562 -22.84375 18.335938 -21.769531 20.046875 -19.625 L 20.046875 -22.515625 Z M 13.890625 -6.4375 C 15.617188 -6.4375 17.035156 -6.945312 18.140625 -7.96875 C 19.242188 -8.988281 19.796875 -10.320312 19.796875 -11.96875 C 19.796875 -13.613281 19.242188 -14.941406 18.140625 -15.953125 C 17.035156 -16.972656 15.617188 -17.484375 13.890625 -17.484375 C 12.160156 -17.484375 10.738281 -16.972656 9.625 -15.953125 C 8.507812 -14.941406 7.953125 -13.613281 7.953125 -11.96875 C 7.953125 -10.320312 8.507812 -8.988281 9.625 -7.96875 C 10.738281 -6.945312 12.160156 -6.4375 13.890625 -6.4375 Z M 13.890625 -6.4375 "/></g></g><g style="fill:#e17100;fill-opacity:1;"><g transform="translate(196.64835, 200.920116)"><path style="stroke:none" d="M 12.09375 -22.84375 C 15.582031 -22.84375 18.257812 -22.015625 20.125 -20.359375 C 22 -18.703125 22.9375 -16.195312 22.9375 -12.84375 L 22.9375 0 L 16.828125 0 L 16.828125 -2.796875 C 15.597656 -0.710938 13.304688 0.328125 9.953125 0.328125 C 8.222656 0.328125 6.722656 0.0351562 5.453125 -0.546875 C 4.191406 -1.128906 3.222656 -1.9375 2.546875 -2.96875 C 1.878906 -4 1.546875 -5.171875 1.546875 -6.484375 C 1.546875 -8.578125 2.332031 -10.222656 3.90625 -11.421875 C 5.488281 -12.617188 7.925781 -13.21875 11.21875 -13.21875 L 16.40625 -13.21875 C 16.40625 -14.644531 15.972656 -15.738281 15.109375 -16.5 C 14.242188 -17.269531 12.945312 -17.65625 11.21875 -17.65625 C 10.019531 -17.65625 8.835938 -17.46875 7.671875 -17.09375 C 6.515625 -16.71875 5.535156 -16.207031 4.734375 -15.5625 L 2.390625 -20.125 C 3.609375 -20.988281 5.078125 -21.65625 6.796875 -22.125 C 8.515625 -22.601562 10.28125 -22.84375 12.09375 -22.84375 Z M 11.59375 -4.0625 C 12.707031 -4.0625 13.695312 -4.316406 14.5625 -4.828125 C 15.425781 -5.347656 16.039062 -6.109375 16.40625 -7.109375 L 16.40625 -9.421875 L 11.921875 -9.421875 C 9.242188 -9.421875 7.90625 -8.539062 7.90625 -6.78125 C 7.90625 -5.9375 8.234375 -5.269531 8.890625 -4.78125 C 9.546875 -4.300781 10.445312 -4.0625 11.59375 -4.0625 Z M 11.59375 -4.0625 "/></g></g><g style="fill:#e17100;fill-opacity:1;"><g transform="translate(222.464149, 200.920116)"><path style="stroke:none" d="M 16.703125 -22.84375 C 19.484375 -22.84375 21.734375 -22.003906 23.453125 -20.328125 C 25.171875 -18.660156 26.03125 -16.179688 26.03125 -12.890625 L 26.03125 0 L 19.5 0 L 19.5 -11.890625 C 19.5 -13.671875 19.109375 -15 18.328125 -15.875 C 17.546875 -16.757812 16.414062 -17.203125 14.9375 -17.203125 C 13.289062 -17.203125 11.976562 -16.691406 11 -15.671875 C 10.03125 -14.648438 9.546875 -13.132812 9.546875 -11.125 L 9.546875 0 L 3.015625 0 L 3.015625 -22.515625 L 9.25 -22.515625 L 9.25 -19.875 C 10.113281 -20.820312 11.1875 -21.550781 12.46875 -22.0625 C 13.75 -22.582031 15.160156 -22.84375 16.703125 -22.84375 Z M 16.703125 -22.84375 "/></g></g><g style="fill:#e17100;fill-opacity:1;"><g transform="translate(251.376183, 200.920116)"><path style="stroke:none" d="M 3.015625 -22.515625 L 9.546875 -22.515625 L 9.546875 0 L 3.015625 0 Z M 6.28125 -25.65625 C 5.070312 -25.65625 4.09375 -26.003906 3.34375 -26.703125 C 2.59375 -27.398438 2.21875 -28.265625 2.21875 -29.296875 C 2.21875 -30.328125 2.59375 -31.191406 3.34375 -31.890625 C 4.09375 -32.585938 5.070312 -32.9375 6.28125 -32.9375 C 7.476562 -32.9375 8.453125 -32.597656 9.203125 -31.921875 C 9.953125 -31.253906 10.328125 -30.421875 10.328125 -29.421875 C 10.328125 -28.328125 9.953125 -27.425781 9.203125 -26.71875 C 8.453125 -26.007812 7.476562 -25.65625 6.28125 -25.65625 Z M 6.28125 -25.65625 "/></g></g><g style="fill:#e17100;fill-opacity:1;"><g transform="translate(263.970279, 200.920116)"><path style="stroke:none" d="M 21.546875 -5.015625 L 21.546875 0 L 1.46875 0 L 1.46875 -3.9375 L 12.9375 -17.484375 L 1.75 -17.484375 L 1.75 -22.515625 L 21.171875 -22.515625 L 21.171875 -18.578125 L 9.703125 -5.015625 Z M 21.546875 -5.015625 "/></g></g><g style="fill:#e17100;fill-opacity:1;"><g transform="translate(286.689859, 200.920116)"><path style="stroke:none" d="M 12.09375 -22.84375 C 15.582031 -22.84375 18.257812 -22.015625 20.125 -20.359375 C 22 -18.703125 22.9375 -16.195312 22.9375 -12.84375 L 22.9375 0 L 16.828125 0 L 16.828125 -2.796875 C 15.597656 -0.710938 13.304688 0.328125 9.953125 0.328125 C 8.222656 0.328125 6.722656 0.0351562 5.453125 -0.546875 C 4.191406 -1.128906 3.222656 -1.9375 2.546875 -2.96875 C 1.878906 -4 1.546875 -5.171875 1.546875 -6.484375 C 1.546875 -8.578125 2.332031 -10.222656 3.90625 -11.421875 C 5.488281 -12.617188 7.925781 -13.21875 11.21875 -13.21875 L 16.40625 -13.21875 C 16.40625 -14.644531 15.972656 -15.738281 15.109375 -16.5 C 14.242188 -17.269531 12.945312 -17.65625 11.21875 -17.65625 C 10.019531 -17.65625 8.835938 -17.46875 7.671875 -17.09375 C 6.515625 -16.71875 5.535156 -16.207031 4.734375 -15.5625 L 2.390625 -20.125 C 3.609375 -20.988281 5.078125 -21.65625 6.796875 -22.125 C 8.515625 -22.601562 10.28125 -22.84375 12.09375 -22.84375 Z M 11.59375 -4.0625 C 12.707031 -4.0625 13.695312 -4.316406 14.5625 -4.828125 C 15.425781 -5.347656 16.039062 -6.109375 16.40625 -7.109375 L 16.40625 -9.421875 L 11.921875 -9.421875 C 9.242188 -9.421875 7.90625 -8.539062 7.90625 -6.78125 C 7.90625 -5.9375 8.234375 -5.269531 8.890625 -4.78125 C 9.546875 -4.300781 10.445312 -4.0625 11.59375 -4.0625 Z M 11.59375 -4.0625 "/></g></g><g style="fill:#e17100;fill-opacity:1;"><g transform="translate(312.505658, 200.920116)"><path style="stroke:none" d="M 25.9375 -31.046875 L 25.9375 0 L 19.703125 0 L 19.703125 -2.59375 C 18.085938 -0.644531 15.742188 0.328125 12.671875 0.328125 C 10.554688 0.328125 8.640625 -0.144531 6.921875 -1.09375 C 5.210938 -2.039062 3.867188 -3.390625 2.890625 -5.140625 C 1.910156 -6.898438 1.421875 -8.9375 1.421875 -11.25 C 1.421875 -13.570312 1.910156 -15.609375 2.890625 -17.359375 C 3.867188 -19.117188 5.210938 -20.472656 6.921875 -21.421875 C 8.640625 -22.367188 10.554688 -22.84375 12.671875 -22.84375 C 15.546875 -22.84375 17.796875 -21.9375 19.421875 -20.125 L 19.421875 -31.046875 Z M 13.8125 -5.015625 C 15.457031 -5.015625 16.820312 -5.578125 17.90625 -6.703125 C 19 -7.835938 19.546875 -9.351562 19.546875 -11.25 C 19.546875 -13.144531 19 -14.65625 17.90625 -15.78125 C 16.820312 -16.914062 15.457031 -17.484375 13.8125 -17.484375 C 12.132812 -17.484375 10.75 -16.914062 9.65625 -15.78125 C 8.570312 -14.65625 8.03125 -13.144531 8.03125 -11.25 C 8.03125 -9.351562 8.570312 -7.835938 9.65625 -6.703125 C 10.75 -5.578125 12.132812 -5.015625 13.8125 -5.015625 Z M 13.8125 -5.015625 "/></g></g><g style="fill:#e17100;fill-opacity:1;"><g transform="translate(341.459527, 200.920116)"><path style="stroke:none" d="M 13.71875 0.328125 C 11.351562 0.328125 9.226562 -0.164062 7.34375 -1.15625 C 5.457031 -2.144531 3.984375 -3.515625 2.921875 -5.265625 C 1.867188 -7.023438 1.34375 -9.019531 1.34375 -11.25 C 1.34375 -13.488281 1.867188 -15.484375 2.921875 -17.234375 C 3.984375 -18.992188 5.457031 -20.367188 7.34375 -21.359375 C 9.226562 -22.347656 11.351562 -22.84375 13.71875 -22.84375 C 16.09375 -22.84375 18.210938 -22.347656 20.078125 -21.359375 C 21.953125 -20.367188 23.414062 -18.992188 24.46875 -17.234375 C 25.53125 -15.484375 26.0625 -13.488281 26.0625 -11.25 C 26.0625 -9.019531 25.53125 -7.023438 24.46875 -5.265625 C 23.414062 -3.515625 21.953125 -2.144531 20.078125 -1.15625 C 18.210938 -0.164062 16.09375 0.328125 13.71875 0.328125 Z M 13.71875 -5.015625 C 15.394531 -5.015625 16.769531 -5.578125 17.84375 -6.703125 C 18.914062 -7.835938 19.453125 -9.351562 19.453125 -11.25 C 19.453125 -13.144531 18.914062 -14.65625 17.84375 -15.78125 C 16.769531 -16.914062 15.394531 -17.484375 13.71875 -17.484375 C 12.050781 -17.484375 10.671875 -16.914062 9.578125 -15.78125 C 8.492188 -14.65625 7.953125 -13.144531 7.953125 -11.25 C 7.953125 -9.351562 8.492188 -7.835938 9.578125 -6.703125 C 10.671875 -5.578125 12.050781 -5.015625 13.71875 -5.015625 Z M 13.71875 -5.015625 "/></g></g><g style="fill:#e17100;fill-opacity:1;"><g transform="translate(114.012676, 151.737975)"><path style="stroke:none" d="M 4.765625 -29.296875 L 16.703125 -29.296875 C 19.796875 -29.296875 22.523438 -28.671875 24.890625 -27.421875 C 27.265625 -26.179688 29.109375 -24.453125 30.421875 -22.234375 C 31.734375 -20.015625 32.390625 -17.484375 32.390625 -14.640625 C 32.390625 -11.796875 31.734375 -9.265625 30.421875 -7.046875 C 29.109375 -4.828125 27.265625 -3.097656 24.890625 -1.859375 C 22.523438 -0.617188 19.796875 0 16.703125 0 L 4.765625 0 Z M 16.53125 -2.671875 C 19.09375 -2.671875 21.335938 -3.179688 23.265625 -4.203125 C 25.191406 -5.222656 26.679688 -6.628906 27.734375 -8.421875 C 28.796875 -10.222656 29.328125 -12.296875 29.328125 -14.640625 C 29.328125 -16.984375 28.796875 -19.054688 27.734375 -20.859375 C 26.679688 -22.660156 25.191406 -24.066406 23.265625 -25.078125 C 21.335938 -26.097656 19.09375 -26.609375 16.53125 -26.609375 L 7.859375 -26.609375 L 7.859375 -2.671875 Z M 16.53125 -2.671875 "/></g></g><g style="fill:#e17100;fill-opacity:1;"><g transform="translate(148.573211, 151.737975)"><path style="stroke:none" d="M 4.140625 -22.015625 L 7.109375 -22.015625 L 7.109375 0 L 4.140625 0 Z M 5.65625 -26.828125 C 5.039062 -26.828125 4.519531 -27.035156 4.09375 -27.453125 C 3.675781 -27.867188 3.46875 -28.367188 3.46875 -28.953125 C 3.46875 -29.515625 3.675781 -30.003906 4.09375 -30.421875 C 4.519531 -30.835938 5.039062 -31.046875 5.65625 -31.046875 C 6.269531 -31.046875 6.785156 -30.84375 7.203125 -30.4375 C 7.617188 -30.03125 7.828125 -29.550781 7.828125 -29 C 7.828125 -28.382812 7.617188 -27.867188 7.203125 -27.453125 C 6.785156 -27.035156 6.269531 -26.828125 5.65625 -26.828125 Z M 5.65625 -26.828125 "/></g></g><g style="fill:#e17100;fill-opacity:1;"><g transform="translate(159.828391, 151.737975)"><path style="stroke:none" d="M 6.984375 -17.703125 C 7.679688 -19.179688 8.71875 -20.296875 10.09375 -21.046875 C 11.476562 -21.796875 13.191406 -22.171875 15.234375 -22.171875 L 15.234375 -19.296875 L 14.515625 -19.328125 C 12.203125 -19.328125 10.390625 -18.613281 9.078125 -17.1875 C 7.765625 -15.769531 7.109375 -13.78125 7.109375 -11.21875 L 7.109375 0 L 4.140625 0 L 4.140625 -22.015625 L 6.984375 -22.015625 Z M 6.984375 -17.703125 "/></g></g><g style="fill:#e17100;fill-opacity:1;"><g transform="translate(176.606569, 151.737975)"><path style="stroke:none" d="M 23.3125 -10.078125 L 4.890625 -10.078125 C 5.054688 -7.796875 5.9375 -5.945312 7.53125 -4.53125 C 9.125 -3.125 11.132812 -2.421875 13.5625 -2.421875 C 14.925781 -2.421875 16.175781 -2.664062 17.3125 -3.15625 C 18.457031 -3.644531 19.453125 -4.363281 20.296875 -5.3125 L 21.96875 -3.390625 C 20.988281 -2.210938 19.765625 -1.316406 18.296875 -0.703125 C 16.835938 -0.0976562 15.226562 0.203125 13.46875 0.203125 C 11.207031 0.203125 9.207031 -0.273438 7.46875 -1.234375 C 5.726562 -2.191406 4.367188 -3.519531 3.390625 -5.21875 C 2.410156 -6.925781 1.921875 -8.851562 1.921875 -11 C 1.921875 -13.15625 2.390625 -15.082031 3.328125 -16.78125 C 4.265625 -18.476562 5.546875 -19.800781 7.171875 -20.75 C 8.804688 -21.695312 10.640625 -22.171875 12.671875 -22.171875 C 14.710938 -22.171875 16.539062 -21.695312 18.15625 -20.75 C 19.78125 -19.800781 21.050781 -18.484375 21.96875 -16.796875 C 22.882812 -15.109375 23.34375 -13.175781 23.34375 -11 Z M 12.671875 -19.625 C 10.554688 -19.625 8.78125 -18.945312 7.34375 -17.59375 C 5.90625 -16.238281 5.085938 -14.472656 4.890625 -12.296875 L 20.5 -12.296875 C 20.300781 -14.472656 19.484375 -16.238281 18.046875 -17.59375 C 16.617188 -18.945312 14.828125 -19.625 12.671875 -19.625 Z M 12.671875 -19.625 "/></g></g><g style="fill:#e17100;fill-opacity:1;"><g transform="translate(201.878446, 151.737975)"><path style="stroke:none" d="M 4.140625 -22.015625 L 7.109375 -22.015625 L 7.109375 0 L 4.140625 0 Z M 5.65625 -26.828125 C 5.039062 -26.828125 4.519531 -27.035156 4.09375 -27.453125 C 3.675781 -27.867188 3.46875 -28.367188 3.46875 -28.953125 C 3.46875 -29.515625 3.675781 -30.003906 4.09375 -30.421875 C 4.519531 -30.835938 5.039062 -31.046875 5.65625 -31.046875 C 6.269531 -31.046875 6.785156 -30.84375 7.203125 -30.4375 C 7.617188 -30.03125 7.828125 -29.550781 7.828125 -29 C 7.828125 -28.382812 7.617188 -27.867188 7.203125 -27.453125 C 6.785156 -27.035156 6.269531 -26.828125 5.65625 -26.828125 Z M 5.65625 -26.828125 "/></g></g><g style="fill:#e17100;fill-opacity:1;"><g transform="translate(213.133627, 151.737975)"><path style="stroke:none" d="M 15.734375 -1.34375 C 15.171875 -0.832031 14.476562 -0.445312 13.65625 -0.1875 C 12.832031 0.0703125 11.976562 0.203125 11.09375 0.203125 C 9.019531 0.203125 7.425781 -0.351562 6.3125 -1.46875 C 5.195312 -2.582031 4.640625 -4.15625 4.640625 -6.1875 L 4.640625 -19.5 L 0.71875 -19.5 L 0.71875 -22.015625 L 4.640625 -22.015625 L 4.640625 -26.828125 L 7.609375 -26.828125 L 7.609375 -22.015625 L 14.3125 -22.015625 L 14.3125 -19.5 L 7.609375 -19.5 L 7.609375 -6.359375 C 7.609375 -5.046875 7.9375 -4.046875 8.59375 -3.359375 C 9.25 -2.679688 10.191406 -2.34375 11.421875 -2.34375 C 12.035156 -2.34375 12.628906 -2.4375 13.203125 -2.625 C 13.773438 -2.820312 14.269531 -3.101562 14.6875 -3.46875 Z M 15.734375 -1.34375 "/></g></g><g style="fill:#e17100;fill-opacity:1;"><g transform="translate(230.121007, 151.737975)"><path style="stroke:none" d="M 13.140625 0.203125 C 11.015625 0.203125 9.101562 -0.273438 7.40625 -1.234375 C 5.707031 -2.191406 4.367188 -3.519531 3.390625 -5.21875 C 2.410156 -6.925781 1.921875 -8.851562 1.921875 -11 C 1.921875 -13.15625 2.410156 -15.082031 3.390625 -16.78125 C 4.367188 -18.476562 5.707031 -19.800781 7.40625 -20.75 C 9.101562 -21.695312 11.015625 -22.171875 13.140625 -22.171875 C 15.253906 -22.171875 17.160156 -21.695312 18.859375 -20.75 C 20.566406 -19.800781 21.898438 -18.476562 22.859375 -16.78125 C 23.828125 -15.082031 24.3125 -13.15625 24.3125 -11 C 24.3125 -8.851562 23.828125 -6.925781 22.859375 -5.21875 C 21.898438 -3.519531 20.566406 -2.191406 18.859375 -1.234375 C 17.160156 -0.273438 15.253906 0.203125 13.140625 0.203125 Z M 13.140625 -2.421875 C 14.703125 -2.421875 16.101562 -2.773438 17.34375 -3.484375 C 18.582031 -4.203125 19.550781 -5.21875 20.25 -6.53125 C 20.945312 -7.84375 21.296875 -9.332031 21.296875 -11 C 21.296875 -12.675781 20.945312 -14.171875 20.25 -15.484375 C 19.550781 -16.796875 18.582031 -17.804688 17.34375 -18.515625 C 16.101562 -19.222656 14.703125 -19.578125 13.140625 -19.578125 C 11.578125 -19.578125 10.175781 -19.222656 8.9375 -18.515625 C 7.695312 -17.804688 6.71875 -16.796875 6 -15.484375 C 5.289062 -14.171875 4.9375 -12.675781 4.9375 -11 C 4.9375 -9.332031 5.289062 -7.84375 6 -6.53125 C 6.71875 -5.21875 7.695312 -4.203125 8.9375 -3.484375 C 10.175781 -2.773438 11.578125 -2.421875 13.140625 -2.421875 Z M 13.140625 -2.421875 "/></g></g><g clip-rule="nonzero" clip-path="url(#01dae05b57)"><path style=" stroke:none;fill-rule:nonzero;fill:#fef3c6;fill-opacity:1;" d="M 66.9375 197.222656 L 18.375 201.699219 L 1.730469 188.609375 C 1.574219 188.570312 1.585938 188.34375 1.746094 188.320312 C 4.5 187.964844 26.558594 186.367188 26.921875 186.34375 C 27.34375 186.3125 66.9375 197.222656 66.9375 197.222656 "/></g><g clip-rule="nonzero" clip-path="url(#0d2b99d28d)"><path style=" stroke:none;fill-rule:nonzero;fill:#c6c6c6;fill-opacity:1;" d="M 2.507812 185.019531 L 2.625 188.3125 L 19.4375 201.492188 L 20.667969 200.058594 L 22.234375 197.964844 L 2.507812 185.019531 "/></g><g clip-rule="nonzero" clip-path="url(#68ffa59868)"><path style=" stroke:none;fill-rule:nonzero;fill:#fef3c6;fill-opacity:1;" d="M 1.636719 184.875 L 67.199219 187.832031 L 86.722656 193.675781 C 87.207031 193.820312 87.570312 194.574219 87.605469 195.078125 L 87.652344 195.96875 C 87.695312 196.632812 87.191406 197.210938 86.523438 197.25 L 18.375 201.699219 C 18.375 201.699219 19.816406 201.148438 19.355469 199.359375 C 19.257812 198.988281 18.820312 198.558594 18.820312 198.558594 C 18.820312 198.558594 4.726562 186.046875 1.609375 185.160156 C 1.449219 185.117188 1.46875 184.886719 1.636719 184.875 "/></g><path style=" stroke:none;fill-rule:nonzero;fill:#161515;fill-opacity:1;" d="M 70.8125 193.484375 L 22.25 197.964844 L 5.34375 184.824219 C 5.128906 184.695312 5.199219 184.558594 5.359375 184.539062 C 8.113281 184.179688 30.433594 182.628906 30.796875 182.605469 C 31.222656 182.578125 70.8125 193.484375 70.8125 193.484375 "/><path style=" stroke:none;fill-rule:nonzero;fill:#c6c6c6;fill-opacity:1;" d="M 6.382812 181.28125 L 6.5 184.578125 L 23.3125 197.753906 L 24.542969 196.320312 L 26.109375 194.226562 L 6.382812 181.28125 "/><path style=" stroke:none;fill-rule:nonzero;fill:#161515;fill-opacity:1;" d="M 5.617188 180.617188 L 71.074219 184.09375 L 90.597656 189.941406 C 91.082031 190.082031 91.445312 190.835938 91.480469 191.339844 L 91.527344 192.230469 C 91.570312 192.898438 91.066406 193.472656 90.398438 193.511719 L 22.25 197.964844 C 22.25 197.964844 23.691406 197.414062 23.230469 195.621094 C 23.132812 195.25 22.695312 194.824219 22.695312 194.824219 C 22.695312 194.824219 8.210938 182.082031 5.46875 180.957031 C 5.3125 180.894531 5.449219 180.628906 5.617188 180.617188 "/><path style=" stroke:none;fill-rule:nonzero;fill:#e17100;fill-opacity:1;" d="M 22.515625 193.703125 L 7.113281 180.542969 C 6.632812 180.136719 6.835938 179.800781 7.152344 179.789062 L 70.746094 180.003906 L 91.359375 188.410156 L 22.515625 193.703125 "/><path style=" stroke:none;fill-rule:nonzero;fill:#c6c6c6;fill-opacity:1;" d="M 8.804688 169.152344 C 9.800781 173.648438 9.253906 179.488281 8.328125 180.46875 C 8.328125 180.46875 20.386719 190.207031 23.523438 192.992188 L 25.886719 181.355469 L 8.804688 169.152344 "/><path style=" stroke:none;fill-rule:nonzero;fill:#e17100;fill-opacity:1;" d="M 8.292969 169.347656 L 22.335938 181.5 C 22.414062 181.550781 22.488281 181.605469 22.523438 181.683594 C 23.832031 184.765625 23.65625 186.726562 23.730469 188.488281 C 23.875 192.292969 21.964844 193.285156 21.964844 193.285156 L 22.605469 193.832031 L 91.53125 189.269531 C 93.148438 189.234375 93.164062 188.675781 93.289062 187.816406 C 93.410156 186.996094 94.660156 177.800781 92.996094 176.59375 C 92.195312 176.015625 67.910156 168.082031 67.878906 168.082031 L 8.296875 168.371094 C 7.9375 168.414062 7.941406 169.277344 8.292969 169.347656 "/><path style=" stroke:none;fill-rule:nonzero;fill:#fef3c6;fill-opacity:1;" d="M 83.421875 181.445312 L 97.34375 169.78125 C 98.039062 169.144531 97.476562 169.042969 96.792969 169.070312 L 36.402344 169.570312 L 16.136719 176.054688 L 83.421875 181.445312 "/><path style=" stroke:none;fill-rule:nonzero;fill:#c6c6c6;fill-opacity:1;" d="M 97 161.449219 C 95.960938 165.03125 95.769531 168.460938 96.660156 169.253906 C 96.660156 169.253906 84.285156 180.324219 81.527344 181.058594 L 80.046875 170.917969 L 97 161.449219 "/><path style=" stroke:none;fill-rule:nonzero;fill:#fef3c6;fill-opacity:1;" d="M 97.160156 161.554688 L 83.710938 171.148438 C 83.636719 171.1875 83.5625 171.230469 83.527344 171.292969 C 82.203125 173.742188 82.347656 175.3125 82.246094 176.71875 C 82.050781 179.757812 83.765625 180.738281 83.765625 180.738281 L 83.320312 181.304688 L 16.542969 177.652344 C 14.960938 177.601562 14.953125 177.15625 14.84375 176.46875 C 14.738281 175.808594 13.652344 168.546875 15.296875 167.601562 C 16.085938 167.148438 31.125 160.59375 31.152344 160.59375 L 97.210938 160.871094 C 97.558594 160.910156 97.503906 161.503906 97.160156 161.554688 "/><path style=" stroke:none;fill-rule:nonzero;fill:#e17100;fill-opacity:1;" d="M 22.441406 171.351562 C 21.628906 171.351562 20.96875 172.011719 20.96875 172.824219 C 20.96875 173.636719 21.628906 174.296875 22.441406 174.296875 C 23.253906 174.296875 23.914062 173.636719 23.914062 172.824219 C 23.914062 172.011719 23.253906 171.351562 22.441406 171.351562 Z M 77.519531 174.613281 C 76.707031 174.613281 76.046875 175.273438 76.046875 176.085938 C 76.046875 176.898438 76.707031 177.558594 77.519531 177.558594 C 78.332031 177.558594 78.992188 176.898438 78.992188 176.085938 C 78.992188 175.273438 78.332031 174.613281 77.519531 174.613281 Z M 26.269531 172.144531 C 26.269531 172.363281 26.441406 172.550781 26.664062 172.5625 L 73.585938 175.402344 C 73.816406 175.414062 74.015625 175.238281 74.03125 175.007812 C 74.042969 174.777344 73.867188 174.578125 73.636719 174.5625 L 26.714844 171.722656 C 26.484375 171.710938 26.285156 171.886719 26.269531 172.117188 C 26.269531 172.125 26.269531 172.136719 26.269531 172.144531 Z M 26.269531 173.640625 C 26.285156 173.410156 26.484375 173.234375 26.714844 173.246094 L 73.636719 176.085938 C 73.867188 176.101562 74.042969 176.304688 74.03125 176.53125 C 74.015625 176.765625 73.816406 176.941406 73.585938 176.925781 L 26.664062 174.085938 C 26.441406 174.074219 26.269531 173.886719 26.269531 173.667969 C 26.269531 173.660156 26.269531 173.652344 26.269531 173.640625 "/><path style=" stroke:none;fill-rule:nonzero;fill:#161515;fill-opacity:1;" d="M 81.683594 170.632812 L 96.296875 159.132812 C 96.601562 159.082031 96.582031 158.578125 96.269531 158.566406 L 34.660156 159.546875 L 14.394531 165.597656 L 81.683594 170.632812 "/><path style=" stroke:none;fill-rule:nonzero;fill:#c6c6c6;fill-opacity:1;" d="M 95.152344 151.472656 C 94.113281 154.8125 94.261719 158.167969 95.152344 158.90625 C 95.152344 158.90625 82.542969 169.585938 79.785156 170.273438 L 78.304688 160.804688 L 95.152344 151.472656 "/><path style=" stroke:none;fill-rule:nonzero;fill:#161515;fill-opacity:1;" d="M 95.390625 151.40625 L 82.125 161.4375 C 82.050781 161.472656 81.976562 161.511719 81.941406 161.570312 C 80.617188 163.855469 80.761719 165.320312 80.660156 166.632812 C 80.464844 169.472656 82.132812 170.316406 82.132812 170.316406 L 81.683594 170.632812 L 14.386719 167.09375 C 12.804688 167.046875 12.796875 166.628906 12.6875 165.988281 C 12.582031 165.375 11.257812 157.761719 12.902344 156.878906 C 13.691406 156.457031 27.699219 151.359375 36.679688 150.675781 L 95.402344 150.675781 C 95.75 150.710938 95.734375 151.355469 95.390625 151.40625 "/><path style=" stroke:none;fill-rule:nonzero;fill:#1d4ed8;fill-opacity:1;" d="M 75.015625 161.308594 C 74.707031 162.9375 74.519531 164.65625 74.519531 166.300781 C 74.519531 167.53125 74.625 168.71875 74.863281 169.796875 C 74.871094 169.835938 74.910156 169.863281 74.957031 169.867188 L 75.96875 169.925781 C 76.035156 169.929688 76.085938 169.878906 76.074219 169.824219 C 75.488281 167.390625 75.660156 164.234375 76.203125 161.378906 C 76.214844 161.324219 76.167969 161.28125 76.109375 161.277344 L 75.121094 161.238281 C 75.070312 161.234375 75.023438 161.265625 75.015625 161.308594 Z M 70.503906 161.113281 C 69.945312 162.878906 69.78125 164.367188 69.78125 166.121094 C 69.78125 167.328125 69.832031 168.414062 70.125 169.53125 C 70.132812 169.570312 70.175781 169.597656 70.21875 169.597656 L 73.414062 169.78125 C 73.480469 169.785156 73.535156 169.730469 73.519531 169.675781 C 72.878906 167.476562 72.867188 164.472656 73.726562 161.28125 C 73.738281 161.226562 73.695312 161.175781 73.632812 161.175781 L 70.609375 161.046875 C 70.558594 161.046875 70.515625 161.074219 70.503906 161.113281 Z M 67.789062 160.929688 L 68.773438 160.972656 C 68.835938 160.976562 68.878906 161.019531 68.871094 161.070312 C 68.328125 163.867188 68.132812 166.96875 68.660156 169.402344 C 68.671875 169.460938 68.617188 169.507812 68.550781 169.503906 L 67.550781 169.449219 C 67.5 169.445312 67.460938 169.414062 67.453125 169.375 C 67.253906 168.363281 67.160156 167.261719 67.160156 166.121094 C 67.160156 164.433594 67.359375 162.671875 67.679688 161.003906 C 67.691406 160.960938 67.734375 160.929688 67.789062 160.929688 "/><path style=" stroke:none;fill-rule:nonzero;fill:#e17100;fill-opacity:1;" d="M 85.378906 161.773438 L 100.78125 148.613281 C 101.09375 148.546875 101.058594 147.871094 100.742188 147.859375 L 37.148438 148.074219 L 16.535156 156.480469 L 85.378906 161.773438 "/><path style=" stroke:none;fill-rule:nonzero;fill:#c6c6c6;fill-opacity:1;" d="M 99.089844 137.222656 C 98.09375 141.71875 98.640625 147.558594 99.566406 148.539062 C 99.566406 148.539062 87.507812 158.277344 84.371094 161.0625 L 82.007812 149.425781 L 99.089844 137.222656 "/><path style=" stroke:none;fill-rule:nonzero;fill:#e17100;fill-opacity:1;" d="M 99.601562 137.417969 L 85.558594 149.570312 C 85.480469 149.621094 85.40625 149.675781 85.371094 149.753906 C 84.0625 152.835938 84.238281 154.800781 84.164062 156.558594 C 84.019531 160.367188 85.929688 161.355469 85.929688 161.355469 L 85.289062 161.902344 L 16.367188 158.15625 C 14.746094 158.117188 14.730469 157.558594 14.605469 156.703125 C 14.484375 155.878906 13.3125 145.179688 14.976562 143.972656 C 15.773438 143.394531 38.992188 139.753906 39.019531 139.753906 L 99.597656 136.441406 C 99.953125 136.484375 99.953125 137.347656 99.601562 137.417969 "/><path style=" stroke:none;fill-rule:nonzero;fill:#fef3c6;fill-opacity:1;" d="M 36.261719 150.8125 C 36.164062 151.929688 36.164062 153.0625 36.261719 154.183594 C 36.308594 154.761719 36.730469 155.230469 37.15625 155.230469 C 37.207031 155.230469 37.257812 155.230469 37.308594 155.230469 C 37.738281 155.230469 38.015625 154.761719 37.96875 154.183594 C 37.871094 153.0625 37.871094 151.929688 37.96875 150.8125 C 38.015625 150.234375 37.738281 149.765625 37.308594 149.765625 C 37.257812 149.765625 37.207031 149.765625 37.15625 149.765625 C 36.730469 149.765625 36.308594 150.234375 36.261719 150.8125 Z M 39.011719 150.949219 C 38.917969 152.070312 38.917969 153.203125 39.011719 154.324219 C 39.0625 154.902344 39.480469 155.371094 39.90625 155.371094 C 39.957031 155.371094 40.011719 155.371094 40.0625 155.371094 C 40.488281 155.371094 40.765625 154.902344 40.71875 154.324219 C 40.621094 153.203125 40.621094 152.070312 40.71875 150.949219 C 40.765625 150.375 40.488281 149.90625 40.0625 149.90625 C 40.011719 149.90625 39.957031 149.90625 39.90625 149.90625 C 39.480469 149.90625 39.0625 150.375 39.011719 150.949219 Z M 42.054688 151.160156 C 41.960938 152.28125 41.960938 153.414062 42.054688 154.535156 C 42.105469 155.113281 42.523438 155.582031 42.949219 155.582031 C 43 155.582031 43.054688 155.582031 43.105469 155.582031 C 43.53125 155.582031 43.8125 155.113281 43.761719 154.535156 C 43.664062 153.414062 43.664062 152.28125 43.761719 151.160156 C 43.8125 150.582031 43.53125 150.113281 43.105469 150.117188 C 43.054688 150.117188 43 150.117188 42.949219 150.117188 C 42.523438 150.117188 42.105469 150.585938 42.054688 151.160156 Z M 44.808594 151.300781 C 44.710938 152.421875 44.710938 153.554688 44.808594 154.675781 C 44.859375 155.253906 45.277344 155.722656 45.703125 155.722656 C 45.753906 155.722656 45.804688 155.722656 45.859375 155.722656 C 46.285156 155.722656 46.5625 155.253906 46.515625 154.675781 C 46.417969 153.554688 46.417969 152.421875 46.515625 151.300781 C 46.5625 150.722656 46.285156 150.253906 45.859375 150.253906 C 45.804688 150.253906 45.753906 150.253906 45.703125 150.253906 C 45.277344 150.253906 44.859375 150.722656 44.808594 151.300781 Z M 52.132812 151.582031 C 52.035156 152.703125 52.035156 153.835938 52.132812 154.957031 C 52.183594 155.53125 52.601562 156 53.027344 156 C 53.078125 156 53.128906 156 53.179688 156 C 53.609375 156 53.886719 155.535156 53.839844 154.957031 C 53.742188 153.835938 53.742188 152.703125 53.839844 151.582031 C 53.886719 151.003906 53.609375 150.535156 53.179688 150.535156 C 53.128906 150.535156 53.078125 150.535156 53.027344 150.535156 C 52.601562 150.535156 52.183594 151.003906 52.132812 151.582031 Z M 54.886719 151.722656 C 54.789062 152.84375 54.789062 153.976562 54.886719 155.09375 C 54.933594 155.671875 55.351562 156.140625 55.777344 156.140625 C 55.832031 156.140625 55.882812 156.140625 55.933594 156.140625 C 56.359375 156.140625 56.640625 155.671875 56.589844 155.09375 C 56.496094 153.976562 56.496094 152.84375 56.589844 151.722656 C 56.640625 151.144531 56.359375 150.675781 55.933594 150.675781 C 55.882812 150.675781 55.832031 150.675781 55.777344 150.675781 C 55.351562 150.675781 54.933594 151.144531 54.886719 151.722656 Z M 57.929688 151.933594 C 57.832031 153.054688 57.832031 154.183594 57.929688 155.304688 C 57.976562 155.882812 58.394531 156.351562 58.820312 156.351562 C 58.875 156.351562 58.925781 156.351562 58.976562 156.351562 C 59.402344 156.351562 59.683594 155.882812 59.632812 155.304688 C 59.539062 154.183594 59.539062 153.054688 59.632812 151.933594 C 59.683594 151.355469 59.402344 150.886719 58.976562 150.886719 C 58.925781 150.886719 58.875 150.886719 58.820312 150.886719 C 58.394531 150.886719 57.976562 151.355469 57.929688 151.933594 Z M 60.679688 152.074219 C 60.585938 153.191406 60.585938 154.324219 60.679688 155.445312 C 60.730469 156.023438 61.148438 156.492188 61.574219 156.492188 C 61.625 156.492188 61.675781 156.492188 61.730469 156.492188 C 62.15625 156.492188 62.433594 156.023438 62.386719 155.445312 C 62.289062 154.324219 62.289062 153.191406 62.386719 152.074219 C 62.433594 151.496094 62.15625 151.027344 61.730469 151.027344 C 61.675781 151.027344 61.625 151.027344 61.574219 151.027344 C 61.148438 151.027344 60.730469 151.496094 60.679688 152.074219 Z M 20.648438 152.042969 C 20.648438 152.09375 20.652344 152.144531 20.660156 152.195312 C 20.699219 152.484375 20.84375 152.707031 20.957031 152.886719 L 23.847656 156.640625 C 23.972656 156.835938 24.230469 156.894531 24.425781 156.769531 C 24.625 156.644531 24.679688 156.382812 24.554688 156.1875 L 22.183594 152.484375 C 22.105469 152.359375 22.023438 152.230469 22.007812 152.128906 C 21.988281 151.972656 22.097656 151.769531 22.214844 151.570312 C 23.144531 149.980469 24.1875 148.4375 25.3125 146.980469 C 25.453125 146.796875 25.417969 146.53125 25.234375 146.390625 C 25.050781 146.25 24.789062 146.28125 24.644531 146.464844 C 23.5 147.949219 21.921875 149.476562 20.972656 151.097656 C 20.847656 151.308594 20.648438 151.652344 20.648438 152.042969 Z M 24.921875 152.460938 C 24.921875 152.511719 24.925781 152.566406 24.933594 152.617188 C 24.972656 152.902344 25.117188 153.128906 25.234375 153.308594 L 28.121094 157.0625 C 28.246094 157.257812 28.507812 157.316406 28.703125 157.191406 C 28.898438 157.066406 28.953125 156.804688 28.828125 156.609375 L 26.457031 152.902344 C 26.378906 152.78125 26.296875 152.652344 26.28125 152.546875 C 26.261719 152.394531 26.371094 152.1875 26.488281 151.988281 C 27.417969 150.402344 28.460938 148.855469 29.585938 147.398438 C 29.726562 147.21875 29.695312 146.953125 29.507812 146.8125 C 29.324219 146.667969 29.0625 146.703125 28.917969 146.886719 C 27.773438 148.371094 26.195312 149.898438 25.246094 151.519531 C 25.121094 151.730469 24.921875 152.070312 24.921875 152.460938 Z M 28.777344 152.460938 C 28.777344 152.511719 28.78125 152.566406 28.789062 152.617188 C 28.828125 152.902344 28.972656 153.128906 29.085938 153.308594 L 31.976562 157.0625 C 32.101562 157.257812 32.359375 157.316406 32.554688 157.191406 C 32.75 157.066406 32.808594 156.804688 32.683594 156.609375 L 30.3125 152.902344 C 30.234375 152.78125 30.152344 152.652344 30.136719 152.546875 C 30.117188 152.394531 30.226562 152.1875 30.34375 151.988281 C 31.273438 150.402344 32.316406 148.855469 33.441406 147.398438 C 33.582031 147.21875 33.546875 146.953125 33.363281 146.8125 C 33.179688 146.667969 32.914062 146.703125 32.773438 146.886719 C 31.628906 148.371094 30.050781 149.898438 29.101562 151.519531 C 28.976562 151.730469 28.777344 152.070312 28.777344 152.460938 Z M 67.84375 154.582031 C 67.84375 154.632812 67.847656 154.683594 67.855469 154.738281 C 67.894531 155.023438 68.039062 155.246094 68.152344 155.429688 L 71.042969 159.183594 C 71.167969 159.378906 71.425781 159.433594 71.621094 159.308594 C 71.816406 159.183594 71.875 158.925781 71.75 158.730469 L 69.378906 155.023438 C 69.300781 154.898438 69.21875 154.773438 69.203125 154.667969 C 69.183594 154.511719 69.292969 154.308594 69.410156 154.109375 C 70.339844 152.519531 71.382812 150.976562 72.507812 149.519531 C 72.648438 149.335938 72.613281 149.074219 72.429688 148.929688 C 72.246094 148.789062 71.980469 148.824219 71.839844 149.007812 C 70.695312 150.492188 69.113281 152.019531 68.167969 153.636719 C 68.042969 153.851562 67.84375 154.191406 67.84375 154.582031 Z M 72.117188 155.003906 C 72.117188 155.054688 72.121094 155.105469 72.128906 155.15625 C 72.167969 155.441406 72.3125 155.667969 72.429688 155.847656 L 75.316406 159.601562 C 75.441406 159.796875 75.703125 159.855469 75.898438 159.730469 C 76.09375 159.605469 76.148438 159.34375 76.023438 159.148438 L 73.652344 155.441406 C 73.574219 155.320312 73.492188 155.191406 73.476562 155.089844 C 73.457031 154.933594 73.566406 154.730469 73.683594 154.53125 C 74.613281 152.941406 75.65625 151.398438 76.78125 149.941406 C 76.921875 149.757812 76.886719 149.492188 76.703125 149.351562 C 76.519531 149.210938 76.257812 149.242188 76.113281 149.425781 C 74.96875 150.910156 73.390625 152.4375 72.441406 154.058594 C 72.316406 154.269531 72.117188 154.613281 72.117188 155.003906 Z M 76.296875 154.058594 C 77.246094 152.4375 78.824219 150.910156 79.96875 149.425781 C 80.109375 149.242188 80.375 149.210938 80.558594 149.351562 C 80.742188 149.492188 80.777344 149.757812 80.632812 149.941406 C 79.507812 151.398438 78.46875 152.941406 77.539062 154.53125 C 77.421875 154.730469 77.3125 154.933594 77.332031 155.089844 C 77.347656 155.191406 77.429688 155.320312 77.507812 155.441406 L 79.878906 159.148438 C 80.003906 159.34375 79.945312 159.605469 79.75 159.730469 C 79.554688 159.855469 79.296875 159.796875 79.171875 159.601562 L 76.28125 155.847656 C 76.167969 155.667969 76.023438 155.441406 75.984375 155.15625 C 75.976562 155.105469 75.972656 155.054688 75.972656 155.003906 C 75.972656 154.613281 76.171875 154.269531 76.296875 154.058594 "/><path style=" stroke:none;fill-rule:nonzero;fill:#1d4ed8;fill-opacity:1;" d="M 78.953125 148.992188 L 94.164062 136.421875 C 94.46875 136.351562 94.449219 135.636719 94.136719 135.621094 L 31.933594 133.273438 L 11.664062 141.855469 L 78.953125 148.992188 "/><path style=" stroke:none;fill-rule:nonzero;fill:#c6c6c6;fill-opacity:1;" d="M 92.761719 125.648438 C 91.722656 130.390625 92.128906 135.054688 93.023438 136.101562 C 93.023438 136.101562 79.8125 147.507812 77.054688 148.480469 L 75.574219 135.058594 L 92.761719 125.648438 "/><g clip-rule="nonzero" clip-path="url(#574df66336)"><path style=" stroke:none;fill-rule:nonzero;fill:#1d4ed8;fill-opacity:1;" d="M 93.441406 125.351562 L 79.164062 135.09375 C 79.085938 135.144531 79.011719 135.199219 78.980469 135.285156 C 77.652344 138.523438 77.859375 141.140625 77.761719 143 C 77.5625 147.023438 79.277344 148.316406 79.277344 148.316406 L 78.78125 148.671875 L 11.484375 144.242188 C 9.90625 144.175781 9.671875 143.472656 9.5625 142.566406 C 9.457031 141.691406 8.75 131.195312 10.394531 129.945312 C 11.183594 129.34375 23.601562 123.441406 27.601562 123.152344 L 93.558594 124.378906 C 93.90625 124.429688 93.765625 125.183594 93.441406 125.351562 "/></g><path style=" stroke:none;fill-rule:nonzero;fill:#c6c6c6;fill-opacity:1;" d="M 40.183594 141.980469 C 41.445312 143.460938 43.363281 144.324219 45.304688 144.292969 C 45.515625 144.289062 45.746094 144.269531 45.875 144.144531 C 45.949219 144.078125 45.984375 144 45.984375 143.910156 C 45.984375 143.890625 45.980469 143.875 45.976562 143.851562 C 45.929688 143.519531 45.523438 143.125 45.152344 142.933594 C 43.128906 141.886719 41.34375 141.273438 39.433594 140.972656 C 39.671875 141.324219 39.917969 141.671875 40.183594 141.980469 Z M 48.980469 140.558594 C 48.992188 140.554688 49.003906 140.550781 49.015625 140.546875 C 49.039062 140.546875 49.0625 140.546875 49.085938 140.546875 C 49.921875 140.476562 50.753906 140.324219 51.566406 140.085938 C 52.101562 139.925781 52.710938 139.707031 53.164062 139.285156 C 53.523438 138.949219 53.726562 138.507812 53.726562 138.097656 C 53.726562 137.988281 53.710938 137.882812 53.683594 137.78125 C 53.480469 137.070312 52.613281 136.730469 51.925781 136.828125 C 51.136719 136.9375 50.464844 137.472656 49.914062 137.980469 C 48.769531 139.03125 46.921875 140.023438 45.339844 140.320312 C 46.535156 140.570312 47.765625 140.648438 48.980469 140.558594 Z M 60.667969 144.300781 L 60.738281 144.3125 C 61.667969 144.496094 63.074219 144.769531 64.40625 144.234375 C 65.136719 143.9375 65.835938 143.191406 65.835938 142.402344 C 65.835938 142.347656 65.832031 142.292969 65.828125 142.238281 C 65.796875 142.011719 65.679688 141.835938 65.460938 141.691406 C 64.859375 141.292969 63.742188 141.320312 63.394531 141.417969 C 62.609375 141.640625 61.859375 141.890625 61.136719 142.136719 C 59.808594 142.582031 58.542969 143.007812 57.316406 143.152344 C 58.394531 143.628906 59.507812 144.074219 60.667969 144.300781 Z M 39.226562 137.597656 C 39.816406 137.769531 40.332031 138.105469 40.828125 138.429688 C 40.9375 138.503906 41.050781 138.574219 41.164062 138.648438 C 42.035156 139.195312 42.976562 139.632812 43.953125 139.953125 C 45.53125 140.238281 48.207031 138.980469 49.628906 137.671875 C 50.230469 137.117188 50.964844 136.535156 51.867188 136.410156 C 52.75 136.289062 53.820312 136.722656 54.085938 137.667969 C 54.269531 138.308594 54.015625 139.0625 53.449219 139.589844 C 52.933594 140.074219 52.269531 140.3125 51.683594 140.488281 C 51.386719 140.574219 51.089844 140.648438 50.789062 140.714844 C 51.910156 140.910156 53.105469 141.25 53.816406 141.574219 L 56.5 142.785156 C 57.910156 142.777344 59.34375 142.292969 61 141.738281 C 61.730469 141.492188 62.484375 141.238281 63.28125 141.011719 C 63.664062 140.902344 64.9375 140.84375 65.691406 141.339844 C 66.011719 141.550781 66.199219 141.835938 66.242188 142.183594 C 66.378906 143.273438 65.480469 144.253906 64.5625 144.625 C 63.117188 145.207031 61.636719 144.917969 60.660156 144.726562 L 60.589844 144.714844 C 59.101562 144.425781 57.714844 143.796875 56.371094 143.191406 C 56.367188 143.1875 56.367188 143.1875 56.363281 143.1875 L 53.640625 141.957031 C 52.59375 141.480469 50.347656 140.941406 49.082031 140.96875 C 46.25 141.199219 43.34375 140.519531 40.9375 139.003906 C 40.824219 138.929688 40.710938 138.855469 40.597656 138.78125 C 40.105469 138.460938 39.636719 138.15625 39.105469 138 C 38.195312 137.730469 37.207031 137.660156 36.355469 137.78125 C 37.617188 138.257812 38.382812 139.394531 39.117188 140.503906 C 41.222656 140.785156 43.144531 141.421875 45.347656 142.5625 C 45.816406 142.804688 46.324219 143.304688 46.394531 143.792969 C 46.429688 144.046875 46.351562 144.273438 46.164062 144.449219 C 45.929688 144.675781 45.601562 144.710938 45.3125 144.714844 C 43.246094 144.746094 41.207031 143.824219 39.863281 142.253906 C 39.484375 141.808594 39.148438 141.308594 38.824219 140.820312 C 38.820312 140.816406 38.820312 140.8125 38.816406 140.8125 C 38.808594 140.796875 38.796875 140.78125 38.789062 140.765625 C 38.046875 139.644531 37.34375 138.585938 36.179688 138.160156 C 34.886719 137.6875 33.476562 138.191406 32.113281 138.675781 C 31.75 138.804688 31.371094 138.9375 31.003906 139.050781 C 28.371094 139.863281 25.425781 139.664062 22.921875 138.503906 C 22.847656 138.46875 22.800781 138.394531 22.800781 138.3125 C 22.800781 138.285156 22.808594 138.253906 22.820312 138.226562 C 22.871094 138.121094 22.996094 138.074219 23.101562 138.121094 C 25.507812 139.238281 28.34375 139.429688 30.878906 138.648438 C 31.238281 138.539062 31.613281 138.40625 31.972656 138.277344 C 33.109375 137.875 34.273438 137.460938 35.421875 137.566406 C 36.6875 137.136719 38.210938 137.296875 39.226562 137.597656 Z M 44.605469 137.777344 C 44.960938 137.84375 45.363281 137.730469 45.683594 137.476562 C 45.996094 137.226562 46.1875 136.878906 46.199219 136.523438 C 46.203125 136.511719 46.203125 136.496094 46.203125 136.480469 C 46.203125 136.136719 46.03125 135.78125 45.734375 135.523438 C 45.433594 135.257812 45.058594 135.140625 44.710938 135.199219 C 44.285156 135.277344 43.8125 135.660156 43.5625 136.132812 C 43.386719 136.472656 43.355469 136.792969 43.46875 137.042969 C 43.574219 137.269531 44.078125 137.675781 44.605469 137.777344 Z M 42.980469 136.722656 C 42.980469 136.472656 43.050781 136.207031 43.191406 135.9375 C 43.5 135.347656 44.082031 134.882812 44.636719 134.785156 C 45.113281 134.703125 45.613281 134.855469 46.011719 135.207031 C 46.414062 135.558594 46.640625 136.054688 46.621094 136.542969 C 46.601562 137.019531 46.355469 137.480469 45.941406 137.804688 C 45.523438 138.140625 45.007812 138.277344 44.527344 138.1875 C 43.886719 138.070312 43.253906 137.582031 43.089844 137.21875 C 43.015625 137.066406 42.980469 136.898438 42.980469 136.722656 Z M 60.933594 139.261719 C 61.722656 139.191406 62.40625 138.46875 62.429688 137.679688 C 62.429688 137.664062 62.429688 137.652344 62.429688 137.636719 C 62.429688 136.863281 61.796875 136.125 61.027344 136.015625 C 60.78125 135.980469 60.429688 135.972656 60.132812 136.128906 C 59.226562 136.613281 59.207031 137.445312 59.195312 138.003906 C 59.1875 138.347656 59.390625 138.617188 59.5625 138.777344 C 59.914062 139.105469 60.464844 139.300781 60.933594 139.261719 Z M 58.777344 138.015625 C 58.777344 138.007812 58.777344 138 58.777344 137.988281 C 58.789062 137.417969 58.8125 136.355469 59.933594 135.757812 C 60.332031 135.546875 60.78125 135.554688 61.085938 135.597656 C 62.085938 135.742188 62.878906 136.671875 62.847656 137.691406 C 62.820312 138.703125 61.976562 139.59375 60.96875 139.679688 C 60.378906 139.730469 59.714844 139.496094 59.273438 139.082031 C 58.953125 138.78125 58.777344 138.40625 58.777344 138.015625 Z M 33.957031 142.101562 C 34.480469 142.199219 34.988281 141.984375 35.347656 141.515625 C 35.433594 141.402344 35.550781 141.039062 35.550781 140.882812 C 35.550781 140.878906 35.550781 140.878906 35.550781 140.878906 C 35.550781 140.5625 35.375 140.34375 35.222656 140.214844 C 34.925781 139.957031 34.46875 139.832031 34.0625 139.894531 C 33.742188 139.945312 33.445312 140.152344 33.25 140.460938 C 33.050781 140.773438 32.992188 141.132812 33.085938 141.449219 C 33.179688 141.757812 33.539062 142.023438 33.957031 142.101562 Z M 32.621094 141.140625 C 32.621094 140.835938 32.714844 140.519531 32.890625 140.238281 C 33.152344 139.824219 33.558594 139.546875 34 139.480469 C 34.53125 139.394531 35.105469 139.554688 35.5 139.894531 C 35.804688 140.15625 35.972656 140.507812 35.972656 140.878906 C 35.972656 140.878906 35.972656 140.882812 35.972656 140.882812 C 35.96875 141.109375 35.832031 141.574219 35.679688 141.773438 C 35.222656 142.371094 34.566406 142.640625 33.882812 142.515625 C 33.304688 142.410156 32.824219 142.03125 32.683594 141.570312 C 32.644531 141.429688 32.621094 141.289062 32.621094 141.140625 Z M 52.082031 144.5 C 52.449219 144.171875 52.558594 143.625 52.476562 143.277344 C 52.414062 143.027344 52.144531 142.894531 51.992188 142.839844 C 51.507812 142.664062 50.847656 142.71875 50.523438 142.960938 C 50.230469 143.175781 50.0625 143.636719 50.121094 144.054688 C 50.144531 144.21875 50.222656 144.503906 50.5 144.609375 C 51.171875 144.859375 51.71875 144.820312 52.082031 144.5 Z M 49.707031 144.113281 C 49.695312 144.039062 49.691406 143.960938 49.691406 143.886719 C 49.691406 143.386719 49.914062 142.886719 50.269531 142.625 C 50.714844 142.296875 51.515625 142.21875 52.132812 142.441406 C 52.539062 142.589844 52.804688 142.851562 52.882812 143.179688 C 53 143.660156 52.855469 144.375 52.359375 144.8125 C 52.019531 145.117188 51.394531 145.390625 50.351562 145.003906 C 50.003906 144.871094 49.765625 144.546875 49.707031 144.113281 Z M 68.046875 143.042969 C 68.046875 144.820312 68.203125 146.519531 68.5625 148 L 69.804688 148.082031 C 68.769531 144.359375 69.273438 138.753906 70.265625 134.488281 C 69.875 134.464844 69.476562 134.4375 69.066406 134.410156 C 68.460938 137.054688 68.046875 140.148438 68.046875 143.042969 Z M 15.550781 131.117188 C 15.09375 133.390625 14.796875 136.167969 14.796875 138.921875 C 14.796875 140.851562 14.941406 142.765625 15.28125 144.492188 L 16.503906 144.570312 C 15.632812 140.476562 15.960938 134.984375 16.75 131.171875 C 16.332031 131.152344 15.933594 131.132812 15.550781 131.117188 Z M 71.59375 143.042969 C 71.59375 144.917969 71.765625 146.703125 72.171875 148.234375 L 73.421875 148.316406 C 72.316406 144.671875 72.78125 139.054688 73.757812 134.726562 C 73.375 134.699219 72.976562 134.671875 72.558594 134.644531 C 71.984375 137.238281 71.59375 140.234375 71.59375 143.042969 Z M 19.003906 131.28125 C 19.390625 131.300781 19.789062 131.320312 20.195312 131.34375 C 19.441406 135.296875 19.179688 140.824219 20.15625 144.8125 L 18.925781 144.730469 C 18.507812 142.878906 18.332031 140.769531 18.332031 138.644531 C 18.332031 136.066406 18.59375 133.46875 19.003906 131.28125 "/><path style=" stroke:none;fill-rule:nonzero;fill:#c6c6c6;fill-opacity:1;" d="M 32.21875 188.742188 L 28.925781 188.914062 C 28.445312 188.941406 28.027344 188.566406 28.003906 188.082031 L 28 188.078125 C 27.976562 187.59375 28.351562 187.179688 28.835938 187.152344 L 32.125 186.980469 C 32.609375 186.953125 33.023438 187.328125 33.050781 187.8125 L 33.050781 187.816406 C 33.074219 188.300781 32.699219 188.714844 32.21875 188.742188 Z M 35.011719 181.941406 C 35.175781 181.921875 35.339844 182 35.421875 182.144531 C 35.964844 183.058594 37.746094 186.625 36.359375 191.878906 C 36.308594 192.0625 36.140625 192.191406 35.953125 192.191406 L 35.664062 192.191406 C 35.367188 192.191406 35.164062 191.890625 35.273438 191.617188 C 35.808594 190.292969 36.789062 186.808594 34.6875 182.546875 C 34.558594 182.285156 34.726562 181.976562 35.011719 181.941406 Z M 37.40625 181.777344 C 37.570312 181.757812 37.730469 181.832031 37.816406 181.976562 C 38.359375 182.894531 40.140625 186.457031 38.753906 191.714844 C 38.703125 191.898438 38.535156 192.023438 38.347656 192.023438 L 38.058594 192.023438 C 37.761719 192.023438 37.558594 191.726562 37.667969 191.449219 C 38.203125 190.125 39.183594 186.640625 37.082031 182.378906 C 36.953125 182.121094 37.117188 181.8125 37.40625 181.777344 Z M 39.839844 181.675781 C 40.003906 181.65625 40.164062 181.734375 40.25 181.878906 C 40.789062 182.792969 42.574219 186.359375 41.1875 191.613281 C 41.136719 191.796875 40.96875 191.925781 40.78125 191.925781 L 40.492188 191.925781 C 40.195312 191.925781 39.992188 191.625 40.101562 191.351562 C 40.632812 190.027344 41.617188 186.542969 39.515625 182.28125 C 39.386719 182.019531 39.550781 181.710938 39.839844 181.675781 Z M 88.664062 185.226562 L 87.066406 183.878906 L 88.542969 182.304688 L 90.140625 183.65625 Z M 86.097656 184.15625 L 85.871094 183.964844 L 86.078125 183.746094 L 86.304688 183.933594 Z M 83.632812 185.59375 L 82.035156 184.246094 L 83.511719 182.675781 L 85.109375 184.023438 Z M 81.0625 184.523438 L 80.839844 184.335938 L 81.046875 184.113281 L 81.269531 184.300781 Z M 78.601562 185.960938 L 77.003906 184.613281 L 78.480469 183.042969 L 80.078125 184.390625 Z M 76.035156 184.890625 L 75.808594 184.703125 L 76.015625 184.480469 L 76.242188 184.671875 Z M 73.570312 186.332031 L 71.972656 184.980469 L 73.449219 183.410156 L 75.046875 184.757812 Z M 71.003906 185.257812 L 70.78125 185.070312 L 70.984375 184.847656 L 71.210938 185.039062 Z M 68.539062 186.699219 L 66.941406 185.347656 L 68.417969 183.777344 L 70.015625 185.125 Z M 65.972656 185.625 L 65.75 185.4375 L 65.957031 185.214844 L 66.179688 185.40625 Z M 63.511719 187.066406 L 61.914062 185.71875 L 63.390625 184.144531 L 64.984375 185.492188 Z M 60.941406 185.992188 L 60.71875 185.804688 L 60.925781 185.582031 L 61.152344 185.773438 Z M 58.480469 187.433594 L 56.882812 186.085938 L 58.359375 184.511719 L 59.957031 185.859375 Z M 55.914062 186.359375 L 55.6875 186.171875 L 55.898438 185.949219 L 56.121094 186.140625 Z M 53.449219 187.800781 L 51.851562 186.453125 L 53.328125 184.878906 L 54.925781 186.226562 Z M 50.882812 186.726562 L 50.660156 186.539062 L 50.867188 186.316406 L 51.089844 186.507812 Z M 48.417969 188.167969 L 46.824219 186.820312 L 48.300781 185.246094 L 49.894531 186.59375 Z M 91.257812 183.894531 L 90.902344 183.597656 L 91.230469 183.253906 C 91.324219 183.152344 91.339844 182.964844 91.265625 182.832031 C 91.195312 182.703125 91.058594 182.675781 90.964844 182.777344 L 90.507812 183.265625 L 88.640625 181.6875 C 88.5625 181.625 88.464844 181.628906 88.394531 181.707031 L 86.667969 183.542969 L 86.175781 183.128906 C 86.097656 183.0625 86 183.070312 85.929688 183.144531 L 85.476562 183.632812 L 83.609375 182.054688 C 83.53125 181.992188 83.433594 182 83.363281 182.074219 L 81.636719 183.914062 L 81.144531 183.496094 C 81.066406 183.429688 80.96875 183.4375 80.898438 183.511719 L 80.441406 184 L 78.578125 182.421875 C 78.5 182.359375 78.402344 182.367188 78.332031 182.441406 L 76.609375 184.28125 L 76.113281 183.863281 C 76.039062 183.796875 75.9375 183.804688 75.867188 183.882812 L 75.414062 184.367188 L 73.546875 182.792969 C 73.46875 182.726562 73.371094 182.734375 73.300781 182.808594 L 71.578125 184.648438 L 71.082031 184.230469 C 71.007812 184.164062 70.910156 184.171875 70.839844 184.246094 L 70.382812 184.734375 L 68.515625 183.160156 C 68.441406 183.09375 68.34375 183.101562 68.273438 183.175781 L 66.546875 185.015625 L 66.054688 184.597656 C 65.976562 184.535156 65.878906 184.539062 65.808594 184.617188 L 65.351562 185.101562 L 63.488281 183.527344 C 63.410156 183.460938 63.3125 183.46875 63.242188 183.542969 L 61.515625 185.382812 L 61.023438 184.964844 C 60.945312 184.898438 60.847656 184.90625 60.777344 184.984375 L 60.324219 185.46875 L 58.457031 183.894531 C 58.378906 183.828125 58.28125 183.835938 58.210938 183.910156 L 56.488281 185.75 L 55.992188 185.332031 C 55.917969 185.269531 55.820312 185.273438 55.75 185.351562 L 55.292969 185.835938 L 53.425781 184.261719 C 53.351562 184.195312 53.253906 184.203125 53.179688 184.277344 L 51.457031 186.117188 L 50.964844 185.699219 C 50.886719 185.636719 50.789062 185.640625 50.71875 185.71875 L 50.261719 186.203125 L 48.394531 184.628906 C 48.320312 184.5625 48.222656 184.570312 48.152344 184.648438 L 46.425781 186.484375 L 45.933594 186.066406 C 45.832031 185.980469 45.699219 186.027344 45.636719 186.167969 C 45.574219 186.308594 45.605469 186.492188 45.707031 186.578125 L 46.058594 186.875 L 45.734375 187.222656 C 45.640625 187.324219 45.625 187.507812 45.695312 187.640625 C 45.738281 187.71875 45.804688 187.757812 45.871094 187.757812 C 45.914062 187.757812 45.960938 187.738281 46 187.695312 L 46.457031 187.210938 L 48.324219 188.785156 C 48.359375 188.816406 48.398438 188.828125 48.4375 188.828125 C 48.484375 188.828125 48.527344 188.808594 48.566406 188.765625 L 50.292969 186.929688 L 50.785156 187.347656 C 50.863281 187.410156 50.960938 187.402344 51.03125 187.328125 L 51.488281 186.84375 L 53.351562 188.417969 C 53.429688 188.484375 53.527344 188.476562 53.597656 188.398438 L 55.324219 186.5625 L 55.816406 186.980469 C 55.894531 187.042969 55.988281 187.035156 56.0625 186.960938 L 56.515625 186.476562 L 58.382812 188.050781 C 58.460938 188.117188 58.558594 188.109375 58.628906 188.03125 L 60.351562 186.195312 L 60.847656 186.609375 C 60.921875 186.675781 61.019531 186.667969 61.089844 186.59375 L 61.546875 186.105469 L 63.414062 187.683594 C 63.488281 187.746094 63.585938 187.742188 63.65625 187.664062 L 65.382812 185.828125 L 65.875 186.246094 C 65.953125 186.308594 66.050781 186.300781 66.121094 186.226562 L 66.578125 185.738281 L 68.441406 187.316406 C 68.519531 187.378906 68.617188 187.371094 68.6875 187.296875 L 70.414062 185.460938 L 70.90625 185.875 C 70.980469 185.941406 71.082031 185.933594 71.152344 185.859375 L 71.605469 185.371094 L 73.472656 186.949219 C 73.550781 187.011719 73.648438 187.007812 73.71875 186.929688 L 75.441406 185.09375 L 75.9375 185.507812 C 76.011719 185.574219 76.109375 185.566406 76.179688 185.492188 L 76.636719 185.003906 L 78.503906 186.582031 C 78.582031 186.644531 78.679688 186.636719 78.75 186.5625 L 80.472656 184.722656 L 80.96875 185.140625 C 81.042969 185.207031 81.140625 185.199219 81.210938 185.125 L 81.667969 184.636719 L 83.535156 186.214844 C 83.613281 186.277344 83.707031 186.269531 83.78125 186.195312 L 85.503906 184.355469 L 85.996094 184.773438 C 86.074219 184.839844 86.171875 184.832031 86.242188 184.753906 L 86.699219 184.269531 L 88.566406 185.84375 C 88.644531 185.910156 88.742188 185.902344 88.8125 185.828125 L 90.539062 183.988281 L 91.03125 184.40625 C 91.132812 184.492188 91.265625 184.449219 91.328125 184.308594 C 91.390625 184.167969 91.359375 183.980469 91.257812 183.894531 "/><g clip-rule="nonzero" clip-path="url(#d82669fe9f)"><path style=" stroke:none;fill-rule:nonzero;fill:#e17100;fill-opacity:1;" d="M 370.910156 187.6875 C 370.871094 188.796875 370.570312 189.890625 370.238281 190.941406 C 369.898438 192.023438 369.523438 193.105469 368.933594 194.070312 C 367.964844 195.667969 366.550781 197.042969 364.921875 197.941406 C 364.144531 198.371094 363.34375 198.765625 362.597656 199.246094 C 361.824219 199.746094 361.296875 200.183594 360.375 200.390625 C 358.207031 200.882812 355.957031 201.4375 353.726562 201.527344 C 352.679688 201.566406 351.136719 201.644531 350.1875 201.121094 C 349.449219 200.714844 348.558594 200.714844 347.769531 200.347656 C 345.734375 199.394531 344.238281 197.820312 343.066406 196.019531 C 342.375 194.960938 342.066406 193.597656 341.816406 192.328125 C 341.644531 191.429688 341.808594 190.464844 341.96875 189.523438 C 342.234375 187.941406 342.902344 186.523438 343.570312 185.113281 C 344.132812 183.917969 344.867188 182.804688 345.851562 181.867188 C 347.425781 180.367188 349.25 179.269531 351.199219 178.363281 C 352.773438 177.625 354.398438 177.125 356.164062 176.976562 C 357.308594 176.882812 358.4375 176.582031 359.597656 176.695312 C 361.550781 176.886719 363.25 177.824219 365.027344 178.527344 C 365.089844 178.554688 365.152344 178.601562 365.195312 178.65625 C 366.367188 180.152344 367.84375 181.347656 369.195312 182.667969 C 369.621094 183.078125 369.945312 183.671875 370.121094 184.246094 C 370.453125 185.324219 370.910156 186.304688 370.914062 187.457031 C 370.914062 187.535156 370.914062 187.613281 370.910156 187.6875 Z M 370.910156 187.6875 "/></g><g clip-rule="nonzero" clip-path="url(#441099ac4a)"><path style=" stroke:none;fill-rule:nonzero;fill:#fef3c6;fill-opacity:1;" d="M 373.640625 175.300781 C 373.203125 176.175781 372.316406 176.476562 371.550781 176.894531 C 370.734375 177.339844 370.039062 177.992188 369.113281 178.253906 C 368.929688 178.304688 368.683594 178.5625 369 178.859375 C 369.855469 179.671875 370.445312 180.671875 370.9375 181.726562 C 371.46875 182.863281 371.699219 184.089844 371.765625 185.328125 C 371.890625 187.746094 371.328125 190.050781 370.144531 192.128906 C 369.425781 193.390625 368.5625 194.578125 367.445312 195.605469 C 366.3125 196.648438 364.972656 197.339844 363.789062 198.257812 C 361.941406 199.691406 359.816406 199.808594 357.648438 200.007812 C 356.214844 200.140625 354.808594 200.007812 353.457031 199.660156 C 351.714844 199.214844 350.109375 198.4375 348.601562 197.386719 C 346.921875 196.21875 345.722656 194.691406 344.734375 192.984375 C 343.996094 191.707031 343.703125 190.25 343.464844 188.78125 C 343.144531 186.808594 343.539062 184.945312 344.132812 183.121094 C 344.625 181.617188 345.539062 180.320312 346.558594 179.109375 C 347.898438 177.519531 349.519531 176.289062 351.398438 175.433594 C 352.886719 174.753906 354.445312 174.230469 356.089844 174.074219 C 356.371094 174.046875 356.769531 173.992188 356.828125 174.429688 C 356.886719 174.867188 356.488281 174.820312 356.238281 174.871094 C 352.488281 175.601562 349.355469 177.371094 347.199219 180.566406 C 345.28125 183.402344 344.597656 186.542969 345.382812 189.953125 C 345.621094 190.984375 345.941406 191.992188 346.453125 192.878906 C 346.980469 193.789062 347.828125 194.492188 348.617188 195.210938 C 350.195312 196.648438 352.027344 197.644531 354.113281 197.921875 C 356.640625 198.253906 359.167969 198.1875 361.617188 197.199219 C 364.035156 196.21875 366.117188 194.742188 367.800781 192.84375 C 370.535156 189.761719 371.445312 186.15625 369.933594 182.175781 C 369.546875 181.15625 368.894531 180.234375 368.089844 179.480469 C 367.582031 179.007812 367.070312 179.507812 366.703125 179.796875 C 365.984375 180.351562 365.355469 181.027344 364.6875 181.652344 C 364.378906 181.949219 363.949219 182.03125 363.601562 182.28125 C 362.699219 182.925781 362.117188 183.953125 361.191406 184.480469 C 360.078125 185.109375 359.5 186.171875 358.671875 187.019531 C 357.574219 188.148438 356.941406 189.636719 356.039062 190.921875 C 355.855469 191.1875 355.890625 191.613281 355.839844 191.964844 C 355.78125 192.335938 355.652344 192.6875 355.28125 192.820312 C 354.960938 192.929688 354.800781 192.589844 354.574219 192.429688 C 354.21875 192.179688 354.011719 191.777344 353.933594 191.421875 C 353.730469 190.484375 353.285156 189.625 352.90625 188.789062 C 352.417969 187.71875 352.109375 186.421875 350.839844 185.839844 C 350.523438 185.695312 350.230469 185.367188 350.4375 184.957031 C 350.605469 184.621094 350.910156 184.453125 351.332031 184.539062 C 351.847656 184.636719 352.257812 184.898438 352.632812 185.242188 C 353.597656 186.140625 354.558594 187.039062 354.839844 188.414062 C 354.863281 188.519531 354.964844 188.609375 354.984375 188.640625 C 356.320312 186.878906 357.214844 184.832031 358.925781 183.285156 C 360.78125 181.609375 362.617188 179.929688 364.65625 178.476562 C 364.972656 178.253906 365.597656 178.179688 365.492188 177.746094 C 365.410156 177.402344 364.835938 177.265625 364.4375 177.101562 C 362.460938 176.296875 360.382812 176.148438 358.300781 176.253906 C 357.074219 176.316406 355.808594 176.410156 354.675781 177.011719 C 354.296875 177.210938 353.847656 177.136719 353.472656 177.402344 C 353.335938 177.5 352.960938 177.3125 352.859375 177.027344 C 352.753906 176.742188 352.871094 176.511719 353.097656 176.335938 C 353.601562 175.953125 354.226562 175.816406 354.800781 175.628906 C 356.777344 174.984375 358.804688 174.800781 360.898438 175 C 363.003906 175.199219 364.929688 175.796875 366.699219 176.925781 C 366.988281 177.105469 367.15625 177 367.402344 176.859375 C 368.949219 175.984375 370.601562 175.335938 372.203125 174.574219 C 372.4375 174.460938 372.699219 174.394531 372.957031 174.347656 C 373.214844 174.300781 373.511719 174.265625 373.691406 174.496094 C 373.894531 174.757812 373.773438 175.035156 373.640625 175.300781 Z M 373.640625 175.300781 "/></g><g style="fill:#1d4ed8;fill-opacity:1;"><g transform="translate(41.935577, 236.577229)"><path style="stroke:none" d="M 11 -2.28125 L 11 0 L 1.453125 0 L 1.453125 -12.3125 L 10.765625 -12.3125 L 10.765625 -10.03125 L 4.296875 -10.03125 L 4.296875 -7.359375 L 10.015625 -7.359375 L 10.015625 -5.140625 L 4.296875 -5.140625 L 4.296875 -2.28125 Z M 11 -2.28125 "/></g></g><g style="fill:#1d4ed8;fill-opacity:1;"><g transform="translate(60.289816, 236.577229)"><path style="stroke:none" d="M 5.5 0.21875 C 4.53125 0.21875 3.585938 0.0859375 2.671875 -0.171875 C 1.765625 -0.441406 1.039062 -0.789062 0.5 -1.21875 L 1.453125 -3.359375 C 1.984375 -2.972656 2.613281 -2.660156 3.34375 -2.421875 C 4.070312 -2.191406 4.800781 -2.078125 5.53125 -2.078125 C 6.332031 -2.078125 6.925781 -2.195312 7.3125 -2.4375 C 7.707031 -2.675781 7.90625 -2.992188 7.90625 -3.390625 C 7.90625 -3.679688 7.789062 -3.925781 7.5625 -4.125 C 7.332031 -4.320312 7.035156 -4.476562 6.671875 -4.59375 C 6.316406 -4.707031 5.832031 -4.835938 5.21875 -4.984375 C 4.28125 -5.203125 3.507812 -5.421875 2.90625 -5.640625 C 2.3125 -5.867188 1.800781 -6.226562 1.375 -6.71875 C 0.945312 -7.207031 0.734375 -7.863281 0.734375 -8.6875 C 0.734375 -9.40625 0.925781 -10.050781 1.3125 -10.625 C 1.707031 -11.207031 2.289062 -11.671875 3.0625 -12.015625 C 3.84375 -12.359375 4.796875 -12.53125 5.921875 -12.53125 C 6.710938 -12.53125 7.484375 -12.4375 8.234375 -12.25 C 8.984375 -12.0625 9.640625 -11.789062 10.203125 -11.4375 L 9.328125 -9.265625 C 8.191406 -9.910156 7.050781 -10.234375 5.90625 -10.234375 C 5.113281 -10.234375 4.523438 -10.101562 4.140625 -9.84375 C 3.765625 -9.59375 3.578125 -9.253906 3.578125 -8.828125 C 3.578125 -8.410156 3.796875 -8.097656 4.234375 -7.890625 C 4.671875 -7.679688 5.34375 -7.476562 6.25 -7.28125 C 7.1875 -7.0625 7.953125 -6.835938 8.546875 -6.609375 C 9.148438 -6.390625 9.664062 -6.039062 10.09375 -5.5625 C 10.519531 -5.082031 10.734375 -4.429688 10.734375 -3.609375 C 10.734375 -2.898438 10.535156 -2.253906 10.140625 -1.671875 C 9.742188 -1.097656 9.15625 -0.640625 8.375 -0.296875 C 7.59375 0.046875 6.632812 0.21875 5.5 0.21875 Z M 5.5 0.21875 "/></g></g><g style="fill:#1d4ed8;fill-opacity:1;"><g transform="translate(78.06347, 236.577229)"><path style="stroke:none" d="M 4.015625 -10 L 0.078125 -10 L 0.078125 -12.3125 L 10.796875 -12.3125 L 10.796875 -10 L 6.859375 -10 L 6.859375 0 L 4.015625 0 Z M 4.015625 -10 "/></g></g><g style="fill:#1d4ed8;fill-opacity:1;"><g transform="translate(95.48527, 236.577229)"><path style="stroke:none" d="M 6.9375 0.21875 C 5.175781 0.21875 3.804688 -0.265625 2.828125 -1.234375 C 1.847656 -2.210938 1.359375 -3.609375 1.359375 -5.421875 L 1.359375 -12.3125 L 4.203125 -12.3125 L 4.203125 -5.53125 C 4.203125 -3.320312 5.117188 -2.21875 6.953125 -2.21875 C 7.835938 -2.21875 8.515625 -2.484375 8.984375 -3.015625 C 9.453125 -3.546875 9.6875 -4.382812 9.6875 -5.53125 L 9.6875 -12.3125 L 12.515625 -12.3125 L 12.515625 -5.421875 C 12.515625 -3.609375 12.023438 -2.210938 11.046875 -1.234375 C 10.066406 -0.265625 8.695312 0.21875 6.9375 0.21875 Z M 6.9375 0.21875 "/></g></g><g style="fill:#1d4ed8;fill-opacity:1;"><g transform="translate(115.897906, 236.577229)"><path style="stroke:none" d="M 1.453125 -12.3125 L 7.0625 -12.3125 C 8.394531 -12.3125 9.570312 -12.054688 10.59375 -11.546875 C 11.625 -11.035156 12.421875 -10.316406 12.984375 -9.390625 C 13.554688 -8.460938 13.84375 -7.382812 13.84375 -6.15625 C 13.84375 -4.925781 13.554688 -3.847656 12.984375 -2.921875 C 12.421875 -1.992188 11.625 -1.273438 10.59375 -0.765625 C 9.570312 -0.253906 8.394531 0 7.0625 0 L 1.453125 0 Z M 6.921875 -2.34375 C 8.148438 -2.34375 9.128906 -2.6875 9.859375 -3.375 C 10.597656 -4.0625 10.96875 -4.988281 10.96875 -6.15625 C 10.96875 -7.332031 10.597656 -8.257812 9.859375 -8.9375 C 9.128906 -9.625 8.148438 -9.96875 6.921875 -9.96875 L 4.3125 -9.96875 L 4.3125 -2.34375 Z M 6.921875 -2.34375 "/></g></g><g style="fill:#1d4ed8;fill-opacity:1;"><g transform="translate(136.979075, 236.577229)"><path style="stroke:none" d="M 11 -2.28125 L 11 0 L 1.453125 0 L 1.453125 -12.3125 L 10.765625 -12.3125 L 10.765625 -10.03125 L 4.296875 -10.03125 L 4.296875 -7.359375 L 10.015625 -7.359375 L 10.015625 -5.140625 L 4.296875 -5.140625 L 4.296875 -2.28125 Z M 11 -2.28125 "/></g></g><g style="fill:#1d4ed8;fill-opacity:1;"><g transform="translate(155.333313, 236.577229)"><path style="stroke:none" d=""/></g></g><g style="fill:#1d4ed8;fill-opacity:1;"><g transform="translate(166.861405, 236.577229)"><path style="stroke:none" d="M 1.453125 -12.3125 L 7.0625 -12.3125 C 8.394531 -12.3125 9.570312 -12.054688 10.59375 -11.546875 C 11.625 -11.035156 12.421875 -10.316406 12.984375 -9.390625 C 13.554688 -8.460938 13.84375 -7.382812 13.84375 -6.15625 C 13.84375 -4.925781 13.554688 -3.847656 12.984375 -2.921875 C 12.421875 -1.992188 11.625 -1.273438 10.59375 -0.765625 C 9.570312 -0.253906 8.394531 0 7.0625 0 L 1.453125 0 Z M 6.921875 -2.34375 C 8.148438 -2.34375 9.128906 -2.6875 9.859375 -3.375 C 10.597656 -4.0625 10.96875 -4.988281 10.96875 -6.15625 C 10.96875 -7.332031 10.597656 -8.257812 9.859375 -8.9375 C 9.128906 -9.625 8.148438 -9.96875 6.921875 -9.96875 L 4.3125 -9.96875 L 4.3125 -2.34375 Z M 6.921875 -2.34375 "/></g></g><g style="fill:#1d4ed8;fill-opacity:1;"><g transform="translate(187.942574, 236.577229)"><path style="stroke:none" d="M 1.453125 -12.3125 L 4.3125 -12.3125 L 4.3125 0 L 1.453125 0 Z M 1.453125 -12.3125 "/></g></g><g style="fill:#1d4ed8;fill-opacity:1;"><g transform="translate(200.262369, 236.577229)"><path style="stroke:none" d="M 9.3125 0 L 6.9375 -3.4375 L 4.3125 -3.4375 L 4.3125 0 L 1.453125 0 L 1.453125 -12.3125 L 6.796875 -12.3125 C 7.878906 -12.3125 8.820312 -12.128906 9.625 -11.765625 C 10.4375 -11.398438 11.054688 -10.882812 11.484375 -10.21875 C 11.921875 -9.550781 12.140625 -8.757812 12.140625 -7.84375 C 12.140625 -6.925781 11.914062 -6.132812 11.46875 -5.46875 C 11.03125 -4.8125 10.410156 -4.304688 9.609375 -3.953125 L 12.375 0 Z M 9.25 -7.84375 C 9.25 -8.539062 9.023438 -9.070312 8.578125 -9.4375 C 8.140625 -9.8125 7.492188 -10 6.640625 -10 L 4.3125 -10 L 4.3125 -5.703125 L 6.640625 -5.703125 C 7.492188 -5.703125 8.140625 -5.890625 8.578125 -6.265625 C 9.023438 -6.640625 9.25 -7.164062 9.25 -7.84375 Z M 9.25 -7.84375 "/></g></g><g style="fill:#1d4ed8;fill-opacity:1;"><g transform="translate(219.742568, 236.577229)"><path style="stroke:none" d="M 11 -2.28125 L 11 0 L 1.453125 0 L 1.453125 -12.3125 L 10.765625 -12.3125 L 10.765625 -10.03125 L 4.296875 -10.03125 L 4.296875 -7.359375 L 10.015625 -7.359375 L 10.015625 -5.140625 L 4.296875 -5.140625 L 4.296875 -2.28125 Z M 11 -2.28125 "/></g></g><g style="fill:#1d4ed8;fill-opacity:1;"><g transform="translate(238.096806, 236.577229)"><path style="stroke:none" d="M 1.453125 -12.3125 L 4.3125 -12.3125 L 4.3125 0 L 1.453125 0 Z M 1.453125 -12.3125 "/></g></g><g style="fill:#1d4ed8;fill-opacity:1;"><g transform="translate(250.416601, 236.577229)"><path style="stroke:none" d="M 4.015625 -10 L 0.078125 -10 L 0.078125 -12.3125 L 10.796875 -12.3125 L 10.796875 -10 L 6.859375 -10 L 6.859375 0 L 4.015625 0 Z M 4.015625 -10 "/></g></g><g style="fill:#1d4ed8;fill-opacity:1;"><g transform="translate(267.838402, 236.577229)"><path style="stroke:none" d="M 7.421875 0.21875 C 6.140625 0.21875 4.984375 -0.0546875 3.953125 -0.609375 C 2.929688 -1.160156 2.128906 -1.921875 1.546875 -2.890625 C 0.972656 -3.859375 0.6875 -4.945312 0.6875 -6.15625 C 0.6875 -7.363281 0.972656 -8.453125 1.546875 -9.421875 C 2.128906 -10.390625 2.929688 -11.148438 3.953125 -11.703125 C 4.984375 -12.253906 6.140625 -12.53125 7.421875 -12.53125 C 8.703125 -12.53125 9.851562 -12.253906 10.875 -11.703125 C 11.894531 -11.148438 12.695312 -10.390625 13.28125 -9.421875 C 13.863281 -8.453125 14.15625 -7.363281 14.15625 -6.15625 C 14.15625 -4.945312 13.863281 -3.859375 13.28125 -2.890625 C 12.695312 -1.921875 11.894531 -1.160156 10.875 -0.609375 C 9.851562 -0.0546875 8.703125 0.21875 7.421875 0.21875 Z M 7.421875 -2.21875 C 8.148438 -2.21875 8.804688 -2.382812 9.390625 -2.71875 C 9.984375 -3.050781 10.445312 -3.515625 10.78125 -4.109375 C 11.113281 -4.710938 11.28125 -5.394531 11.28125 -6.15625 C 11.28125 -6.914062 11.113281 -7.59375 10.78125 -8.1875 C 10.445312 -8.789062 9.984375 -9.257812 9.390625 -9.59375 C 8.804688 -9.925781 8.148438 -10.09375 7.421875 -10.09375 C 6.691406 -10.09375 6.035156 -9.925781 5.453125 -9.59375 C 4.867188 -9.257812 4.410156 -8.789062 4.078125 -8.1875 C 3.742188 -7.59375 3.578125 -6.914062 3.578125 -6.15625 C 3.578125 -5.394531 3.742188 -4.710938 4.078125 -4.109375 C 4.410156 -3.515625 4.867188 -3.050781 5.453125 -2.71875 C 6.035156 -2.382812 6.691406 -2.21875 7.421875 -2.21875 Z M 7.421875 -2.21875 "/></g></g><g style="fill:#1d4ed8;fill-opacity:1;"><g transform="translate(289.236247, 236.577229)"><path style="stroke:none" d=""/></g></g><g style="fill:#1d4ed8;fill-opacity:1;"><g transform="translate(300.76434, 236.577229)"><path style="stroke:none" d="M 1.453125 -12.3125 L 7.0625 -12.3125 C 8.394531 -12.3125 9.570312 -12.054688 10.59375 -11.546875 C 11.625 -11.035156 12.421875 -10.316406 12.984375 -9.390625 C 13.554688 -8.460938 13.84375 -7.382812 13.84375 -6.15625 C 13.84375 -4.925781 13.554688 -3.847656 12.984375 -2.921875 C 12.421875 -1.992188 11.625 -1.273438 10.59375 -0.765625 C 9.570312 -0.253906 8.394531 0 7.0625 0 L 1.453125 0 Z M 6.921875 -2.34375 C 8.148438 -2.34375 9.128906 -2.6875 9.859375 -3.375 C 10.597656 -4.0625 10.96875 -4.988281 10.96875 -6.15625 C 10.96875 -7.332031 10.597656 -8.257812 9.859375 -8.9375 C 9.128906 -9.625 8.148438 -9.96875 6.921875 -9.96875 L 4.3125 -9.96875 L 4.3125 -2.34375 Z M 6.921875 -2.34375 "/></g></g><g style="fill:#1d4ed8;fill-opacity:1;"><g transform="translate(321.845523, 236.577229)"><path style="stroke:none" d="M 11 -2.28125 L 11 0 L 1.453125 0 L 1.453125 -12.3125 L 10.765625 -12.3125 L 10.765625 -10.03125 L 4.296875 -10.03125 L 4.296875 -7.359375 L 10.015625 -7.359375 L 10.015625 -5.140625 L 4.296875 -5.140625 L 4.296875 -2.28125 Z M 11 -2.28125 "/></g></g><g style="fill:#1d4ed8;fill-opacity:1;"><g transform="translate(37.471909, 256.459354)"><path style="stroke:none" d="M 4.3125 -10.03125 L 4.3125 -6.78125 L 10.015625 -6.78125 L 10.015625 -4.484375 L 4.3125 -4.484375 L 4.3125 0 L 1.453125 0 L 1.453125 -12.3125 L 10.765625 -12.3125 L 10.765625 -10.03125 Z M 4.3125 -10.03125 "/></g></g><g style="fill:#1d4ed8;fill-opacity:1;"><g transform="translate(55.263159, 256.459354)"><path style="stroke:none" d="M 7.421875 0.21875 C 6.140625 0.21875 4.984375 -0.0546875 3.953125 -0.609375 C 2.929688 -1.160156 2.128906 -1.921875 1.546875 -2.890625 C 0.972656 -3.859375 0.6875 -4.945312 0.6875 -6.15625 C 0.6875 -7.363281 0.972656 -8.453125 1.546875 -9.421875 C 2.128906 -10.390625 2.929688 -11.148438 3.953125 -11.703125 C 4.984375 -12.253906 6.140625 -12.53125 7.421875 -12.53125 C 8.703125 -12.53125 9.851562 -12.253906 10.875 -11.703125 C 11.894531 -11.148438 12.695312 -10.390625 13.28125 -9.421875 C 13.863281 -8.453125 14.15625 -7.363281 14.15625 -6.15625 C 14.15625 -4.945312 13.863281 -3.859375 13.28125 -2.890625 C 12.695312 -1.921875 11.894531 -1.160156 10.875 -0.609375 C 9.851562 -0.0546875 8.703125 0.21875 7.421875 0.21875 Z M 7.421875 -2.21875 C 8.148438 -2.21875 8.804688 -2.382812 9.390625 -2.71875 C 9.984375 -3.050781 10.445312 -3.515625 10.78125 -4.109375 C 11.113281 -4.710938 11.28125 -5.394531 11.28125 -6.15625 C 11.28125 -6.914062 11.113281 -7.59375 10.78125 -8.1875 C 10.445312 -8.789062 9.984375 -9.257812 9.390625 -9.59375 C 8.804688 -9.925781 8.148438 -10.09375 7.421875 -10.09375 C 6.691406 -10.09375 6.035156 -9.925781 5.453125 -9.59375 C 4.867188 -9.257812 4.410156 -8.789062 4.078125 -8.1875 C 3.742188 -7.59375 3.578125 -6.914062 3.578125 -6.15625 C 3.578125 -5.394531 3.742188 -4.710938 4.078125 -4.109375 C 4.410156 -3.515625 4.867188 -3.050781 5.453125 -2.71875 C 6.035156 -2.382812 6.691406 -2.21875 7.421875 -2.21875 Z M 7.421875 -2.21875 "/></g></g><g style="fill:#1d4ed8;fill-opacity:1;"><g transform="translate(76.661005, 256.459354)"><path style="stroke:none" d="M 9.3125 0 L 6.9375 -3.4375 L 4.3125 -3.4375 L 4.3125 0 L 1.453125 0 L 1.453125 -12.3125 L 6.796875 -12.3125 C 7.878906 -12.3125 8.820312 -12.128906 9.625 -11.765625 C 10.4375 -11.398438 11.054688 -10.882812 11.484375 -10.21875 C 11.921875 -9.550781 12.140625 -8.757812 12.140625 -7.84375 C 12.140625 -6.925781 11.914062 -6.132812 11.46875 -5.46875 C 11.03125 -4.8125 10.410156 -4.304688 9.609375 -3.953125 L 12.375 0 Z M 9.25 -7.84375 C 9.25 -8.539062 9.023438 -9.070312 8.578125 -9.4375 C 8.140625 -9.8125 7.492188 -10 6.640625 -10 L 4.3125 -10 L 4.3125 -5.703125 L 6.640625 -5.703125 C 7.492188 -5.703125 8.140625 -5.890625 8.578125 -6.265625 C 9.023438 -6.640625 9.25 -7.164062 9.25 -7.84375 Z M 9.25 -7.84375 "/></g></g><g style="fill:#1d4ed8;fill-opacity:1;"><g transform="translate(96.141203, 256.459354)"><path style="stroke:none" d="M 12.671875 0 L 12.65625 -7.390625 L 9.03125 -1.296875 L 7.734375 -1.296875 L 4.140625 -7.234375 L 4.140625 0 L 1.453125 0 L 1.453125 -12.3125 L 3.8125 -12.3125 L 8.421875 -4.65625 L 12.96875 -12.3125 L 15.3125 -12.3125 L 15.34375 0 Z M 12.671875 0 "/></g></g><g style="fill:#1d4ed8;fill-opacity:1;"><g transform="translate(119.491888, 256.459354)"><path style="stroke:none" d="M 9.578125 -2.640625 L 3.859375 -2.640625 L 2.765625 0 L -0.15625 0 L 5.328125 -12.3125 L 8.140625 -12.3125 L 13.65625 0 L 10.65625 0 Z M 8.671875 -4.796875 L 6.71875 -9.515625 L 4.765625 -4.796875 Z M 8.671875 -4.796875 "/></g></g><g style="fill:#1d4ed8;fill-opacity:1;"><g transform="translate(139.517463, 256.459354)"><path style="stroke:none" d=""/></g></g><g style="fill:#1d4ed8;fill-opacity:1;"><g transform="translate(151.045555, 256.459354)"><path style="stroke:none" d="M 7.421875 0.21875 C 6.140625 0.21875 4.984375 -0.0546875 3.953125 -0.609375 C 2.929688 -1.160156 2.128906 -1.921875 1.546875 -2.890625 C 0.972656 -3.859375 0.6875 -4.945312 0.6875 -6.15625 C 0.6875 -7.363281 0.972656 -8.453125 1.546875 -9.421875 C 2.128906 -10.390625 2.929688 -11.148438 3.953125 -11.703125 C 4.984375 -12.253906 6.140625 -12.53125 7.421875 -12.53125 C 8.703125 -12.53125 9.851562 -12.253906 10.875 -11.703125 C 11.894531 -11.148438 12.695312 -10.390625 13.28125 -9.421875 C 13.863281 -8.453125 14.15625 -7.363281 14.15625 -6.15625 C 14.15625 -4.945312 13.863281 -3.859375 13.28125 -2.890625 C 12.695312 -1.921875 11.894531 -1.160156 10.875 -0.609375 C 9.851562 -0.0546875 8.703125 0.21875 7.421875 0.21875 Z M 7.421875 -2.21875 C 8.148438 -2.21875 8.804688 -2.382812 9.390625 -2.71875 C 9.984375 -3.050781 10.445312 -3.515625 10.78125 -4.109375 C 11.113281 -4.710938 11.28125 -5.394531 11.28125 -6.15625 C 11.28125 -6.914062 11.113281 -7.59375 10.78125 -8.1875 C 10.445312 -8.789062 9.984375 -9.257812 9.390625 -9.59375 C 8.804688 -9.925781 8.148438 -10.09375 7.421875 -10.09375 C 6.691406 -10.09375 6.035156 -9.925781 5.453125 -9.59375 C 4.867188 -9.257812 4.410156 -8.789062 4.078125 -8.1875 C 3.742188 -7.59375 3.578125 -6.914062 3.578125 -6.15625 C 3.578125 -5.394531 3.742188 -4.710938 4.078125 -4.109375 C 4.410156 -3.515625 4.867188 -3.050781 5.453125 -2.71875 C 6.035156 -2.382812 6.691406 -2.21875 7.421875 -2.21875 Z M 7.421875 -2.21875 "/></g></g><g style="fill:#1d4ed8;fill-opacity:1;"><g transform="translate(172.443401, 256.459354)"><path style="stroke:none" d="M 9.3125 0 L 6.9375 -3.4375 L 4.3125 -3.4375 L 4.3125 0 L 1.453125 0 L 1.453125 -12.3125 L 6.796875 -12.3125 C 7.878906 -12.3125 8.820312 -12.128906 9.625 -11.765625 C 10.4375 -11.398438 11.054688 -10.882812 11.484375 -10.21875 C 11.921875 -9.550781 12.140625 -8.757812 12.140625 -7.84375 C 12.140625 -6.925781 11.914062 -6.132812 11.46875 -5.46875 C 11.03125 -4.8125 10.410156 -4.304688 9.609375 -3.953125 L 12.375 0 Z M 9.25 -7.84375 C 9.25 -8.539062 9.023438 -9.070312 8.578125 -9.4375 C 8.140625 -9.8125 7.492188 -10 6.640625 -10 L 4.3125 -10 L 4.3125 -5.703125 L 6.640625 -5.703125 C 7.492188 -5.703125 8.140625 -5.890625 8.578125 -6.265625 C 9.023438 -6.640625 9.25 -7.164062 9.25 -7.84375 Z M 9.25 -7.84375 "/></g></g><g style="fill:#1d4ed8;fill-opacity:1;"><g transform="translate(191.9236, 256.459354)"><path style="stroke:none" d="M 9.78125 -6.34375 L 12.390625 -6.34375 L 12.390625 -1.359375 C 11.722656 -0.847656 10.945312 -0.457031 10.0625 -0.1875 C 9.1875 0.0820312 8.300781 0.21875 7.40625 0.21875 C 6.125 0.21875 4.972656 -0.0507812 3.953125 -0.59375 C 2.929688 -1.144531 2.128906 -1.90625 1.546875 -2.875 C 0.972656 -3.84375 0.6875 -4.9375 0.6875 -6.15625 C 0.6875 -7.375 0.972656 -8.46875 1.546875 -9.4375 C 2.128906 -10.40625 2.9375 -11.160156 3.96875 -11.703125 C 5.007812 -12.253906 6.171875 -12.53125 7.453125 -12.53125 C 8.535156 -12.53125 9.515625 -12.347656 10.390625 -11.984375 C 11.273438 -11.617188 12.015625 -11.085938 12.609375 -10.390625 L 10.78125 -8.703125 C 9.90625 -9.628906 8.84375 -10.09375 7.59375 -10.09375 C 6.8125 -10.09375 6.113281 -9.925781 5.5 -9.59375 C 4.894531 -9.269531 4.421875 -8.804688 4.078125 -8.203125 C 3.742188 -7.609375 3.578125 -6.925781 3.578125 -6.15625 C 3.578125 -5.394531 3.742188 -4.710938 4.078125 -4.109375 C 4.421875 -3.515625 4.894531 -3.050781 5.5 -2.71875 C 6.101562 -2.382812 6.789062 -2.21875 7.5625 -2.21875 C 8.382812 -2.21875 9.125 -2.394531 9.78125 -2.75 Z M 9.78125 -6.34375 "/></g></g><g style="fill:#1d4ed8;fill-opacity:1;"><g transform="translate(212.037138, 256.459354)"><path style="stroke:none" d="M 9.578125 -2.640625 L 3.859375 -2.640625 L 2.765625 0 L -0.15625 0 L 5.328125 -12.3125 L 8.140625 -12.3125 L 13.65625 0 L 10.65625 0 Z M 8.671875 -4.796875 L 6.71875 -9.515625 L 4.765625 -4.796875 Z M 8.671875 -4.796875 "/></g></g><g style="fill:#1d4ed8;fill-opacity:1;"><g transform="translate(232.062713, 256.459354)"><path style="stroke:none" d="M 12.75 -12.3125 L 12.75 0 L 10.421875 0 L 4.28125 -7.484375 L 4.28125 0 L 1.453125 0 L 1.453125 -12.3125 L 3.8125 -12.3125 L 9.9375 -4.84375 L 9.9375 -12.3125 Z M 12.75 -12.3125 "/></g></g><g style="fill:#1d4ed8;fill-opacity:1;"><g transform="translate(252.827203, 256.459354)"><path style="stroke:none" d="M 1.453125 -12.3125 L 4.3125 -12.3125 L 4.3125 0 L 1.453125 0 Z M 1.453125 -12.3125 "/></g></g><g style="fill:#1d4ed8;fill-opacity:1;"><g transform="translate(265.146998, 256.459354)"><path style="stroke:none" d="M 11.4375 -2.328125 L 11.4375 0 L 0.671875 0 L 0.671875 -1.84375 L 7.421875 -10 L 0.8125 -10 L 0.8125 -12.3125 L 11.171875 -12.3125 L 11.171875 -10.46875 L 4.4375 -2.328125 Z M 11.4375 -2.328125 "/></g></g><g style="fill:#1d4ed8;fill-opacity:1;"><g transform="translate(283.501237, 256.459354)"><path style="stroke:none" d="M 9.578125 -2.640625 L 3.859375 -2.640625 L 2.765625 0 L -0.15625 0 L 5.328125 -12.3125 L 8.140625 -12.3125 L 13.65625 0 L 10.65625 0 Z M 8.671875 -4.796875 L 6.71875 -9.515625 L 4.765625 -4.796875 Z M 8.671875 -4.796875 "/></g></g><g style="fill:#1d4ed8;fill-opacity:1;"><g transform="translate(303.526812, 256.459354)"><path style="stroke:none" d="M 1.453125 -12.3125 L 7.0625 -12.3125 C 8.394531 -12.3125 9.570312 -12.054688 10.59375 -11.546875 C 11.625 -11.035156 12.421875 -10.316406 12.984375 -9.390625 C 13.554688 -8.460938 13.84375 -7.382812 13.84375 -6.15625 C 13.84375 -4.925781 13.554688 -3.847656 12.984375 -2.921875 C 12.421875 -1.992188 11.625 -1.273438 10.59375 -0.765625 C 9.570312 -0.253906 8.394531 0 7.0625 0 L 1.453125 0 Z M 6.921875 -2.34375 C 8.148438 -2.34375 9.128906 -2.6875 9.859375 -3.375 C 10.597656 -4.0625 10.96875 -4.988281 10.96875 -6.15625 C 10.96875 -7.332031 10.597656 -8.257812 9.859375 -8.9375 C 9.128906 -9.625 8.148438 -9.96875 6.921875 -9.96875 L 4.3125 -9.96875 L 4.3125 -2.34375 Z M 6.921875 -2.34375 "/></g></g><g style="fill:#1d4ed8;fill-opacity:1;"><g transform="translate(324.60798, 256.459354)"><path style="stroke:none" d="M 9.578125 -2.640625 L 3.859375 -2.640625 L 2.765625 0 L -0.15625 0 L 5.328125 -12.3125 L 8.140625 -12.3125 L 13.65625 0 L 10.65625 0 Z M 8.671875 -4.796875 L 6.71875 -9.515625 L 4.765625 -4.796875 Z M 8.671875 -4.796875 "/></g></g></g></svg>