<svg xmlns="http://www.w3.org/2000/svg" xmlns:xlink="http://www.w3.org/1999/xlink" width="1500" zoomAndPan="magnify" viewBox="0 0 1125 277.499997" height="370" preserveAspectRatio="xMidYMid meet" version="1.2"><defs><clipPath id="4f45024781"><path d="M 1.011719 209.601562 L 196.875 209.601562 L 196.875 255.871094 L 1.011719 255.871094 Z M 1.011719 209.601562 "/></clipPath><clipPath id="5458841dff"><path d="M 4 205 L 64 205 L 64 255.9375 L 4 255.9375 Z M 4 205 "/></clipPath><clipPath id="ae0169e8a8"><path d="M 1.011719 205.433594 L 258.789062 205.433594 L 258.789062 255.871094 L 1.011719 255.871094 Z M 1.011719 205.433594 "/></clipPath><clipPath id="3b4c7c2bc4"><path d="M 45 94 L 298.976562 94 L 298.976562 137 L 45 137 Z M 45 94 "/></clipPath><clipPath id="78d59734e6"><path d="M 24 20.863281 L 278 20.863281 L 278 98 L 24 98 Z M 24 20.863281 "/></clipPath><clipPath id="b0adbca97a"><path d="M 1024.089844 161 L 1112 161 L 1112 236.671875 L 1024.089844 236.671875 Z M 1024.089844 161 "/></clipPath><clipPath id="fc6bc6a755"><path d="M 1029 153.574219 L 1120.664062 153.574219 L 1120.664062 232 L 1029 232 Z M 1029 153.574219 "/></clipPath></defs><g id="5921cd8c94"><path style="fill:none;stroke-width:8;stroke-linecap:round;stroke-linejoin:miter;stroke:#1d4ed8;stroke-opacity:1;stroke-miterlimit:4;" d="M 4.002249 3.998035 L 334.22605 3.998035 " transform="matrix(0,-0.748167,0.748167,0,318.340834,273.884975)"/><g clip-rule="nonzero" clip-path="url(#4f45024781)"><path style=" stroke:none;fill-rule:nonzero;fill:#fef3c6;fill-opacity:1;" d="M 196.78125 242.472656 L 51.496094 255.871094 L 1.703125 216.703125 C 1.234375 216.585938 1.265625 215.90625 1.746094 215.847656 C 9.992188 214.777344 75.984375 210 77.0625 209.925781 C 78.332031 209.839844 196.78125 242.472656 196.78125 242.472656 "/></g><g clip-rule="nonzero" clip-path="url(#5458841dff)"><path style=" stroke:none;fill-rule:nonzero;fill:#c6c6c6;fill-opacity:1;" d="M 4.027344 205.960938 L 4.375 215.824219 L 54.679688 255.25 L 58.359375 250.960938 L 63.039062 244.691406 L 4.027344 205.960938 "/></g><g clip-rule="nonzero" clip-path="url(#ae0169e8a8)"><path style=" stroke:none;fill-rule:nonzero;fill:#fef3c6;fill-opacity:1;" d="M 1.417969 205.535156 L 197.5625 214.378906 L 255.964844 231.867188 C 257.414062 232.292969 258.507812 234.550781 258.609375 236.054688 L 258.75 238.722656 C 258.882812 240.714844 257.371094 242.433594 255.378906 242.558594 L 51.496094 255.871094 C 51.496094 255.871094 55.808594 254.226562 54.425781 248.871094 C 54.136719 247.753906 52.828125 246.476562 52.828125 246.476562 C 52.828125 246.476562 10.667969 209.039062 1.34375 206.390625 C 0.863281 206.253906 0.921875 205.570312 1.417969 205.535156 "/></g><path style=" stroke:none;fill-rule:nonzero;fill:#161515;fill-opacity:1;" d="M 208.375 231.292969 L 63.089844 244.691406 L 12.511719 205.382812 C 11.863281 204.996094 12.074219 204.589844 12.554688 204.527344 C 20.800781 203.457031 87.578125 198.816406 88.65625 198.746094 C 89.925781 198.660156 208.375 231.292969 208.375 231.292969 "/><path style=" stroke:none;fill-rule:nonzero;fill:#c6c6c6;fill-opacity:1;" d="M 15.621094 194.785156 L 15.96875 204.644531 L 66.273438 244.066406 L 69.953125 239.78125 L 74.628906 233.511719 L 15.621094 194.785156 "/><path style=" stroke:none;fill-rule:nonzero;fill:#161515;fill-opacity:1;" d="M 13.328125 192.800781 L 209.152344 203.203125 L 267.558594 220.6875 C 269.007812 221.113281 270.101562 223.371094 270.203125 224.875 L 270.339844 227.539062 C 270.476562 229.535156 268.964844 231.253906 266.972656 231.378906 L 63.089844 244.691406 C 63.089844 244.691406 67.402344 243.042969 66.019531 237.6875 C 65.730469 236.574219 64.421875 235.296875 64.421875 235.296875 C 64.421875 235.296875 21.089844 197.179688 12.882812 193.816406 C 12.421875 193.625 12.832031 192.835938 13.328125 192.800781 "/><path style=" stroke:none;fill-rule:nonzero;fill:#e17100;fill-opacity:1;" d="M 63.882812 231.945312 L 17.804688 192.578125 C 16.363281 191.359375 16.96875 190.351562 17.925781 190.324219 L 208.175781 190.957031 L 269.84375 216.113281 L 63.882812 231.945312 "/><path style=" stroke:none;fill-rule:nonzero;fill:#c6c6c6;fill-opacity:1;" d="M 22.863281 158.5 C 25.847656 171.945312 24.210938 189.425781 21.4375 192.351562 C 21.4375 192.351562 57.511719 221.492188 66.894531 229.824219 L 73.964844 195.007812 L 22.863281 158.5 "/><path style=" stroke:none;fill-rule:nonzero;fill:#e17100;fill-opacity:1;" d="M 21.335938 159.078125 L 63.347656 195.441406 C 63.582031 195.589844 63.804688 195.75 63.90625 195.988281 C 67.824219 205.207031 67.292969 211.082031 67.519531 216.34375 C 67.949219 227.730469 62.234375 230.695312 62.234375 230.695312 L 64.148438 232.332031 L 270.351562 218.6875 C 275.195312 218.574219 275.242188 216.902344 275.613281 214.339844 C 275.972656 211.878906 279.710938 184.367188 274.734375 180.761719 C 272.34375 179.027344 199.6875 155.292969 199.601562 155.296875 L 21.339844 156.160156 C 20.277344 156.285156 20.285156 158.871094 21.335938 159.078125 "/><path style=" stroke:none;fill-rule:nonzero;fill:#fef3c6;fill-opacity:1;" d="M 246.101562 195.277344 L 287.742188 160.375 C 289.828125 158.476562 288.140625 158.171875 286.089844 158.25 L 105.429688 159.75 L 44.796875 179.148438 L 246.101562 195.277344 "/><path style=" stroke:none;fill-rule:nonzero;fill:#c6c6c6;fill-opacity:1;" d="M 286.722656 135.453125 C 283.609375 146.167969 283.03125 156.429688 285.699219 158.804688 C 285.699219 158.804688 248.671875 191.921875 240.425781 194.121094 L 235.992188 163.78125 L 286.722656 135.453125 "/><path style=" stroke:none;fill-rule:nonzero;fill:#fef3c6;fill-opacity:1;" d="M 287.195312 135.769531 L 246.964844 164.476562 C 246.734375 164.589844 246.511719 164.714844 246.410156 164.90625 C 242.445312 172.226562 242.882812 176.929688 242.578125 181.132812 C 241.992188 190.230469 247.121094 193.15625 247.121094 193.15625 L 245.789062 194.859375 L 46.011719 183.921875 C 41.28125 183.777344 41.257812 182.441406 40.929688 180.386719 C 40.617188 178.417969 37.367188 156.683594 42.285156 153.859375 C 44.644531 152.503906 89.640625 132.894531 89.71875 132.898438 L 287.347656 133.722656 C 288.390625 133.839844 288.222656 135.613281 287.195312 135.769531 "/><path style=" stroke:none;fill-rule:nonzero;fill:#e17100;fill-opacity:1;" d="M 63.660156 165.078125 C 61.230469 165.078125 59.257812 167.050781 59.257812 169.480469 C 59.257812 171.910156 61.230469 173.882812 63.660156 173.882812 C 66.09375 173.882812 68.0625 171.910156 68.0625 169.480469 C 68.0625 167.050781 66.09375 165.078125 63.660156 165.078125 Z M 228.4375 174.839844 C 226.007812 174.839844 224.035156 176.808594 224.035156 179.242188 C 224.035156 181.675781 226.007812 183.644531 228.4375 183.644531 C 230.871094 183.644531 232.839844 181.675781 232.839844 179.242188 C 232.839844 176.808594 230.871094 174.839844 228.4375 174.839844 Z M 75.113281 167.445312 C 75.113281 168.105469 75.628906 168.660156 76.296875 168.703125 L 216.664062 177.195312 C 217.359375 177.238281 217.953125 176.710938 217.996094 176.015625 C 218.039062 175.328125 217.511719 174.726562 216.816406 174.683594 L 76.445312 166.191406 C 75.753906 166.148438 75.160156 166.675781 75.117188 167.371094 C 75.113281 167.394531 75.113281 167.421875 75.113281 167.445312 Z M 75.117188 171.929688 C 75.160156 171.238281 75.753906 170.710938 76.445312 170.75 L 216.816406 179.246094 C 217.511719 179.285156 218.039062 179.898438 217.996094 180.574219 C 217.953125 181.269531 217.359375 181.796875 216.664062 181.753906 L 76.296875 173.261719 C 75.628906 173.222656 75.113281 172.667969 75.113281 172.007812 C 75.113281 171.980469 75.113281 171.957031 75.117188 171.929688 "/><path style=" stroke:none;fill-rule:nonzero;fill:#161515;fill-opacity:1;" d="M 240.894531 162.929688 L 284.613281 128.519531 C 285.527344 128.375 285.464844 126.863281 284.527344 126.835938 L 100.21875 129.765625 L 39.589844 147.867188 L 240.894531 162.929688 "/><path style=" stroke:none;fill-rule:nonzero;fill:#c6c6c6;fill-opacity:1;" d="M 281.195312 105.601562 C 278.082031 115.601562 278.523438 125.632812 281.195312 127.847656 C 281.195312 127.847656 243.464844 159.792969 235.21875 161.847656 L 230.785156 133.527344 L 281.195312 105.601562 "/><path style=" stroke:none;fill-rule:nonzero;fill:#161515;fill-opacity:1;" d="M 281.898438 105.402344 L 242.21875 135.414062 C 241.992188 135.523438 241.769531 135.636719 241.667969 135.8125 C 237.703125 142.648438 238.136719 147.039062 237.835938 150.960938 C 237.246094 159.453125 242.242188 161.980469 242.242188 161.980469 L 240.894531 162.929688 L 39.5625 152.335938 C 34.832031 152.199219 34.8125 150.953125 34.484375 149.035156 C 34.171875 147.195312 30.207031 124.421875 35.121094 121.78125 C 37.484375 120.515625 79.390625 105.261719 106.253906 103.222656 L 281.9375 103.222656 C 282.976562 103.328125 282.929688 105.253906 281.898438 105.402344 "/><path style=" stroke:none;fill-rule:nonzero;fill:#1d4ed8;fill-opacity:1;" d="M 220.941406 135.035156 C 220.027344 139.910156 219.460938 145.046875 219.460938 149.964844 C 219.460938 153.652344 219.78125 157.207031 220.492188 160.425781 C 220.515625 160.542969 220.636719 160.628906 220.773438 160.640625 L 223.792969 160.808594 C 223.996094 160.820312 224.152344 160.671875 224.113281 160.503906 C 222.359375 153.222656 222.878906 143.78125 224.5 135.238281 C 224.527344 135.085938 224.394531 134.949219 224.214844 134.941406 L 221.261719 134.816406 C 221.105469 134.8125 220.964844 134.902344 220.941406 135.035156 Z M 207.449219 134.449219 C 205.773438 139.734375 205.292969 144.1875 205.292969 149.433594 C 205.292969 153.042969 205.441406 156.289062 206.316406 159.628906 C 206.34375 159.746094 206.460938 159.828125 206.597656 159.835938 L 216.148438 160.378906 C 216.355469 160.390625 216.515625 160.230469 216.464844 160.058594 C 214.550781 153.488281 214.523438 144.5 217.085938 134.949219 C 217.128906 134.792969 216.996094 134.636719 216.804688 134.632812 L 207.761719 134.253906 C 207.617188 134.246094 207.484375 134.332031 207.449219 134.449219 Z M 199.324219 133.902344 L 202.273438 134.027344 C 202.457031 134.035156 202.589844 134.171875 202.5625 134.324219 C 200.9375 142.6875 200.355469 151.964844 201.929688 159.25 C 201.964844 159.417969 201.808594 159.566406 201.609375 159.554688 L 198.609375 159.382812 C 198.464844 159.375 198.347656 159.285156 198.324219 159.167969 C 197.722656 156.140625 197.449219 152.84375 197.449219 149.433594 C 197.449219 144.382812 198.046875 139.109375 199.003906 134.121094 C 199.027344 133.988281 199.167969 133.898438 199.324219 133.902344 "/><g clip-rule="nonzero" clip-path="url(#3b4c7c2bc4)"><path style=" stroke:none;fill-rule:nonzero;fill:#e17100;fill-opacity:1;" d="M 251.953125 136.425781 L 298.027344 97.054688 C 298.957031 96.847656 298.863281 94.828125 297.90625 94.800781 L 107.65625 95.433594 L 45.988281 120.59375 L 251.953125 136.425781 "/></g><path style=" stroke:none;fill-rule:nonzero;fill:#c6c6c6;fill-opacity:1;" d="M 292.96875 62.976562 C 289.984375 76.425781 291.621094 93.902344 294.394531 96.828125 C 294.394531 96.828125 258.320312 125.96875 248.9375 134.300781 L 241.867188 99.484375 L 292.96875 62.976562 "/><path style=" stroke:none;fill-rule:nonzero;fill:#e17100;fill-opacity:1;" d="M 294.5 63.558594 L 252.484375 99.917969 C 252.253906 100.066406 252.027344 100.226562 251.925781 100.464844 C 248.007812 109.683594 248.542969 115.558594 248.3125 120.820312 C 247.882812 132.210938 253.597656 135.171875 253.597656 135.171875 L 251.683594 136.8125 L 45.484375 125.597656 C 40.640625 125.488281 40.59375 123.816406 40.21875 121.253906 C 39.863281 118.792969 36.347656 86.773438 41.324219 83.167969 C 43.710938 81.433594 113.171875 70.546875 113.253906 70.550781 L 294.492188 60.636719 C 295.554688 60.765625 295.550781 63.347656 294.5 63.558594 "/><path style=" stroke:none;fill-rule:nonzero;fill:#fef3c6;fill-opacity:1;" d="M 105.007812 103.628906 C 104.71875 106.980469 104.71875 110.367188 105.007812 113.71875 C 105.152344 115.449219 106.402344 116.847656 107.679688 116.847656 C 107.835938 116.847656 107.988281 116.847656 108.140625 116.847656 C 109.421875 116.847656 110.253906 115.449219 110.109375 113.71875 C 109.820312 110.367188 109.820312 106.980469 110.109375 103.628906 C 110.253906 101.898438 109.421875 100.496094 108.140625 100.496094 C 107.988281 100.496094 107.835938 100.496094 107.679688 100.496094 C 106.402344 100.496094 105.152344 101.898438 105.007812 103.628906 Z M 113.238281 104.046875 C 112.953125 107.398438 112.953125 110.785156 113.238281 114.136719 C 113.386719 115.867188 114.636719 117.265625 115.914062 117.269531 C 116.066406 117.269531 116.222656 117.269531 116.375 117.269531 C 117.652344 117.265625 118.488281 115.867188 118.339844 114.136719 C 118.050781 110.785156 118.050781 107.398438 118.339844 104.046875 C 118.488281 102.320312 117.652344 100.917969 116.375 100.917969 C 116.222656 100.917969 116.066406 100.917969 115.914062 100.917969 C 114.636719 100.917969 113.386719 102.320312 113.238281 104.046875 Z M 122.34375 104.675781 C 122.058594 108.027344 122.058594 111.414062 122.34375 114.765625 C 122.488281 116.496094 123.742188 117.898438 125.015625 117.898438 C 125.171875 117.898438 125.328125 117.898438 125.480469 117.898438 C 126.757812 117.898438 127.589844 116.496094 127.445312 114.765625 C 127.15625 111.414062 127.15625 108.027344 127.445312 104.675781 C 127.589844 102.945312 126.757812 101.542969 125.480469 101.546875 C 125.328125 101.546875 125.171875 101.546875 125.015625 101.546875 C 123.742188 101.546875 122.488281 102.949219 122.34375 104.675781 Z M 130.578125 105.09375 C 130.289062 108.449219 130.289062 111.835938 130.578125 115.1875 C 130.722656 116.914062 131.976562 118.316406 133.25 118.316406 C 133.40625 118.316406 133.558594 118.316406 133.714844 118.316406 C 134.992188 118.316406 135.828125 116.914062 135.679688 115.1875 C 135.390625 111.835938 135.390625 108.449219 135.679688 105.09375 C 135.828125 103.367188 134.992188 101.964844 133.714844 101.964844 C 133.558594 101.964844 133.40625 101.964844 133.25 101.964844 C 131.976562 101.964844 130.722656 103.367188 130.578125 105.09375 Z M 152.488281 105.933594 C 152.199219 109.285156 152.199219 112.671875 152.488281 116.023438 C 152.636719 117.753906 153.886719 119.15625 155.164062 119.15625 C 155.316406 119.15625 155.46875 119.15625 155.625 119.15625 C 156.902344 119.15625 157.738281 117.753906 157.589844 116.023438 C 157.300781 112.671875 157.300781 109.285156 157.589844 105.933594 C 157.738281 104.203125 156.902344 102.800781 155.625 102.800781 C 155.46875 102.800781 155.316406 102.800781 155.164062 102.800781 C 153.886719 102.804688 152.636719 104.203125 152.488281 105.933594 Z M 160.722656 106.351562 C 160.433594 109.703125 160.433594 113.09375 160.722656 116.445312 C 160.871094 118.175781 162.121094 119.574219 163.394531 119.574219 C 163.550781 119.574219 163.703125 119.574219 163.859375 119.574219 C 165.136719 119.574219 165.972656 118.175781 165.824219 116.445312 C 165.535156 113.09375 165.535156 109.703125 165.824219 106.351562 C 165.972656 104.625 165.136719 103.222656 163.859375 103.222656 C 163.703125 103.222656 163.550781 103.222656 163.394531 103.222656 C 162.121094 103.222656 160.871094 104.625 160.722656 106.351562 Z M 169.828125 106.984375 C 169.539062 110.335938 169.539062 113.71875 169.828125 117.070312 C 169.972656 118.800781 171.226562 120.203125 172.5 120.203125 C 172.65625 120.203125 172.808594 120.203125 172.964844 120.203125 C 174.242188 120.203125 175.078125 118.800781 174.925781 117.070312 C 174.640625 113.71875 174.640625 110.335938 174.925781 106.984375 C 175.078125 105.253906 174.242188 103.851562 172.964844 103.851562 C 172.808594 103.851562 172.65625 103.851562 172.5 103.851562 C 171.226562 103.851562 169.972656 105.253906 169.828125 106.984375 Z M 178.058594 107.402344 C 177.773438 110.753906 177.773438 114.140625 178.058594 117.492188 C 178.207031 119.21875 179.460938 120.621094 180.734375 120.621094 C 180.886719 120.621094 181.042969 120.621094 181.195312 120.621094 C 182.472656 120.621094 183.308594 119.222656 183.160156 117.492188 C 182.875 114.140625 182.875 110.753906 183.160156 107.402344 C 183.308594 105.671875 182.472656 104.269531 181.195312 104.269531 C 181.042969 104.269531 180.886719 104.269531 180.734375 104.269531 C 179.460938 104.273438 178.207031 105.671875 178.058594 107.402344 Z M 58.296875 107.308594 C 58.296875 107.460938 58.308594 107.617188 58.332031 107.773438 C 58.449219 108.628906 58.878906 109.300781 59.226562 109.839844 L 67.867188 121.070312 C 68.238281 121.65625 69.015625 121.828125 69.601562 121.453125 C 70.1875 121.078125 70.359375 120.300781 69.984375 119.714844 L 62.890625 108.628906 C 62.652344 108.257812 62.410156 107.875 62.367188 107.566406 C 62.304688 107.105469 62.636719 106.492188 62.984375 105.898438 C 65.765625 101.140625 68.882812 96.523438 72.246094 92.164062 C 72.667969 91.617188 72.570312 90.828125 72.019531 90.402344 C 71.46875 89.976562 70.679688 90.078125 70.253906 90.628906 C 66.824219 95.070312 62.101562 99.636719 59.269531 104.484375 C 58.894531 105.121094 58.296875 106.140625 58.296875 107.308594 Z M 71.085938 108.566406 C 71.085938 108.722656 71.097656 108.875 71.117188 109.03125 C 71.238281 109.886719 71.667969 110.558594 72.015625 111.097656 L 80.652344 122.328125 C 81.027344 122.914062 81.804688 123.085938 82.390625 122.710938 C 82.976562 122.335938 83.144531 121.558594 82.773438 120.972656 L 75.679688 109.886719 C 75.441406 109.515625 75.199219 109.132812 75.152344 108.824219 C 75.09375 108.363281 75.421875 107.75 75.773438 107.152344 C 78.554688 102.398438 81.667969 97.78125 85.035156 93.421875 C 85.457031 92.875 85.359375 92.085938 84.808594 91.660156 C 84.253906 91.234375 83.46875 91.335938 83.042969 91.886719 C 79.613281 96.328125 74.890625 100.894531 72.054688 105.742188 C 71.683594 106.378906 71.085938 107.398438 71.085938 108.566406 Z M 82.617188 108.566406 C 82.617188 108.722656 82.628906 108.875 82.648438 109.03125 C 82.765625 109.886719 83.199219 110.558594 83.542969 111.097656 L 92.183594 122.328125 C 92.558594 122.914062 93.335938 123.085938 93.921875 122.710938 C 94.507812 122.335938 94.675781 121.558594 94.300781 120.972656 L 87.207031 109.886719 C 86.972656 109.515625 86.726562 109.132812 86.683594 108.824219 C 86.625 108.363281 86.953125 107.75 87.300781 107.152344 C 90.082031 102.398438 93.199219 97.78125 96.566406 93.421875 C 96.988281 92.875 96.886719 92.085938 96.335938 91.660156 C 95.789062 91.234375 94.996094 91.335938 94.570312 91.886719 C 91.140625 96.328125 86.421875 100.894531 83.585938 105.742188 C 83.210938 106.378906 82.617188 107.398438 82.617188 108.566406 Z M 199.488281 114.910156 C 199.488281 115.0625 199.5 115.214844 199.523438 115.375 C 199.644531 116.226562 200.070312 116.898438 200.417969 117.4375 L 209.054688 128.671875 C 209.429688 129.257812 210.207031 129.425781 210.792969 129.050781 C 211.378906 128.679688 211.550781 127.902344 211.175781 127.316406 L 204.082031 116.226562 C 203.84375 115.859375 203.601562 115.476562 203.558594 115.167969 C 203.496094 114.703125 203.828125 114.09375 204.175781 113.496094 C 206.957031 108.742188 210.074219 104.125 213.4375 99.765625 C 213.859375 99.21875 213.761719 98.429688 213.210938 98.003906 C 212.660156 97.578125 211.871094 97.679688 211.445312 98.226562 C 208.015625 102.667969 203.292969 107.238281 200.460938 112.082031 C 200.085938 112.722656 199.488281 113.742188 199.488281 114.910156 Z M 212.277344 116.167969 C 212.277344 116.320312 212.289062 116.472656 212.308594 116.632812 C 212.429688 117.484375 212.859375 118.15625 213.207031 118.695312 L 221.84375 129.929688 C 222.21875 130.515625 222.996094 130.683594 223.582031 130.3125 C 224.167969 129.9375 224.335938 129.160156 223.964844 128.574219 L 216.871094 117.484375 C 216.632812 117.117188 216.390625 116.734375 216.34375 116.425781 C 216.285156 115.960938 216.613281 115.347656 216.964844 114.753906 C 219.746094 110 222.859375 105.382812 226.226562 101.023438 C 226.648438 100.472656 226.550781 99.6875 225.996094 99.261719 C 225.449219 98.835938 224.660156 98.9375 224.234375 99.484375 C 220.804688 103.929688 216.082031 108.496094 213.246094 113.339844 C 212.875 113.980469 212.277344 115 212.277344 116.167969 Z M 224.777344 113.339844 C 227.613281 108.496094 232.335938 103.929688 235.765625 99.484375 C 236.1875 98.9375 236.980469 98.835938 237.527344 99.261719 C 238.078125 99.6875 238.179688 100.472656 237.753906 101.023438 C 234.390625 105.382812 231.273438 110 228.492188 114.753906 C 228.148438 115.347656 227.8125 115.960938 227.875 116.425781 C 227.917969 116.734375 228.164062 117.117188 228.398438 117.484375 L 235.492188 128.574219 C 235.867188 129.160156 235.699219 129.9375 235.113281 130.3125 C 234.527344 130.683594 233.75 130.515625 233.375 129.929688 L 224.734375 118.695312 C 224.390625 118.15625 223.960938 117.484375 223.839844 116.632812 C 223.820312 116.472656 223.808594 116.320312 223.808594 116.167969 C 223.808594 115 224.40625 113.980469 224.777344 113.339844 "/><path style=" stroke:none;fill-rule:nonzero;fill:#1d4ed8;fill-opacity:1;" d="M 232.722656 98.1875 L 278.234375 60.574219 C 279.148438 60.367188 279.085938 58.230469 278.152344 58.1875 L 92.054688 51.160156 L 31.421875 76.832031 L 232.722656 98.1875 "/><path style=" stroke:none;fill-rule:nonzero;fill:#c6c6c6;fill-opacity:1;" d="M 274.035156 28.347656 C 270.921875 42.53125 272.148438 56.484375 274.816406 59.621094 C 274.816406 59.621094 235.296875 93.738281 227.050781 96.652344 L 222.617188 56.496094 L 274.035156 28.347656 "/><g clip-rule="nonzero" clip-path="url(#78d59734e6)"><path style=" stroke:none;fill-rule:nonzero;fill:#1d4ed8;fill-opacity:1;" d="M 276.070312 27.464844 L 233.355469 56.605469 C 233.125 56.761719 232.90625 56.921875 232.800781 57.175781 C 228.835938 66.867188 229.457031 74.695312 229.160156 80.257812 C 228.566406 92.300781 233.699219 96.167969 233.699219 96.167969 L 232.214844 97.226562 L 30.886719 83.972656 C 26.15625 83.78125 25.457031 81.675781 25.128906 78.957031 C 24.816406 76.347656 22.707031 44.941406 27.621094 41.203125 C 29.984375 39.40625 67.136719 21.746094 79.09375 20.882812 L 276.421875 24.554688 C 277.460938 24.707031 277.042969 26.953125 276.070312 27.464844 "/></g><path style=" stroke:none;fill-rule:nonzero;fill:#c6c6c6;fill-opacity:1;" d="M 116.738281 77.210938 C 120.515625 81.632812 126.246094 84.21875 132.0625 84.128906 C 132.6875 84.117188 133.378906 84.058594 133.769531 83.6875 C 133.984375 83.480469 134.089844 83.253906 134.089844 82.980469 C 134.089844 82.929688 134.085938 82.871094 134.074219 82.8125 C 133.9375 81.820312 132.710938 80.632812 131.609375 80.0625 C 125.550781 76.925781 120.210938 75.089844 114.496094 74.199219 C 115.207031 75.246094 115.945312 76.28125 116.738281 77.210938 Z M 143.058594 72.949219 C 143.09375 72.941406 143.128906 72.925781 143.164062 72.925781 C 143.226562 72.921875 143.300781 72.925781 143.367188 72.925781 C 145.878906 72.710938 148.367188 72.253906 150.789062 71.535156 C 152.394531 71.058594 154.222656 70.402344 155.570312 69.144531 C 156.648438 68.136719 157.253906 66.820312 157.253906 65.589844 C 157.253906 65.269531 157.210938 64.953125 157.128906 64.652344 C 156.527344 62.515625 153.929688 61.503906 151.871094 61.792969 C 149.507812 62.121094 147.503906 63.722656 145.851562 65.242188 C 142.429688 68.390625 136.894531 71.351562 132.167969 72.246094 C 135.742188 72.988281 139.421875 73.230469 143.058594 72.949219 Z M 178.019531 84.148438 L 178.234375 84.1875 C 181.019531 84.730469 185.226562 85.550781 189.203125 83.949219 C 191.394531 83.066406 193.488281 80.832031 193.488281 78.476562 C 193.488281 78.308594 193.476562 78.144531 193.453125 77.980469 C 193.371094 77.308594 193.011719 76.773438 192.363281 76.34375 C 190.5625 75.152344 187.214844 75.230469 186.183594 75.523438 C 183.828125 76.191406 181.585938 76.945312 179.421875 77.671875 C 175.457031 79.003906 171.667969 80.28125 167.996094 80.71875 C 171.226562 82.144531 174.554688 83.476562 178.019531 84.148438 Z M 113.875 64.09375 C 115.640625 64.613281 117.179688 65.621094 118.667969 66.589844 C 119 66.808594 119.335938 67.023438 119.671875 67.234375 C 122.28125 68.882812 125.09375 70.1875 128.023438 71.144531 C 132.734375 71.992188 140.746094 68.234375 145 64.316406 C 146.792969 62.664062 148.992188 60.925781 151.695312 60.546875 C 154.335938 60.179688 157.539062 61.484375 158.335938 64.308594 C 158.875 66.222656 158.125 68.476562 156.429688 70.0625 C 154.886719 71.5 152.894531 72.222656 151.148438 72.742188 C 150.261719 73.003906 149.367188 73.21875 148.46875 73.417969 C 151.820312 74.003906 155.394531 75.027344 157.523438 75.988281 L 165.550781 79.621094 C 169.773438 79.589844 174.0625 78.148438 179.019531 76.480469 C 181.203125 75.746094 183.453125 74.988281 185.839844 74.3125 C 186.980469 73.988281 190.800781 73.804688 193.054688 75.292969 C 194.015625 75.929688 194.570312 76.78125 194.703125 77.820312 C 195.113281 81.078125 192.417969 84.011719 189.671875 85.117188 C 185.351562 86.855469 180.925781 85.992188 177.996094 85.421875 L 177.78125 85.382812 C 173.339844 84.519531 169.1875 82.644531 165.167969 80.828125 C 165.160156 80.824219 165.152344 80.820312 165.144531 80.816406 L 157.003906 77.132812 C 153.867188 75.714844 147.152344 74.105469 143.363281 74.179688 C 134.894531 74.871094 126.195312 72.839844 119 68.296875 C 118.660156 68.085938 118.320312 67.863281 117.984375 67.644531 C 116.503906 66.679688 115.109375 65.769531 113.519531 65.300781 C 110.796875 64.5 107.839844 64.28125 105.289062 64.644531 C 109.0625 66.070312 111.351562 69.472656 113.550781 72.789062 C 119.84375 73.632812 125.601562 75.539062 132.1875 78.945312 C 133.585938 79.671875 135.113281 81.171875 135.320312 82.636719 C 135.429688 83.394531 135.191406 84.070312 134.636719 84.597656 C 133.929688 85.269531 132.949219 85.371094 132.082031 85.386719 C 125.894531 85.480469 119.800781 82.730469 115.78125 78.027344 C 114.648438 76.699219 113.644531 75.199219 112.671875 73.738281 C 112.667969 73.730469 112.660156 73.71875 112.65625 73.710938 C 112.625 73.664062 112.597656 73.625 112.570312 73.578125 C 110.34375 70.226562 108.242188 67.058594 104.757812 65.78125 C 100.890625 64.367188 96.675781 65.867188 92.59375 67.320312 C 91.507812 67.707031 90.382812 68.109375 89.277344 68.449219 C 81.398438 70.871094 72.585938 70.273438 65.101562 66.808594 C 64.875 66.703125 64.738281 66.476562 64.738281 66.238281 C 64.738281 66.148438 64.757812 66.058594 64.796875 65.976562 C 64.941406 65.660156 65.316406 65.523438 65.632812 65.667969 C 72.835938 69.003906 81.320312 69.578125 88.910156 67.246094 C 89.984375 66.914062 91.097656 66.519531 92.175781 66.136719 C 95.570312 64.925781 99.058594 63.691406 102.496094 64.007812 C 106.277344 62.714844 110.839844 63.199219 113.875 64.09375 Z M 129.964844 64.628906 C 131.03125 64.828125 132.234375 64.496094 133.1875 63.738281 C 134.132812 62.988281 134.699219 61.949219 134.742188 60.886719 C 134.746094 60.84375 134.746094 60.800781 134.746094 60.757812 C 134.746094 59.722656 134.230469 58.660156 133.347656 57.886719 C 132.441406 57.09375 131.328125 56.742188 130.285156 56.925781 C 129.007812 57.148438 127.597656 58.296875 126.851562 59.71875 C 126.324219 60.730469 126.222656 61.695312 126.570312 62.441406 C 126.882812 63.117188 128.394531 64.332031 129.964844 64.628906 Z M 125.109375 61.476562 C 125.109375 60.730469 125.320312 59.933594 125.738281 59.136719 C 126.664062 57.363281 128.402344 55.976562 130.066406 55.683594 C 131.484375 55.4375 132.980469 55.894531 134.175781 56.941406 C 135.378906 57.992188 136.054688 59.476562 136 60.9375 C 135.9375 62.367188 135.199219 63.746094 133.96875 64.722656 C 132.71875 65.71875 131.171875 66.136719 129.730469 65.863281 C 127.820312 65.503906 125.929688 64.050781 125.429688 62.96875 C 125.21875 62.511719 125.109375 62.003906 125.109375 61.476562 Z M 178.820312 69.074219 C 181.175781 68.871094 183.222656 66.703125 183.289062 64.339844 C 183.289062 64.296875 183.292969 64.257812 183.292969 64.21875 C 183.292969 61.898438 181.394531 59.691406 179.09375 59.359375 C 178.367188 59.257812 177.3125 59.230469 176.417969 59.707031 C 173.707031 61.148438 173.65625 63.644531 173.621094 65.308594 C 173.59375 66.34375 174.199219 67.144531 174.710938 67.625 C 175.765625 68.613281 177.414062 69.195312 178.820312 69.074219 Z M 172.363281 65.351562 C 172.363281 65.324219 172.363281 65.296875 172.363281 65.269531 C 172.398438 63.5625 172.46875 60.386719 175.828125 58.597656 C 177.019531 57.960938 178.359375 57.984375 179.269531 58.113281 C 182.265625 58.542969 184.632812 61.328125 184.546875 64.375 C 184.460938 67.398438 181.941406 70.070312 178.925781 70.328125 C 177.164062 70.480469 175.167969 69.777344 173.851562 68.539062 C 172.886719 67.636719 172.363281 66.511719 172.363281 65.351562 Z M 98.113281 77.574219 C 99.679688 77.859375 101.195312 77.222656 102.269531 75.820312 C 102.53125 75.480469 102.878906 74.398438 102.878906 73.921875 C 102.878906 73.917969 102.878906 73.914062 102.878906 73.914062 C 102.878906 72.960938 102.351562 72.308594 101.902344 71.925781 C 101.011719 71.15625 99.644531 70.78125 98.429688 70.96875 C 97.46875 71.117188 96.578125 71.734375 95.992188 72.664062 C 95.402344 73.601562 95.226562 74.675781 95.511719 75.617188 C 95.789062 76.539062 96.859375 77.34375 98.113281 77.574219 Z M 94.121094 74.699219 C 94.121094 73.78125 94.394531 72.839844 94.925781 71.992188 C 95.707031 70.757812 96.914062 69.929688 98.238281 69.722656 C 99.828125 69.476562 101.546875 69.957031 102.726562 70.96875 C 103.636719 71.753906 104.140625 72.796875 104.140625 73.914062 C 104.140625 73.917969 104.140625 73.921875 104.140625 73.925781 C 104.136719 74.601562 103.726562 75.992188 103.269531 76.585938 C 101.898438 78.375 99.933594 79.183594 97.886719 78.808594 C 96.164062 78.492188 94.722656 77.355469 94.304688 75.980469 C 94.179688 75.566406 94.121094 75.136719 94.121094 74.699219 Z M 152.335938 84.746094 C 153.4375 83.769531 153.765625 82.128906 153.515625 81.089844 C 153.335938 80.339844 152.527344 79.945312 152.0625 79.773438 C 150.621094 79.25 148.648438 79.417969 147.667969 80.144531 C 146.800781 80.785156 146.300781 82.160156 146.476562 83.417969 C 146.542969 83.902344 146.78125 84.761719 147.605469 85.074219 C 149.609375 85.824219 151.246094 85.710938 152.335938 84.746094 Z M 145.226562 83.589844 C 145.199219 83.363281 145.183594 83.136719 145.183594 82.910156 C 145.183594 81.414062 145.847656 79.925781 146.917969 79.132812 C 148.246094 78.152344 150.640625 77.917969 152.492188 78.59375 C 153.703125 79.035156 154.503906 79.816406 154.738281 80.792969 C 155.082031 82.230469 154.652344 84.371094 153.167969 85.6875 C 152.148438 86.589844 150.28125 87.417969 147.164062 86.25 C 146.117188 85.859375 145.410156 84.890625 145.226562 83.589844 Z M 200.097656 80.394531 C 200.097656 85.707031 200.5625 90.792969 201.640625 95.214844 L 205.355469 95.457031 C 202.261719 84.332031 203.765625 67.558594 206.730469 54.800781 C 205.566406 54.71875 204.371094 54.640625 203.144531 54.558594 C 201.332031 62.476562 200.097656 71.730469 200.097656 80.394531 Z M 43.050781 44.707031 C 41.675781 51.511719 40.789062 59.816406 40.789062 68.054688 C 40.789062 73.832031 41.226562 79.5625 42.238281 84.722656 L 45.894531 84.960938 C 43.289062 72.707031 44.269531 56.277344 46.632812 44.871094 C 45.382812 44.8125 44.1875 44.757812 43.050781 44.707031 Z M 210.710938 80.394531 C 210.710938 85.992188 211.230469 91.34375 212.433594 95.921875 L 216.175781 96.167969 C 212.871094 85.257812 214.257812 68.453125 217.175781 55.503906 C 216.035156 55.425781 214.839844 55.34375 213.597656 55.261719 C 211.871094 63.023438 210.710938 71.984375 210.710938 80.394531 Z M 53.371094 45.203125 C 54.53125 45.261719 55.722656 45.320312 56.941406 45.386719 C 54.683594 57.214844 53.898438 73.753906 56.824219 85.683594 L 53.140625 85.4375 C 51.898438 79.894531 51.363281 73.589844 51.363281 67.230469 C 51.363281 59.515625 52.144531 51.746094 53.371094 45.203125 "/><path style=" stroke:none;fill-rule:nonzero;fill:#c6c6c6;fill-opacity:1;" d="M 92.910156 217.101562 L 83.0625 217.621094 C 81.617188 217.699219 80.371094 216.578125 80.296875 215.132812 L 80.296875 215.117188 C 80.222656 213.671875 81.339844 212.425781 82.785156 212.351562 L 92.628906 211.832031 C 94.078125 211.753906 95.320312 212.875 95.398438 214.320312 L 95.398438 214.335938 C 95.472656 215.78125 94.351562 217.027344 92.910156 217.101562 Z M 101.265625 196.761719 C 101.761719 196.703125 102.242188 196.933594 102.496094 197.363281 C 104.117188 200.105469 109.445312 210.769531 105.296875 226.492188 C 105.152344 227.042969 104.648438 227.421875 104.082031 227.421875 L 103.21875 227.421875 C 102.335938 227.421875 101.71875 226.527344 102.054688 225.703125 C 103.648438 221.742188 106.589844 211.320312 100.296875 198.566406 C 99.914062 197.789062 100.410156 196.863281 101.265625 196.761719 Z M 108.433594 196.265625 C 108.925781 196.203125 109.40625 196.4375 109.660156 196.867188 C 111.277344 199.605469 116.609375 210.273438 112.460938 225.996094 C 112.316406 226.546875 111.8125 226.925781 111.246094 226.925781 L 110.386719 226.925781 C 109.496094 226.925781 108.886719 226.03125 109.214844 225.207031 C 110.8125 221.246094 113.753906 210.824219 107.460938 198.070312 C 107.074219 197.292969 107.570312 196.371094 108.433594 196.265625 Z M 115.707031 195.96875 C 116.203125 195.90625 116.683594 196.140625 116.9375 196.566406 C 118.558594 199.308594 123.886719 209.976562 119.738281 225.695312 C 119.59375 226.246094 119.09375 226.625 118.523438 226.625 L 117.660156 226.625 C 116.777344 226.625 116.164062 225.730469 116.496094 224.90625 C 118.089844 220.945312 121.03125 210.523438 114.738281 197.773438 C 114.355469 196.992188 114.851562 196.070312 115.707031 195.96875 Z M 261.777344 206.589844 L 257 202.558594 L 261.414062 197.851562 L 266.195312 201.886719 Z M 254.09375 203.382812 L 253.421875 202.816406 L 254.042969 202.15625 L 254.714844 202.722656 Z M 246.722656 207.691406 L 241.945312 203.65625 L 246.359375 198.949219 L 251.140625 202.984375 Z M 239.042969 204.484375 L 238.371094 203.917969 L 238.992188 203.257812 L 239.660156 203.824219 Z M 231.671875 208.789062 L 226.894531 204.753906 L 231.3125 200.050781 L 236.089844 204.082031 Z M 223.992188 205.582031 L 223.320312 205.019531 L 223.941406 204.355469 L 224.613281 204.921875 Z M 216.621094 209.890625 L 211.84375 205.855469 L 216.261719 201.152344 L 221.039062 205.183594 Z M 208.941406 206.683594 L 208.273438 206.117188 L 208.890625 205.453125 L 209.5625 206.023438 Z M 201.574219 210.988281 L 196.796875 206.953125 L 201.210938 202.25 L 205.988281 206.28125 Z M 193.890625 207.78125 L 193.222656 207.214844 L 193.84375 206.554688 L 194.511719 207.121094 Z M 186.523438 212.085938 L 181.75 208.054688 L 186.164062 203.351562 L 190.9375 207.382812 Z M 178.847656 208.878906 L 178.175781 208.316406 L 178.796875 207.65625 L 179.464844 208.21875 Z M 171.480469 213.1875 L 166.703125 209.152344 L 171.117188 204.449219 L 175.890625 208.480469 Z M 163.796875 209.980469 L 163.128906 209.414062 L 163.75 208.753906 L 164.417969 209.320312 Z M 156.429688 214.285156 L 151.652344 210.253906 L 156.066406 205.546875 L 160.84375 209.582031 Z M 148.75 211.082031 L 148.078125 210.511719 L 148.699219 209.851562 L 149.371094 210.421875 Z M 141.378906 215.386719 L 136.605469 211.351562 L 141.019531 206.644531 L 145.796875 210.679688 Z M 269.53125 202.605469 L 268.476562 201.71875 L 269.449219 200.683594 C 269.734375 200.378906 269.785156 199.816406 269.566406 199.425781 C 269.347656 199.035156 268.941406 198.960938 268.65625 199.261719 L 267.292969 200.714844 L 261.707031 196 C 261.476562 195.808594 261.183594 195.828125 260.972656 196.054688 L 255.8125 201.554688 L 254.335938 200.308594 C 254.105469 200.113281 253.8125 200.136719 253.601562 200.363281 L 252.238281 201.816406 L 246.652344 197.101562 C 246.421875 196.910156 246.128906 196.929688 245.921875 197.15625 L 240.757812 202.65625 L 239.28125 201.410156 C 239.050781 201.214844 238.761719 201.234375 238.546875 201.460938 L 237.183594 202.914062 L 231.601562 198.203125 C 231.371094 198.007812 231.082031 198.03125 230.871094 198.253906 L 225.710938 203.753906 L 224.234375 202.507812 C 224.003906 202.3125 223.710938 202.335938 223.496094 202.5625 L 222.136719 204.015625 L 216.550781 199.300781 C 216.320312 199.109375 216.03125 199.128906 215.820312 199.355469 L 210.660156 204.851562 L 209.183594 203.605469 C 208.953125 203.414062 208.660156 203.433594 208.449219 203.660156 L 207.085938 205.117188 L 201.503906 200.402344 C 201.273438 200.207031 200.980469 200.226562 200.769531 200.457031 L 195.609375 205.953125 L 194.132812 204.707031 C 193.902344 204.511719 193.613281 204.535156 193.398438 204.757812 L 192.035156 206.214844 L 186.453125 201.5 C 186.226562 201.304688 185.933594 201.328125 185.71875 201.554688 L 180.5625 207.050781 L 179.085938 205.804688 C 178.859375 205.609375 178.566406 205.632812 178.351562 205.859375 L 176.988281 207.3125 L 171.410156 202.597656 C 171.179688 202.402344 170.886719 202.425781 170.675781 202.652344 L 165.515625 208.148438 L 164.039062 206.90625 C 163.808594 206.710938 163.519531 206.730469 163.308594 206.960938 L 161.941406 208.414062 L 156.359375 203.699219 C 156.128906 203.503906 155.835938 203.527344 155.625 203.753906 L 150.464844 209.25 L 148.992188 208.003906 C 148.761719 207.8125 148.46875 207.832031 148.257812 208.058594 L 146.890625 209.511719 L 141.308594 204.800781 C 141.078125 204.605469 140.789062 204.625 140.578125 204.851562 L 135.417969 210.351562 L 133.941406 209.105469 C 133.636719 208.84375 133.238281 208.976562 133.050781 209.398438 C 132.867188 209.820312 132.964844 210.371094 133.269531 210.632812 L 134.320312 211.519531 L 133.347656 212.554688 C 133.066406 212.855469 133.015625 213.417969 133.234375 213.8125 C 133.363281 214.039062 133.554688 214.160156 133.75 214.160156 C 133.890625 214.160156 134.027344 214.097656 134.140625 213.972656 L 135.507812 212.519531 L 141.089844 217.234375 C 141.195312 217.324219 141.3125 217.367188 141.429688 217.367188 C 141.570312 217.367188 141.707031 217.304688 141.820312 217.179688 L 146.980469 211.683594 L 148.457031 212.929688 C 148.6875 213.121094 148.980469 213.101562 149.191406 212.875 L 150.554688 211.421875 L 156.136719 216.132812 C 156.367188 216.328125 156.660156 216.308594 156.871094 216.082031 L 162.03125 210.582031 L 163.507812 211.828125 C 163.738281 212.023438 164.027344 212 164.238281 211.777344 L 165.605469 210.324219 L 171.1875 215.035156 C 171.414062 215.230469 171.707031 215.207031 171.921875 214.980469 L 177.078125 209.484375 L 178.554688 210.730469 C 178.78125 210.925781 179.074219 210.902344 179.289062 210.675781 L 180.652344 209.222656 L 186.234375 213.9375 C 186.460938 214.128906 186.753906 214.109375 186.964844 213.882812 L 192.125 208.386719 L 193.601562 209.632812 C 193.832031 209.824219 194.125 209.804688 194.335938 209.578125 L 195.699219 208.121094 L 201.28125 212.835938 C 201.511719 213.027344 201.804688 213.007812 202.015625 212.78125 L 207.175781 207.285156 L 208.652344 208.53125 C 208.878906 208.726562 209.171875 208.703125 209.382812 208.476562 L 210.75 207.023438 L 216.332031 211.738281 C 216.5625 211.929688 216.851562 211.910156 217.0625 211.683594 L 222.222656 206.183594 L 223.699219 207.433594 C 223.929688 207.625 224.222656 207.605469 224.433594 207.378906 L 225.796875 205.925781 L 231.382812 210.636719 C 231.613281 210.832031 231.902344 210.8125 232.117188 210.585938 L 237.273438 205.085938 L 238.75 206.332031 C 238.980469 206.527344 239.273438 206.503906 239.484375 206.277344 L 240.847656 204.824219 L 246.433594 209.539062 C 246.664062 209.730469 246.953125 209.710938 247.164062 209.484375 L 252.328125 203.984375 L 253.800781 205.230469 C 254.03125 205.425781 254.324219 205.402344 254.535156 205.179688 L 255.902344 203.726562 L 261.484375 208.4375 C 261.714844 208.632812 262.007812 208.609375 262.21875 208.386719 L 267.382812 202.886719 L 268.855469 204.132812 C 269.164062 204.390625 269.5625 204.257812 269.746094 203.835938 C 269.933594 203.414062 269.835938 202.863281 269.53125 202.605469 "/><g style="fill:#e17100;fill-opacity:1;"><g transform="translate(342.43453, 127.096191)"><path style="stroke:none" d="M 14.28125 -87.71875 L 50 -87.71875 C 59.269531 -87.71875 67.457031 -85.859375 74.5625 -82.140625 C 81.664062 -78.421875 87.175781 -73.238281 91.09375 -66.59375 C 95.019531 -59.957031 96.984375 -52.378906 96.984375 -43.859375 C 96.984375 -35.335938 95.019531 -27.753906 91.09375 -21.109375 C 87.175781 -14.472656 81.664062 -9.296875 74.5625 -5.578125 C 67.457031 -1.859375 59.269531 0 50 0 L 14.28125 0 Z M 49.5 -8.015625 C 57.1875 -8.015625 63.910156 -9.539062 69.671875 -12.59375 C 75.441406 -15.644531 79.910156 -19.863281 83.078125 -25.25 C 86.253906 -30.632812 87.84375 -36.835938 87.84375 -43.859375 C 87.84375 -50.878906 86.253906 -57.082031 83.078125 -62.46875 C 79.910156 -67.851562 75.441406 -72.070312 69.671875 -75.125 C 63.910156 -78.175781 57.1875 -79.703125 49.5 -79.703125 L 23.5625 -79.703125 L 23.5625 -8.015625 Z M 49.5 -8.015625 "/></g></g><g style="fill:#e17100;fill-opacity:1;"><g transform="translate(445.929662, 127.096191)"><path style="stroke:none" d="M 12.40625 -65.921875 L 21.296875 -65.921875 L 21.296875 0 L 12.40625 0 Z M 16.921875 -80.328125 C 15.085938 -80.328125 13.539062 -80.953125 12.28125 -82.203125 C 11.03125 -83.453125 10.40625 -84.957031 10.40625 -86.71875 C 10.40625 -88.382812 11.03125 -89.84375 12.28125 -91.09375 C 13.539062 -92.351562 15.085938 -92.984375 16.921875 -92.984375 C 18.753906 -92.984375 20.296875 -92.375 21.546875 -91.15625 C 22.804688 -89.945312 23.4375 -88.507812 23.4375 -86.84375 C 23.4375 -85 22.804688 -83.453125 21.546875 -82.203125 C 20.296875 -80.953125 18.753906 -80.328125 16.921875 -80.328125 Z M 16.921875 -80.328125 "/></g></g><g style="fill:#e17100;fill-opacity:1;"><g transform="translate(479.634477, 127.096191)"><path style="stroke:none" d="M 20.921875 -53 C 23.015625 -57.4375 26.128906 -60.78125 30.265625 -63.03125 C 34.398438 -65.289062 39.515625 -66.421875 45.609375 -66.421875 L 45.609375 -57.765625 L 43.484375 -57.890625 C 36.546875 -57.890625 31.113281 -55.757812 27.1875 -51.5 C 23.257812 -47.238281 21.296875 -41.265625 21.296875 -33.578125 L 21.296875 0 L 12.40625 0 L 12.40625 -65.921875 L 20.921875 -65.921875 Z M 20.921875 -53 "/></g></g><g style="fill:#e17100;fill-opacity:1;"><g transform="translate(529.878484, 127.096191)"><path style="stroke:none" d="M 69.796875 -30.203125 L 14.65625 -30.203125 C 15.15625 -23.347656 17.785156 -17.8125 22.546875 -13.59375 C 27.316406 -9.375 33.332031 -7.265625 40.59375 -7.265625 C 44.6875 -7.265625 48.445312 -7.992188 51.875 -9.453125 C 55.300781 -10.921875 58.269531 -13.078125 60.78125 -15.921875 L 65.796875 -10.15625 C 62.867188 -6.644531 59.210938 -3.96875 54.828125 -2.125 C 50.441406 -0.289062 45.613281 0.625 40.34375 0.625 C 33.582031 0.625 27.585938 -0.8125 22.359375 -3.6875 C 17.140625 -6.570312 13.066406 -10.5625 10.140625 -15.65625 C 7.222656 -20.757812 5.765625 -26.523438 5.765625 -32.953125 C 5.765625 -39.390625 7.160156 -45.15625 9.953125 -50.25 C 12.753906 -55.34375 16.597656 -59.3125 21.484375 -62.15625 C 26.378906 -65 31.875 -66.421875 37.96875 -66.421875 C 44.070312 -66.421875 49.546875 -65 54.390625 -62.15625 C 59.234375 -59.3125 63.03125 -55.363281 65.78125 -50.3125 C 68.539062 -45.257812 69.921875 -39.472656 69.921875 -32.953125 Z M 37.96875 -58.765625 C 31.625 -58.765625 26.296875 -56.738281 21.984375 -52.6875 C 17.679688 -48.632812 15.238281 -43.351562 14.65625 -36.84375 L 61.40625 -36.84375 C 60.820312 -43.351562 58.378906 -48.632812 54.078125 -52.6875 C 49.773438 -56.738281 44.40625 -58.765625 37.96875 -58.765625 Z M 37.96875 -58.765625 "/></g></g><g style="fill:#e17100;fill-opacity:1;"><g transform="translate(605.557759, 127.096191)"><path style="stroke:none" d="M 12.40625 -65.921875 L 21.296875 -65.921875 L 21.296875 0 L 12.40625 0 Z M 16.921875 -80.328125 C 15.085938 -80.328125 13.539062 -80.953125 12.28125 -82.203125 C 11.03125 -83.453125 10.40625 -84.957031 10.40625 -86.71875 C 10.40625 -88.382812 11.03125 -89.84375 12.28125 -91.09375 C 13.539062 -92.351562 15.085938 -92.984375 16.921875 -92.984375 C 18.753906 -92.984375 20.296875 -92.375 21.546875 -91.15625 C 22.804688 -89.945312 23.4375 -88.507812 23.4375 -86.84375 C 23.4375 -85 22.804688 -83.453125 21.546875 -82.203125 C 20.296875 -80.953125 18.753906 -80.328125 16.921875 -80.328125 Z M 16.921875 -80.328125 "/></g></g><g style="fill:#e17100;fill-opacity:1;"><g transform="translate(639.262574, 127.096191)"><path style="stroke:none" d="M 47.125 -4.015625 C 45.445312 -2.503906 43.375 -1.351562 40.90625 -0.5625 C 38.445312 0.226562 35.878906 0.625 33.203125 0.625 C 27.023438 0.625 22.265625 -1.046875 18.921875 -4.390625 C 15.578125 -7.734375 13.90625 -12.453125 13.90625 -18.546875 L 13.90625 -58.390625 L 2.125 -58.390625 L 2.125 -65.921875 L 13.90625 -65.921875 L 13.90625 -80.328125 L 22.8125 -80.328125 L 22.8125 -65.921875 L 42.859375 -65.921875 L 42.859375 -58.390625 L 22.8125 -58.390625 L 22.8125 -19.046875 C 22.8125 -15.117188 23.789062 -12.128906 25.75 -10.078125 C 27.71875 -8.035156 30.535156 -7.015625 34.203125 -7.015625 C 36.046875 -7.015625 37.820312 -7.304688 39.53125 -7.890625 C 41.25 -8.472656 42.734375 -9.3125 43.984375 -10.40625 Z M 47.125 -4.015625 "/></g></g><g style="fill:#e17100;fill-opacity:1;"><g transform="translate(690.13306, 127.096191)"><path style="stroke:none" d="M 39.34375 0.625 C 33 0.625 27.273438 -0.8125 22.171875 -3.6875 C 17.078125 -6.570312 13.066406 -10.5625 10.140625 -15.65625 C 7.222656 -20.757812 5.765625 -26.523438 5.765625 -32.953125 C 5.765625 -39.390625 7.222656 -45.15625 10.140625 -50.25 C 13.066406 -55.34375 17.078125 -59.3125 22.171875 -62.15625 C 27.273438 -65 33 -66.421875 39.34375 -66.421875 C 45.695312 -66.421875 51.421875 -65 56.515625 -62.15625 C 61.609375 -59.3125 65.597656 -55.34375 68.484375 -50.25 C 71.367188 -45.15625 72.8125 -39.390625 72.8125 -32.953125 C 72.8125 -26.523438 71.367188 -20.757812 68.484375 -15.65625 C 65.597656 -10.5625 61.609375 -6.570312 56.515625 -3.6875 C 51.421875 -0.8125 45.695312 0.625 39.34375 0.625 Z M 39.34375 -7.265625 C 44.019531 -7.265625 48.21875 -8.328125 51.9375 -10.453125 C 55.65625 -12.585938 58.554688 -15.617188 60.640625 -19.546875 C 62.734375 -23.472656 63.78125 -27.941406 63.78125 -32.953125 C 63.78125 -37.960938 62.734375 -42.429688 60.640625 -46.359375 C 58.554688 -50.285156 55.65625 -53.3125 51.9375 -55.4375 C 48.21875 -57.570312 44.019531 -58.640625 39.34375 -58.640625 C 34.664062 -58.640625 30.46875 -57.570312 26.75 -55.4375 C 23.03125 -53.3125 20.101562 -50.285156 17.96875 -46.359375 C 15.84375 -42.429688 14.78125 -37.960938 14.78125 -32.953125 C 14.78125 -27.941406 15.84375 -23.472656 17.96875 -19.546875 C 20.101562 -15.617188 23.03125 -12.585938 26.75 -10.453125 C 30.46875 -8.328125 34.664062 -7.265625 39.34375 -7.265625 Z M 39.34375 -7.265625 "/></g></g><g style="fill:#e17100;fill-opacity:1;"><g transform="translate(342.43453, 234.252717)"><path style="stroke:none" d="M 52.875 1.5 C 43.769531 1.5 35.5625 -0.460938 28.25 -4.390625 C 20.945312 -8.316406 15.226562 -13.722656 11.09375 -20.609375 C 6.957031 -27.503906 4.890625 -35.253906 4.890625 -43.859375 C 4.890625 -52.460938 6.957031 -60.207031 11.09375 -67.09375 C 15.226562 -73.988281 20.945312 -79.398438 28.25 -83.328125 C 35.5625 -87.253906 43.769531 -89.21875 52.875 -89.21875 C 61.988281 -89.21875 70.175781 -87.253906 77.4375 -83.328125 C 84.707031 -79.398438 90.429688 -73.988281 94.609375 -67.09375 C 98.785156 -60.207031 100.875 -52.460938 100.875 -43.859375 C 100.875 -35.253906 98.785156 -27.503906 94.609375 -20.609375 C 90.429688 -13.722656 84.707031 -8.316406 77.4375 -4.390625 C 70.175781 -0.460938 61.988281 1.5 52.875 1.5 Z M 52.875 -15.796875 C 58.0625 -15.796875 62.742188 -16.984375 66.921875 -19.359375 C 71.097656 -21.742188 74.375 -25.066406 76.75 -29.328125 C 79.132812 -33.585938 80.328125 -38.429688 80.328125 -43.859375 C 80.328125 -49.285156 79.132812 -54.128906 76.75 -58.390625 C 74.375 -62.648438 71.097656 -65.96875 66.921875 -68.34375 C 62.742188 -70.726562 58.0625 -71.921875 52.875 -71.921875 C 47.695312 -71.921875 43.019531 -70.726562 38.84375 -68.34375 C 34.664062 -65.96875 31.382812 -62.648438 29 -58.390625 C 26.625 -54.128906 25.4375 -49.285156 25.4375 -43.859375 C 25.4375 -38.429688 26.625 -33.585938 29 -29.328125 C 31.382812 -25.066406 34.664062 -21.742188 38.84375 -19.359375 C 43.019531 -16.984375 47.695312 -15.796875 52.875 -15.796875 Z M 52.875 -15.796875 "/></g></g><g style="fill:#e17100;fill-opacity:1;"><g transform="translate(448.185022, 234.252717)"><path style="stroke:none" d="M 27.6875 -58.515625 C 30.03125 -61.773438 33.1875 -64.238281 37.15625 -65.90625 C 41.125 -67.582031 45.695312 -68.421875 50.875 -68.421875 L 50.875 -50.375 C 48.707031 -50.539062 47.242188 -50.625 46.484375 -50.625 C 40.890625 -50.625 36.503906 -49.054688 33.328125 -45.921875 C 30.160156 -42.796875 28.578125 -38.097656 28.578125 -31.828125 L 28.578125 0 L 9.015625 0 L 9.015625 -67.421875 L 27.6875 -67.421875 Z M 27.6875 -58.515625 "/></g></g><g style="fill:#e17100;fill-opacity:1;"><g transform="translate(502.18795, 234.252717)"><path style="stroke:none" d="M 78.578125 -67.421875 L 78.578125 -11.28125 C 78.578125 1.082031 75.359375 10.269531 68.921875 16.28125 C 62.484375 22.300781 53.085938 25.3125 40.734375 25.3125 C 34.210938 25.3125 28.023438 24.515625 22.171875 22.921875 C 16.328125 21.335938 11.484375 19.046875 7.640625 16.046875 L 15.40625 2 C 18.25 4.34375 21.84375 6.203125 26.1875 7.578125 C 30.53125 8.960938 34.875 9.65625 39.21875 9.65625 C 45.988281 9.65625 50.976562 8.128906 54.1875 5.078125 C 57.40625 2.023438 59.015625 -2.585938 59.015625 -8.765625 L 59.015625 -11.65625 C 53.921875 -6.0625 46.820312 -3.265625 37.71875 -3.265625 C 31.539062 -3.265625 25.878906 -4.617188 20.734375 -7.328125 C 15.597656 -10.046875 11.523438 -13.867188 8.515625 -18.796875 C 5.515625 -23.722656 4.015625 -29.40625 4.015625 -35.84375 C 4.015625 -42.269531 5.515625 -47.945312 8.515625 -52.875 C 11.523438 -57.8125 15.597656 -61.632812 20.734375 -64.34375 C 25.878906 -67.0625 31.539062 -68.421875 37.71875 -68.421875 C 47.488281 -68.421875 54.925781 -65.203125 60.03125 -58.765625 L 60.03125 -67.421875 Z M 41.609375 -19.296875 C 46.785156 -19.296875 51.019531 -20.820312 54.3125 -23.875 C 57.613281 -26.925781 59.265625 -30.914062 59.265625 -35.84375 C 59.265625 -40.769531 57.613281 -44.753906 54.3125 -47.796875 C 51.019531 -50.847656 46.785156 -52.375 41.609375 -52.375 C 36.421875 -52.375 32.15625 -50.847656 28.8125 -47.796875 C 25.476562 -44.753906 23.8125 -40.769531 23.8125 -35.84375 C 23.8125 -30.914062 25.476562 -26.925781 28.8125 -23.875 C 32.15625 -20.820312 36.421875 -19.296875 41.609375 -19.296875 Z M 41.609375 -19.296875 "/></g></g><g style="fill:#e17100;fill-opacity:1;"><g transform="translate(589.89569, 234.252717)"><path style="stroke:none" d="M 36.21875 -68.421875 C 46.65625 -68.421875 54.671875 -65.9375 60.265625 -60.96875 C 65.867188 -56 68.671875 -48.5 68.671875 -38.46875 L 68.671875 0 L 50.375 0 L 50.375 -8.390625 C 46.695312 -2.128906 39.847656 1 29.828125 1 C 24.648438 1 20.160156 0.125 16.359375 -1.625 C 12.554688 -3.382812 9.648438 -5.804688 7.640625 -8.890625 C 5.640625 -11.984375 4.640625 -15.492188 4.640625 -19.421875 C 4.640625 -25.691406 7 -30.617188 11.71875 -34.203125 C 16.4375 -37.796875 23.722656 -39.59375 33.578125 -39.59375 L 49.125 -39.59375 C 49.125 -43.851562 47.828125 -47.128906 45.234375 -49.421875 C 42.648438 -51.722656 38.765625 -52.875 33.578125 -52.875 C 29.992188 -52.875 26.46875 -52.3125 23 -51.1875 C 19.53125 -50.0625 16.582031 -48.535156 14.15625 -46.609375 L 7.140625 -60.28125 C 10.816406 -62.863281 15.222656 -64.863281 20.359375 -66.28125 C 25.492188 -67.707031 30.78125 -68.421875 36.21875 -68.421875 Z M 34.71875 -12.15625 C 38.050781 -12.15625 41.015625 -12.925781 43.609375 -14.46875 C 46.203125 -16.019531 48.039062 -18.296875 49.125 -21.296875 L 49.125 -28.203125 L 35.71875 -28.203125 C 27.695312 -28.203125 23.6875 -25.566406 23.6875 -20.296875 C 23.6875 -17.796875 24.664062 -15.8125 26.625 -14.34375 C 28.59375 -12.882812 31.289062 -12.15625 34.71875 -12.15625 Z M 34.71875 -12.15625 "/></g></g><g style="fill:#e17100;fill-opacity:1;"><g transform="translate(667.203799, 234.252717)"><path style="stroke:none" d="M 50 -68.421875 C 58.351562 -68.421875 65.097656 -65.914062 70.234375 -60.90625 C 75.367188 -55.894531 77.9375 -48.457031 77.9375 -38.59375 L 77.9375 0 L 58.390625 0 L 58.390625 -35.59375 C 58.390625 -40.9375 57.21875 -44.921875 54.875 -47.546875 C 52.539062 -50.179688 49.160156 -51.5 44.734375 -51.5 C 39.804688 -51.5 35.878906 -49.972656 32.953125 -46.921875 C 30.035156 -43.878906 28.578125 -39.347656 28.578125 -33.328125 L 28.578125 0 L 9.015625 0 L 9.015625 -67.421875 L 27.6875 -67.421875 L 27.6875 -59.53125 C 30.28125 -62.363281 33.5 -64.550781 37.34375 -66.09375 C 41.1875 -67.644531 45.40625 -68.421875 50 -68.421875 Z M 50 -68.421875 "/></g></g><g style="fill:#e17100;fill-opacity:1;"><g transform="translate(753.783906, 234.252717)"><path style="stroke:none" d="M 9.015625 -67.421875 L 28.578125 -67.421875 L 28.578125 0 L 9.015625 0 Z M 18.796875 -76.8125 C 15.203125 -76.8125 12.273438 -77.851562 10.015625 -79.9375 C 7.765625 -82.03125 6.640625 -84.625 6.640625 -87.71875 C 6.640625 -90.8125 7.765625 -93.398438 10.015625 -95.484375 C 12.273438 -97.578125 15.203125 -98.625 18.796875 -98.625 C 22.390625 -98.625 25.3125 -97.617188 27.5625 -95.609375 C 29.820312 -93.609375 30.953125 -91.101562 30.953125 -88.09375 C 30.953125 -84.832031 29.820312 -82.132812 27.5625 -80 C 25.3125 -77.875 22.390625 -76.8125 18.796875 -76.8125 Z M 18.796875 -76.8125 "/></g></g><g style="fill:#e17100;fill-opacity:1;"><g transform="translate(791.498243, 234.252717)"><path style="stroke:none" d="M 64.53125 -15.03125 L 64.53125 0 L 4.390625 0 L 4.390625 -11.78125 L 38.71875 -52.375 L 5.265625 -52.375 L 5.265625 -67.421875 L 63.40625 -67.421875 L 63.40625 -55.640625 L 29.078125 -15.03125 Z M 64.53125 -15.03125 "/></g></g><g style="fill:#e17100;fill-opacity:1;"><g transform="translate(859.534399, 234.252717)"><path style="stroke:none" d="M 36.21875 -68.421875 C 46.65625 -68.421875 54.671875 -65.9375 60.265625 -60.96875 C 65.867188 -56 68.671875 -48.5 68.671875 -38.46875 L 68.671875 0 L 50.375 0 L 50.375 -8.390625 C 46.695312 -2.128906 39.847656 1 29.828125 1 C 24.648438 1 20.160156 0.125 16.359375 -1.625 C 12.554688 -3.382812 9.648438 -5.804688 7.640625 -8.890625 C 5.640625 -11.984375 4.640625 -15.492188 4.640625 -19.421875 C 4.640625 -25.691406 7 -30.617188 11.71875 -34.203125 C 16.4375 -37.796875 23.722656 -39.59375 33.578125 -39.59375 L 49.125 -39.59375 C 49.125 -43.851562 47.828125 -47.128906 45.234375 -49.421875 C 42.648438 -51.722656 38.765625 -52.875 33.578125 -52.875 C 29.992188 -52.875 26.46875 -52.3125 23 -51.1875 C 19.53125 -50.0625 16.582031 -48.535156 14.15625 -46.609375 L 7.140625 -60.28125 C 10.816406 -62.863281 15.222656 -64.863281 20.359375 -66.28125 C 25.492188 -67.707031 30.78125 -68.421875 36.21875 -68.421875 Z M 34.71875 -12.15625 C 38.050781 -12.15625 41.015625 -12.925781 43.609375 -14.46875 C 46.203125 -16.019531 48.039062 -18.296875 49.125 -21.296875 L 49.125 -28.203125 L 35.71875 -28.203125 C 27.695312 -28.203125 23.6875 -25.566406 23.6875 -20.296875 C 23.6875 -17.796875 24.664062 -15.8125 26.625 -14.34375 C 28.59375 -12.882812 31.289062 -12.15625 34.71875 -12.15625 Z M 34.71875 -12.15625 "/></g></g><g style="fill:#e17100;fill-opacity:1;"><g transform="translate(936.842507, 234.252717)"><path style="stroke:none" d="M 77.6875 -92.984375 L 77.6875 0 L 59.015625 0 L 59.015625 -7.765625 C 54.171875 -1.921875 47.15625 1 37.96875 1 C 31.625 1 25.878906 -0.414062 20.734375 -3.25 C 15.597656 -6.09375 11.566406 -10.144531 8.640625 -15.40625 C 5.722656 -20.675781 4.265625 -26.773438 4.265625 -33.703125 C 4.265625 -40.640625 5.722656 -46.738281 8.640625 -52 C 11.566406 -57.269531 15.597656 -61.320312 20.734375 -64.15625 C 25.878906 -67 31.625 -68.421875 37.96875 -68.421875 C 46.570312 -68.421875 53.296875 -65.707031 58.140625 -60.28125 L 58.140625 -92.984375 Z M 41.359375 -15.03125 C 46.285156 -15.03125 50.375 -16.722656 53.625 -20.109375 C 56.882812 -23.492188 58.515625 -28.023438 58.515625 -33.703125 C 58.515625 -39.390625 56.882812 -43.921875 53.625 -47.296875 C 50.375 -50.679688 46.285156 -52.375 41.359375 -52.375 C 36.335938 -52.375 32.195312 -50.679688 28.9375 -47.296875 C 25.6875 -43.921875 24.0625 -39.390625 24.0625 -33.703125 C 24.0625 -28.023438 25.6875 -23.492188 28.9375 -20.109375 C 32.195312 -16.722656 36.335938 -15.03125 41.359375 -15.03125 Z M 41.359375 -15.03125 "/></g></g><g style="fill:#e17100;fill-opacity:1;"><g transform="translate(1023.547891, 234.252717)"><path style="stroke:none" d="M 41.109375 1 C 34.003906 1 27.628906 -0.476562 21.984375 -3.4375 C 16.347656 -6.40625 11.941406 -10.519531 8.765625 -15.78125 C 5.597656 -21.050781 4.015625 -27.023438 4.015625 -33.703125 C 4.015625 -40.390625 5.597656 -46.363281 8.765625 -51.625 C 11.941406 -56.894531 16.347656 -61.007812 21.984375 -63.96875 C 27.628906 -66.9375 34.003906 -68.421875 41.109375 -68.421875 C 48.203125 -68.421875 54.546875 -66.9375 60.140625 -63.96875 C 65.742188 -61.007812 70.128906 -56.894531 73.296875 -51.625 C 76.472656 -46.363281 78.0625 -40.390625 78.0625 -33.703125 C 78.0625 -27.023438 76.472656 -21.050781 73.296875 -15.78125 C 70.128906 -10.519531 65.742188 -6.40625 60.140625 -3.4375 C 54.546875 -0.476562 48.203125 1 41.109375 1 Z M 41.109375 -15.03125 C 46.117188 -15.03125 50.226562 -16.722656 53.4375 -20.109375 C 56.65625 -23.492188 58.265625 -28.023438 58.265625 -33.703125 C 58.265625 -39.390625 56.65625 -43.921875 53.4375 -47.296875 C 50.226562 -50.679688 46.117188 -52.375 41.109375 -52.375 C 36.085938 -52.375 31.945312 -50.679688 28.6875 -47.296875 C 25.4375 -43.921875 23.8125 -39.390625 23.8125 -33.703125 C 23.8125 -28.023438 25.4375 -23.492188 28.6875 -20.109375 C 31.945312 -16.722656 36.085938 -15.03125 41.109375 -15.03125 Z M 41.109375 -15.03125 "/></g></g><g clip-rule="nonzero" clip-path="url(#b0adbca97a)"><path style=" stroke:none;fill-rule:nonzero;fill:#e17100;fill-opacity:1;" d="M 1111.738281 194.628906 C 1111.628906 197.953125 1110.71875 201.21875 1109.726562 204.371094 C 1108.707031 207.609375 1107.585938 210.847656 1105.824219 213.746094 C 1102.917969 218.53125 1098.6875 222.644531 1093.8125 225.335938 C 1091.484375 226.621094 1089.082031 227.796875 1086.84375 229.242188 C 1084.53125 230.734375 1082.953125 232.042969 1080.199219 232.667969 C 1073.695312 234.136719 1066.960938 235.796875 1060.28125 236.070312 C 1057.144531 236.195312 1052.523438 236.417969 1049.6875 234.855469 C 1047.46875 233.632812 1044.808594 233.640625 1042.449219 232.535156 C 1036.347656 229.683594 1031.875 224.976562 1028.359375 219.578125 C 1026.292969 216.40625 1025.359375 212.328125 1024.621094 208.519531 C 1024.097656 205.835938 1024.589844 202.945312 1025.066406 200.121094 C 1025.871094 195.386719 1027.871094 191.144531 1029.863281 186.921875 C 1031.554688 183.34375 1033.75 180.003906 1036.699219 177.195312 C 1041.414062 172.703125 1046.878906 169.425781 1052.710938 166.699219 C 1057.425781 164.496094 1062.292969 162.992188 1067.582031 162.550781 C 1071.003906 162.269531 1074.386719 161.367188 1077.871094 161.707031 C 1083.710938 162.277344 1088.800781 165.09375 1094.125 167.199219 C 1094.3125 167.273438 1094.496094 167.421875 1094.625 167.582031 C 1098.136719 172.066406 1102.554688 175.644531 1106.605469 179.59375 C 1107.875 180.828125 1108.851562 182.605469 1109.375 184.316406 C 1110.367188 187.550781 1111.746094 190.484375 1111.75 193.9375 C 1111.75 194.167969 1111.746094 194.398438 1111.738281 194.628906 Z M 1111.738281 194.628906 "/></g><g clip-rule="nonzero" clip-path="url(#fc6bc6a755)"><path style=" stroke:none;fill-rule:nonzero;fill:#fef3c6;fill-opacity:1;" d="M 1119.914062 157.539062 C 1118.609375 160.160156 1115.953125 161.058594 1113.65625 162.308594 C 1111.21875 163.640625 1109.132812 165.59375 1106.363281 166.375 C 1105.8125 166.53125 1105.074219 167.304688 1106.015625 168.195312 C 1108.582031 170.621094 1110.351562 173.617188 1111.828125 176.777344 C 1113.414062 180.183594 1114.101562 183.851562 1114.300781 187.558594 C 1114.683594 194.800781 1112.996094 201.703125 1109.441406 207.929688 C 1107.289062 211.703125 1104.710938 215.265625 1101.367188 218.339844 C 1097.972656 221.460938 1093.964844 223.527344 1090.417969 226.28125 C 1084.882812 230.578125 1078.523438 230.929688 1072.027344 231.523438 C 1067.730469 231.921875 1063.527344 231.519531 1059.476562 230.484375 C 1054.261719 229.148438 1049.449219 226.820312 1044.929688 223.675781 C 1039.90625 220.175781 1036.3125 215.597656 1033.359375 210.488281 C 1031.148438 206.667969 1030.269531 202.304688 1029.554688 197.902344 C 1028.597656 192 1029.773438 186.414062 1031.554688 180.949219 C 1033.023438 176.453125 1035.757812 172.5625 1038.8125 168.9375 C 1042.824219 164.183594 1047.6875 160.5 1053.3125 157.929688 C 1057.773438 155.894531 1062.429688 154.332031 1067.363281 153.859375 C 1068.203125 153.777344 1069.398438 153.609375 1069.574219 154.925781 C 1069.75 156.234375 1068.558594 156.101562 1067.808594 156.246094 C 1056.574219 158.4375 1047.191406 163.738281 1040.730469 173.300781 C 1034.992188 181.796875 1032.945312 191.203125 1035.300781 201.417969 C 1036.011719 204.5 1036.964844 207.519531 1038.503906 210.175781 C 1040.085938 212.902344 1042.621094 215 1044.984375 217.15625 C 1049.703125 221.460938 1055.199219 224.445312 1061.445312 225.273438 C 1069.007812 226.273438 1076.574219 226.070312 1083.914062 223.105469 C 1091.152344 220.179688 1097.386719 215.75 1102.433594 210.0625 C 1110.621094 200.835938 1113.347656 190.039062 1108.820312 178.121094 C 1107.660156 175.074219 1105.703125 172.308594 1103.296875 170.054688 C 1101.777344 168.628906 1100.246094 170.136719 1099.144531 170.992188 C 1096.988281 172.664062 1095.101562 174.679688 1093.113281 176.554688 C 1092.175781 177.4375 1090.898438 177.6875 1089.847656 178.4375 C 1087.152344 180.367188 1085.410156 183.441406 1082.632812 185.015625 C 1079.308594 186.90625 1077.570312 190.085938 1075.09375 192.625 C 1071.804688 196.003906 1069.910156 200.460938 1067.207031 204.316406 C 1066.652344 205.109375 1066.769531 206.378906 1066.605469 207.433594 C 1066.4375 208.550781 1066.046875 209.605469 1064.941406 209.992188 C 1063.980469 210.332031 1063.496094 209.304688 1062.820312 208.828125 C 1061.757812 208.082031 1061.132812 206.878906 1060.902344 205.8125 C 1060.292969 203 1058.964844 200.429688 1057.824219 197.921875 C 1056.363281 194.71875 1055.433594 190.84375 1051.640625 189.089844 C 1050.695312 188.65625 1049.8125 187.679688 1050.425781 186.449219 C 1050.933594 185.441406 1051.847656 184.945312 1053.113281 185.191406 C 1054.652344 185.492188 1055.886719 186.269531 1057.003906 187.308594 C 1059.898438 189.992188 1062.769531 192.6875 1063.621094 196.804688 C 1063.6875 197.121094 1063.988281 197.386719 1064.046875 197.476562 C 1068.054688 192.210938 1070.730469 186.078125 1075.851562 181.449219 C 1081.40625 176.425781 1086.910156 171.394531 1093.011719 167.046875 C 1093.957031 166.371094 1095.832031 166.15625 1095.519531 164.859375 C 1095.273438 163.832031 1093.554688 163.410156 1092.359375 162.925781 C 1086.445312 160.515625 1080.214844 160.074219 1073.976562 160.394531 C 1070.308594 160.582031 1066.515625 160.859375 1063.128906 162.652344 C 1061.996094 163.257812 1060.644531 163.027344 1059.515625 163.828125 C 1059.113281 164.117188 1057.996094 163.5625 1057.679688 162.707031 C 1057.367188 161.851562 1057.71875 161.164062 1058.402344 160.640625 C 1059.90625 159.484375 1061.777344 159.074219 1063.496094 158.511719 C 1069.421875 156.582031 1075.488281 156.03125 1081.761719 156.628906 C 1088.058594 157.226562 1093.832031 159.019531 1099.132812 162.394531 C 1099.992188 162.941406 1100.496094 162.625 1101.234375 162.207031 C 1105.863281 159.582031 1110.820312 157.640625 1115.613281 155.355469 C 1116.316406 155.023438 1117.097656 154.824219 1117.867188 154.679688 C 1118.636719 154.535156 1119.53125 154.4375 1120.074219 155.128906 C 1120.679688 155.902344 1120.3125 156.734375 1119.914062 157.539062 Z M 1119.914062 157.539062 "/></g></g></svg>